<svg viewBox="0 0 825 459" xmlns="http://www.w3.org/2000/svg" fill-rule="evenodd" clip-rule="evenodd" stroke-linecap="round" stroke-linejoin="round" stroke-miterlimit="10"><ellipse cx="217.77" cy="443.4" rx="91.125" ry="8.55" fill="#525456"/><ellipse cx="623.67" cy="449.7" rx="91.125" ry="8.55" fill="#525456"/><g fill="#a9a8a9" fill-rule="nonzero"><path d="M258.195 244.95l-17.7-8.25c-1.125-.525-1.65-1.875-1.125-3 .525-1.125 1.875-1.65 3-1.125l17.7 8.25c1.125.525 1.65 1.875 1.125 3-.525 1.125-1.875 1.65-3 1.125zM260.145 240.825l-17.7-8.25c-1.125-.525-1.65-1.875-1.125-3 .525-1.125 1.875-1.65 3-1.125l17.7 8.25c1.125.525 1.65 1.875 1.125 3-.525 1.2-1.875 1.65-3 1.125z"/><path d="M262.02 236.775l-17.7-8.25c-1.125-.525-1.65-1.875-1.125-3 .525-1.125 1.875-1.65 3-1.125l17.7 8.25c1.125.525 1.65 1.875 1.125 3-.525 1.2-1.875 1.65-3 1.125z"/></g><path d="M463.095 233.55l7.725 15.15c2.325 4.575-1.125 9.975-6.3 9.675l-14.475-.75 13.05-24.075z" fill="#23d497" fill-rule="nonzero"/><path d="M504.143 304.507l-14.159 8.175 5.55 9.612 14.159-8.175-5.55-9.612z" fill="#191919"/><path d="M504.143 304.507l-14.159 8.175 5.55 9.612 14.159-8.175-5.55-9.612zM463.095 233.55l7.725 15.15c2.325 4.575-1.125 9.975-6.3 9.675l-14.475-.75 13.05-24.075z" fill="none" stroke="#151515" stroke-width="3"/><path d="M447.195 225.375L535.92 111.3l14.025 2.4-88.65 124.275-14.1-12.6z" fill="#242424" fill-rule="nonzero"/><path d="M543.57 112.575L456.87 234l4.425 3.975 88.65-124.275-6.375-1.125z" fill="#1a1a1a" fill-rule="nonzero"/><path d="M529.695 119.25l10.8 5.625 3.375-7.95-5.025-4.35-9.15 6.675z" fill="#1a1a1a" fill-rule="nonzero"/><path d="M447.195 225.375L535.92 111.3l14.025 2.4-88.65 124.275-14.1-12.6z" fill="none" stroke="#151515" stroke-width="3"/><path d="M591.27 93.15l-.75.15c-16.2 2.925-32.625 3.525-48.975 1.875l-26.325-1.5c-4.95-.3-9.75 1.95-12.975 6.075l-6.15 8.025c-.825 1.125-.3 2.775.975 3.075 0 0 31.125.375 58.8 13.125 2.625 1.2 5.625 1.275 8.25-.15 9.525-5.1 31.5-17.1 31.5-17.1 2.7-1.5 4.2-4.8 3.45-8.175-.825-3.75-4.275-6.075-7.8-5.4z" fill="#191919" fill-rule="nonzero"/><path d="M497.07 110.775h1.275l3.975-5.1c3.225-4.125 7.95-6.375 12.975-6.075l29.925 5.1c16.35 1.725 26.775.375 45.3-5.475l.75-.15c3.075-.525 6.15 1.125 7.425 4.125.6-1.425.75-3.075.375-4.725-.825-3.75-4.275-6-7.8-5.4l-.75.15c-16.2 2.925-32.625 3.525-48.975 1.875l-26.325-1.5c-4.95-.3-9.75 1.95-12.975 6.075l-6.15 8.025c-.825 1.125-.3 2.775.975 3.075z" fill="#242424" fill-rule="nonzero"/><path d="M591.27 93.15l-.75.15c-16.2 2.925-32.625 3.525-48.975 1.875l-26.325-1.5c-4.95-.3-9.75 1.95-12.975 6.075l-6.15 8.025c-.825 1.125-.3 2.775.975 3.075 0 0 31.125.375 58.8 13.125 2.625 1.2 5.625 1.275 8.25-.15 9.525-5.1 31.5-17.1 31.5-17.1 2.7-1.5 4.2-4.8 3.45-8.175-.825-3.75-4.275-6.075-7.8-5.4z" fill="none" stroke="#151515" stroke-width="3"/><path d="M258.195 258.675c3.45-7.575-.3-13.5-7.8-17.1l-.075-.075s-1.875-.825-2.1-.9c-7.8-3.825-15.075-1.275-18.675 6.75-16.125 35.85-29.25 72.975-39.15 111 5.325 1.35 10.65 2.775 15.975 4.125 7.8-30 17.625-59.325 29.4-87.975 1.575-3.825 5.175-6.375 9.15-6.45 5.925 0 10.725-3.75 13.275-9.375z" fill="#242424" fill-rule="nonzero"/><path d="M205.245 324.9l27.375-71.775" fill="none" stroke="#fff" stroke-opacity=".46" stroke-width="1.5"/><path d="M257.145 246.675c-.15 1.35-.525 2.775-1.2 4.275-2.55 5.625-7.35 9.3-13.2 9.375-3.975.075-7.65 2.625-9.15 6.45a680.133 680.133 0 00-29.4 87.975c-3.975-1.05-7.95-2.1-11.925-3.075-.6 2.25-1.2 4.425-1.8 6.675 5.325 1.35 10.65 2.775 15.975 4.125 7.8-30 17.625-59.325 29.4-87.975 1.575-3.825 5.175-6.375 9.15-6.45 5.85-.075 10.65-3.75 13.2-9.375 2.1-4.65 1.5-8.7-1.05-12z" fill="#191919" fill-opacity=".92" fill-rule="nonzero"/><path d="M258.195 258.675c3.45-7.575-.3-13.5-7.8-17.1l-.075-.075s-1.875-.825-2.1-.9c-7.8-3.825-15.075-1.275-18.675 6.75-16.125 35.85-29.25 72.975-39.15 111 5.325 1.35 10.65 2.775 15.975 4.125 7.8-30 17.625-59.325 29.4-87.975 1.575-3.825 5.175-6.375 9.15-6.45 5.925 0 10.725-3.75 13.275-9.375z" fill="none" stroke="#151515" stroke-width="3"/><path d="M599.97 378.075l-177-.375c-17.25-.375-30.525-15.375-28.8-32.55 1.725-17.175 17.775-29.175 34.725-26.1l174.45 25.35-3.375 33.675z" fill="#25ba81" fill-rule="nonzero"/><path d="M433.695 329.7l165.675 18.675" fill="none" stroke="#151515" stroke-width="2.25"/><path d="M443.22 359.175c-17.25-.375-30.525-15.375-28.8-32.55.225-2.475.825-4.8 1.575-6.975-11.475 3.075-20.55 12.9-21.825 25.575-1.725 17.175 11.55 32.175 28.8 32.55l177 .375 1.875-18.6-158.625-.375z" fill="#31fe9f" fill-rule="nonzero"/><path d="M415.17 322.575a21.8 21.8 0 01.9-2.925c-.3.075-.675.15-.975.3 0 .825 0 1.725.075 2.625zM600.795 368.55l-177-.375c-15.375-.3-27.6-12.3-28.8-27.075-.3 1.35-.6 2.7-.75 4.125-1.725 17.175 11.55 32.175 28.8 32.55l177 .375 1.875-18.6h-.225l-.9 9z" fill="#23d497" fill-rule="nonzero"/><path d="M443.22 359.175c-17.25-.375-30.525-15.375-28.8-32.55.225-2.475.825-4.8 1.575-6.975-11.475 3.075-20.55 12.9-21.825 25.575-1.725 17.175 11.55 32.175 28.8 32.55l177 .375 1.875-18.6-158.625-.375z" fill="none" stroke="#151515" stroke-width="3"/><path d="M599.97 378.075l-177-.375c-17.25-.375-30.525-15.375-28.8-32.55 1.725-17.175 17.775-29.175 34.725-26.1l174.45 25.35-3.375 33.675z" fill="none" stroke="#151515" stroke-width="3"/><g fill="none" stroke="#151515" stroke-width="3"><path d="M258.195 244.95l-17.7-8.25c-1.125-.525-1.65-1.875-1.125-3 .525-1.125 1.875-1.65 3-1.125l17.7 8.25c1.125.525 1.65 1.875 1.125 3-.525 1.125-1.875 1.65-3 1.125zM260.145 240.825l-17.7-8.25c-1.125-.525-1.65-1.875-1.125-3 .525-1.125 1.875-1.65 3-1.125l17.7 8.25c1.125.525 1.65 1.875 1.125 3-.525 1.2-1.875 1.65-3 1.125z"/><path d="M262.02 236.775l-17.7-8.25c-1.125-.525-1.65-1.875-1.125-3 .525-1.125 1.875-1.65 3-1.125l17.7 8.25c1.125.525 1.65 1.875 1.125 3-.525 1.2-1.875 1.65-3 1.125z"/></g><path d="M264.42 232.8l-18.45-8.625c-1.275-.6-1.875-2.1-1.275-3.45l32.7-70.125c.6-1.275 2.1-1.875 3.45-1.275l18.45 8.625c1.275.6 1.875 2.1 1.275 3.45l-32.7 70.2c-.6 1.275-2.175 1.8-3.45 1.2z" fill="#31fe9f" fill-rule="nonzero"/><path d="M299.295 158.025l-18.45-8.625c-.15-.075-.3-.15-.525-.15l10.875 5.1c1.275.6 1.875 2.1 1.275 3.45l-32.7 70.125c-.525 1.125-1.725 1.725-2.925 1.425l7.575 3.525c1.275.6 2.85.075 3.45-1.275l32.7-70.125c.6-1.275 0-2.85-1.275-3.45z" fill="#23d497" fill-rule="nonzero"/><path d="M264.42 232.8l-18.45-8.625c-1.275-.6-1.875-2.1-1.275-3.45l32.7-70.125c.6-1.275 2.1-1.875 3.45-1.275l18.45 8.625c1.275.6 1.875 2.1 1.275 3.45l-32.7 70.2c-.6 1.275-2.175 1.8-3.45 1.2z" fill="none" stroke="#151515" stroke-width="3"/><path d="M439.47 337.65a112.3 112.3 0 01-1.95-20.85c0-41.775 31.05-85.95 31.05-85.95l-17.775-14.55-15.6 15.75c-10.65 11.775-30.675 13.95-44.55 6.3L285.57 191.175l-14.325 29.175 84.45 49.2c26.925 18.15 43.575 48.15 44.55 80.625l.15 2.475c.75 11.475 10.8 20.025 22.2 19.05 11.775-1.05 20.175-11.775 18.45-23.475l-1.575-10.575z" fill="#31fe9f" fill-rule="nonzero"/><path d="M410.82 352.2l-5.325-2.775c-1.125-36.525 2.775-66.15-42.6-93.15l-87.6-44.1-3.975 8.175 84.45 49.2c26.925 18.15 41.85 42.975 44.25 75.225l1.8 1.275c.525 8.25 5.85 15 13.125 17.775a21.57 21.57 0 01-4.125-11.625z" fill="#23d497" fill-rule="nonzero"/><path d="M439.47 337.65a112.3 112.3 0 01-1.95-20.85c0-41.775 31.05-85.95 31.05-85.95l-3.975-3.225c-3 4.425-39 44.475-39 83.925 0 7.125-5.925 19.35-4.65 26.1l12.225 3.45c1.8 11.7-6.675 22.425-18.45 23.475-3.975.375-7.725-.45-11.025-2.1 3.975 6.075 11.175 9.9 18.9 9.15 11.775-1.05 20.175-11.775 18.45-23.475l-1.575-10.5zM347.745 262.5l-75.6-44.025-.9 1.95 84.45 49.2c2.4 1.575 4.65 3.3 6.825 5.025-4.5-4.5-9.375-8.55-14.775-12.15z" fill="#23d497" fill-rule="nonzero"/><g opacity=".83"><path d="M397.545 329.7c1.575 6.675 2.55 13.5 2.775 20.475l.15 2.475c.3 4.65 2.175 8.85 5.025 12.15-.75-12.225-3.525-24-7.95-35.1zM395.07 245.4c15.225 8.4 34.275 3.225 45.975-9.675l13.5-16.425-3.75-3.075-15.6 15.75c-10.65 11.775-30.675 13.95-44.55 6.3L285.57 191.1l-2.1 4.2 111.6 50.1z" fill="#86fcbe" fill-rule="nonzero"/></g><path d="M280.47 222.375l13.275-27.6-11.1-4.875-13.8 27.975 11.625 4.5z" fill="#23d497" fill-rule="nonzero"/><path d="M439.47 337.65a112.3 112.3 0 01-1.95-20.85c0-41.775 31.05-85.95 31.05-85.95l-17.775-14.55-15.6 15.75c-10.65 11.775-30.675 13.95-44.55 6.3L285.57 191.175l-14.325 29.175 84.45 49.2c26.925 18.15 43.575 48.15 44.55 80.625l.15 2.475c.75 11.475 10.8 20.025 22.2 19.05 11.775-1.05 20.175-11.775 18.45-23.475l-1.575-10.575z" fill="none" stroke="#151515" stroke-width="3"/><path d="M306.495 122.775L325.47 15.15l-17.175-3-20.55 116.7-.525 2.925c-.6 3.45.9 6.825 3.6 8.025l12.375 5.475c2.85 1.275 5.85-2.1 5.025-5.55-1.35-5.475-2.55-12.15-1.725-16.95z" fill="#242424" fill-rule="nonzero"/><path d="M306.495 122.775L325.47 15.15l-17.175-3-.6 3.525 10.725 1.875-19.05 107.55c-.825 4.8.3 11.475 1.65 16.875.225.75.15 1.575 0 2.25l2.1.9c2.85 1.275 5.85-2.1 5.025-5.55-1.275-5.325-2.475-12-1.65-16.8z" fill="#1a1a1a" fill-rule="nonzero"/><path d="M306.495 122.775L325.47 15.15l-17.175-3-20.55 116.7-.525 2.925c-.6 3.45.9 6.825 3.6 8.025l12.375 5.475c2.85 1.275 5.85-2.1 5.025-5.55-1.35-5.475-2.55-12.15-1.725-16.95z" fill="none" stroke="#151515" stroke-width="3"/><path d="M299.295 158.25l-16.725-6.75a6.803 6.803 0 01-3.75-8.775 6.803 6.803 0 018.775-3.75l16.725 6.75a6.803 6.803 0 013.75 8.775c-1.35 3.45-5.325 5.1-8.775 3.75z" fill="#242424" fill-rule="nonzero"/><path d="M304.395 145.725l-5.85-2.4c1.8 1.875 2.475 4.725 1.425 7.275a6.803 6.803 0 01-8.775 3.75l-10.8-4.35c.6.6 1.425 1.125 2.25 1.5l16.725 6.75c3.45 1.425 7.425-.3 8.775-3.75 1.35-3.45-.3-7.425-3.75-8.775z" fill="#1a1a1a" fill-rule="nonzero"/><path d="M299.295 158.25l-16.725-6.75a6.803 6.803 0 01-3.75-8.775 6.803 6.803 0 018.775-3.75l16.725 6.75a6.803 6.803 0 013.75 8.775c-1.35 3.45-5.325 5.1-8.775 3.75z" fill="none" stroke="#151515" stroke-width="3"/><path d="M310.649 7.642c4.678-2.487 11.158.539 14.461 6.752 3.303 6.214 2.187 13.278-2.492 15.765-4.678 2.487-11.158-.539-14.461-6.752-3.303-6.214-2.187-13.278 2.492-15.765z" fill="#151515"/><path d="M310.655 7.191c4.679-2.488 11.159.538 14.462 6.752 3.303 6.213 2.186 13.277-2.492 15.764-4.679 2.487-11.159-.538-14.462-6.752-3.303-6.214-2.186-13.277 2.492-15.764z" fill="none" stroke="#151515" stroke-width="3"/><path d="M489.27 273.975c-1.5-2.4-3.225-4.65-5.25-6.6-3.9-3.825-7.725-7.65-11.55-11.475h.075l-2.925-5.025c-1.425-2.475-4.575-3.3-6.975-1.875-2.475 1.425-3.3 4.575-1.875 6.975l2.925 5.025h.075c1.425 5.25 2.775 10.5 4.2 15.75.675 2.7 1.725 5.4 3.15 7.875 6.45 11.775 5.475 9.45 13.95 22.125l16.575-9.525c-6.975-13.725-5.4-11.7-12.375-23.25z" fill="#31fe9f" fill-rule="nonzero"/><path d="M465.195 253.725l2.925 5.025h-.075c3.825 3.825 7.65 7.65 11.55 11.475 2.025 1.95 3.75 4.2 5.25 6.6 6.9 11.4 5.475 9.525 12.075 22.875l4.5-2.625c-6.75-13.65-5.25-11.625-12.225-23.1-1.5-2.4-3.225-4.65-5.25-6.6-3.9-3.825-7.725-7.65-11.55-11.475h.075l-2.925-5.025c-1.425-2.475-4.575-3.3-6.975-1.875-.9.525-1.65 1.275-2.025 2.175 1.875-.075 3.675.825 4.65 2.55z" fill="#23d497" fill-opacity=".95" fill-rule="nonzero"/><path d="M489.27 273.975c-1.5-2.4-3.225-4.65-5.25-6.6-3.9-3.825-7.725-7.65-11.55-11.475h.075l-2.925-5.025c-1.425-2.475-4.575-3.3-6.975-1.875-2.475 1.425-3.3 4.575-1.875 6.975l2.925 5.025h.075c1.425 5.25 2.775 10.5 4.2 15.75.675 2.7 1.725 5.4 3.15 7.875 6.45 11.775 5.475 9.45 13.95 22.125l16.575-9.525c-6.975-13.725-5.4-11.7-12.375-23.25z" fill="none" stroke="#151515" stroke-width="3"/><path d="M505.62 307.2c-4.2 3.45-8.925 6.225-14.025 8.1-2.4.75-5.475-.525-6.675-2.55-1.2-2.025-.75-5.325 1.125-7.05 4.2-3.45 8.925-6.225 14.025-8.1 2.4-.75 5.475.525 6.675 2.55 1.125 2.025.75 5.325-1.125 7.05z" fill="#1fcc8a" fill-rule="nonzero"/><path d="M505.62 307.2c-4.2 3.45-8.925 6.225-14.025 8.1-2.4.75-5.475-.525-6.675-2.55-1.2-2.025-.75-5.325 1.125-7.05 4.2-3.45 8.925-6.225 14.025-8.1 2.4-.75 5.475.525 6.675 2.55 1.125 2.025.75 5.325-1.125 7.05z" fill="none" stroke="#151515" stroke-width="3"/><path d="M499.77 328.65c-.225.9-.375 1.8-.375 2.775 0 5.85 4.725 10.575 10.575 10.575 5.775 0 10.425-4.575 10.575-10.35l-20.775-3z" fill="#191919" fill-rule="nonzero"/><path d="M499.77 328.65c-.225.9-.375 1.8-.375 2.775 0 5.85 4.725 10.575 10.575 10.575 5.775 0 10.425-4.575 10.575-10.35l-20.775-3z" fill="none" stroke="#151515" stroke-width="3"/><circle cx="420.945" cy="350.4" r="21.675" fill="#242424"/><circle cx="420.945" cy="350.4" r="21.675" fill="none" stroke="#151515" stroke-width="3"/><circle cx="420.945" cy="350.4" r="21.675" fill="none" stroke="#151515" stroke-width="3"/><circle cx="420.945" cy="350.4" r="12.75" fill="#191919" fill-opacity=".92"/><path d="M512.745 335.25c-2.25 1.35-5.175.525-6.525-1.725l-7.5-13.05 8.25-4.8 7.5 13.05c1.275 2.325.525 5.25-1.725 6.525z" fill="#191919" fill-rule="nonzero"/><path d="M512.745 335.25c-2.25 1.35-5.175.525-6.525-1.725l-7.5-13.05 8.25-4.8 7.5 13.05c1.275 2.325.525 5.25-1.725 6.525z" fill="none" stroke="#151515" stroke-width="3"/><circle cx="510.795" cy="331.275" r="3.675" fill="none" stroke="#151515" stroke-width="3"/><circle cx="465.045" cy="253.125" r="3.15" fill="none" stroke="#151515" stroke-width="3"/><path d="M427.245 339.375s-4.5-9.975-1.05-32.475c3.525-22.5 7.425-32.475 7.425-32.475s-5.325 1.425-12.75 19.65c-7.425 18.375-8.1 45.3-8.1 45.3h14.475z" fill="#191919" fill-rule="nonzero"/><path d="M427.245 339.375s-4.5-9.975-1.05-32.475c3.525-22.5 7.425-32.475 7.425-32.475s-5.325 1.425-12.75 19.65c-6.75 16.725-7.95 42.15-8.1 46.5a12.612 12.612 0 00-4.65 9.825c0 7.05 5.7 12.75 12.75 12.75s12.75-5.7 12.75-12.75c.075-4.725-2.55-8.85-6.375-11.025z" fill="none" stroke="#151515" stroke-width="3"/><path d="M422.445 356.775l-64.8-1.8c-1.8-.075-3.3-1.875-3.3-4.125s1.5-4.125 3.3-4.125l64.8-1.8c1.875-.075 3.45 1.8 3.45 4.2v3.675c.075 2.175-1.5 4.05-3.45 3.975z" fill="#242424" fill-rule="nonzero"/><path d="M422.445 356.775l-64.8-1.8c-1.8-.075-3.3-1.875-3.3-4.125s1.5-4.125 3.3-4.125l64.8-1.8c1.875-.075 3.45 1.8 3.45 4.2v3.675c.075 2.175-1.5 4.05-3.45 3.975zM417.795 350.775h8.175" fill="none" stroke="#151515" stroke-width="3"/><path d="M363.795 366.75h-.3c-2.775 0-5.1-2.25-5.1-5.1V339.9c0-2.775 2.25-5.1 5.1-5.1h.3c2.775 0 5.1 2.25 5.1 5.1v21.75c0 2.85-2.325 5.1-5.1 5.1z" fill="#161616" fill-rule="nonzero"/><path d="M363.795 366.75h-.3c-2.775 0-5.1-2.25-5.1-5.1V339.9c0-2.775 2.25-5.1 5.1-5.1h.3c2.775 0 5.1 2.25 5.1 5.1v21.75c0 2.85-2.325 5.1-5.1 5.1zM492.345 167.25l12.675 9.3" fill="none" stroke="#151515" stroke-width="3"/><path d="M505.02 177.675l4.35 3.075" fill="none" stroke="#151515" stroke-width="4.5"/><path d="M502.32 163.2l29.175-38.325M461.97 216.15l31.425-41.55" fill="none" stroke="#fff" stroke-opacity=".46" stroke-width="2.25"/><path d="M292.096 27.932l-14.902 6.726 1.512 3.35 14.902-6.727-1.512-3.349z" fill="none" stroke="#151515" stroke-width="4.5"/><path d="M314.37 24.9l-19.2 8.625-3.75-8.325 19.125-8.625c1.875-.825 4.125 0 4.95 1.875l.675 1.425c.9 1.95.075 4.2-1.8 5.025z" fill="#151515" fill-rule="nonzero"/><path d="M314.37 24.9l-19.2 8.625-3.75-8.325 19.125-8.625c1.875-.825 4.125 0 4.95 1.875l.675 1.425c.9 1.95.075 4.2-1.8 5.025z" fill="none" stroke="#151515" stroke-width="3"/><ellipse cx="276.495" cy="37.35" rx="4.275" ry="4.35" fill="#5e5e5e"/><ellipse cx="276.495" cy="37.35" rx="5.625" ry="5.7" fill="none" stroke="#151515" stroke-width="3"/><ellipse cx="276.495" cy="37.35" rx="5.625" ry="5.7" fill="#151515"/><path d="M340.201 5.735l-17.704 7.992 1.759 3.896 17.704-7.992-1.759-3.896z" fill="none" stroke="#151515" stroke-width="5.25"/><ellipse cx="320.745" cy="14.475" rx="3.525" ry="3.6" fill="#5e5e5e"/><ellipse cx="320.745" cy="14.475" rx="4.65" ry="4.725" fill="none" stroke="#151515" stroke-width="3"/><ellipse cx="320.745" cy="14.475" rx="4.65" ry="4.725" fill="#151515"/><ellipse cx="340.695" cy="6.75" rx="6.675" ry="6.75" fill="#151515"/><path d="M293.67 26.775l10.95-5.025M329.97 11.7l2.325-1.05M293.895 119.7l-.975 5.7s-.825 5.4-.3 8.25c.525 2.85 2.85 3.675 2.85 3.675M308.595 33l-13.875 81M235.395 248.475s2.25-4.275 5.775-4.275M286.02 142.35s-2.325 0-3.075 2.175c-.3 1.05-.075 2.325.975 3.3" fill="none" stroke="#fff" stroke-opacity=".46" stroke-width="1.5"/><path d="M470.52 267.15s1.5 7.125 2.625 10.35c1.125 3.15 11.025 18.9 11.025 18.9M488.745 310.8s-.45-1.875 2.1-3.9c1.425-1.125 8.55-5.325 8.55-5.325" fill="none" stroke="#fff" stroke-opacity=".5" stroke-width="2.25"/><path d="M252.27 220.35l28.95-61.65M312.42 11.7s1.5-2.925 6-1.875" fill="none" stroke="#fff" stroke-opacity=".46" stroke-width="1.5"/><circle cx="198.72" cy="353.775" r="24" fill="#242424"/><circle cx="198.72" cy="353.775" r="24" fill="none" stroke="#151515" stroke-width="3"/><path d="M264.57 390l-42.675-27.75c-6.825-4.425-7.35-14.25-1.05-19.425L260.37 310.8l-6.9-8.55-39.525 32.025c-6.3 5.1-15.825 2.55-18.75-5.025l-18.225-47.475-10.275 3.975 18.225 47.55c2.925 7.575-2.4 15.825-10.575 16.275l-50.85 2.7.6 11.025 50.85-2.7c8.175-.45 14.325 7.2 12.225 15.075l-13.2 49.2 10.65 2.85 13.2-49.2c2.1-7.875 11.325-11.4 18.15-6.975l42.675 27.75 5.925-9.3z" fill="#b7b7b7" fill-rule="nonzero"/><path d="M177.645 422.7l12.375-46.275c1.2-4.575.3-9.3-2.55-12.975-2.85-3.75-7.2-5.85-11.85-5.85h-.825l-47.85 2.475-.225-5.025 47.85-2.475c4.875-.225 9.15-2.7 11.775-6.825 2.625-4.05 3.15-9 1.425-13.575l-17.175-44.7 4.65-1.8 17.175 44.7c2.25 5.85 7.725 9.6 14.025 9.6 3.45 0 6.675-1.125 9.375-3.375l37.2-30.15 3.15 3.9-37.2 30.15c-3.75 3.075-5.775 7.575-5.55 12.45.225 4.875 2.7 9.15 6.825 11.775l40.2 26.1-2.7 4.2-40.2-26.1c-2.475-1.575-5.25-2.4-8.175-2.4-6.825 0-12.75 4.575-14.55 11.1L182.445 423.9l-4.8-1.2z" fill="#a9a8a9" fill-rule="nonzero"/><path d="M264.57 390l-42.675-27.75c-6.825-4.425-7.35-14.25-1.05-19.425L260.37 310.8l-6.9-8.55-39.525 32.025c-6.3 5.1-15.825 2.55-18.75-5.025l-18.225-47.475-10.275 3.975 18.225 47.55c2.925 7.575-2.4 15.825-10.575 16.275l-50.85 2.7.6 11.025 50.85-2.7c8.175-.45 14.325 7.2 12.225 15.075l-13.2 49.2 10.65 2.85 13.2-49.2c2.1-7.875 11.325-11.4 18.15-6.975l42.675 27.75 5.925-9.3z" fill="none" stroke="#151515" stroke-width="3"/><path d="M221.595 268.275c-47.1-12.6-95.775 15.45-108.375 62.55-12.6 47.1 15.45 95.775 62.55 108.375 47.1 12.6 95.775-15.45 108.375-62.55 12.675-47.1-15.375-95.7-62.55-108.375zm-42.3 157.95C139.32 415.5 115.545 374.4 126.27 334.35c10.725-39.975 51.825-63.75 91.875-53.025 40.05 10.725 63.75 51.825 53.025 91.875-10.725 39.975-51.9 63.75-91.875 53.025z" fill="#242424" fill-rule="nonzero"/><path d="M221.595 268.275c-47.1-12.6-95.775 15.45-108.375 62.55-12.6 47.1 15.45 95.775 62.55 108.375 47.1 12.6 95.775-15.45 108.375-62.55 12.675-47.1-15.375-95.7-62.55-108.375zM278.37 375.15c-9.675 36-42.45 61.125-79.725 61.125-7.2 0-14.325-.975-21.3-2.85-21.225-5.7-39-19.35-50.025-38.475-11.025-19.125-13.95-41.325-8.25-62.55 9.675-36 42.45-61.125 79.725-61.125 7.2 0 14.325.975 21.3 2.85 21.225 5.7 39 19.35 50.025 38.475 11.025 19.125 13.95 41.25 8.25 62.55z" fill="#191919" fill-opacity=".92" fill-rule="nonzero"/><circle cx="198.72" cy="353.775" r="75" fill="none" stroke="#151515" stroke-width="3"/><path d="M221.595 268.275c-47.1-12.6-95.775 15.45-108.375 62.55-12.6 47.1 15.45 95.775 62.55 108.375 47.1 12.6 95.775-15.45 108.375-62.55 12.675-47.1-15.375-95.7-62.55-108.375zm-42.3 157.95C139.32 415.5 115.545 374.4 126.27 334.35c10.725-39.975 51.825-63.75 91.875-53.025 40.05 10.725 63.75 51.825 53.025 91.875-10.725 39.975-51.9 63.75-91.875 53.025z" fill="none" stroke="#151515" stroke-width="3"/><circle cx="198.72" cy="353.775" r="88.5" fill="none" stroke="#151515" stroke-width="3"/><circle cx="198.72" cy="353.775" r="88.5" fill="none" stroke="#151515" stroke-width="4.5"/><path d="M218.07 281.325c-39.975-10.725-81.15 13.05-91.875 53.025-10.725 39.975 13.05 81.15 53.025 91.875 39.975 10.725 81.15-13.05 91.875-53.025 10.8-40.05-12.975-81.15-53.025-91.875zm48 90.525c-9.975 37.125-48.3 59.25-85.425 49.35-37.125-9.9-59.25-48.3-49.35-85.425 9.9-37.125 48.3-59.25 85.425-49.35 37.2 9.975 59.325 48.225 49.35 85.425z" fill="#a9a8a9" fill-rule="nonzero"/><path d="M218.07 281.325c-39.975-10.725-81.15 13.05-91.875 53.025-10.725 39.975 13.05 81.15 53.025 91.875 39.975 10.725 81.15-13.05 91.875-53.025 10.8-40.05-12.975-81.15-53.025-91.875zm48 90.525c-9.975 37.125-48.3 59.25-85.425 49.35-37.125-9.9-59.25-48.3-49.35-85.425 9.9-37.125 48.3-59.25 85.425-49.35 37.2 9.975 59.325 48.225 49.35 85.425z" fill="none" stroke="#151515" stroke-width="3"/><circle cx="198.72" cy="353.775" r="13.425" fill="#242424"/><circle cx="198.72" cy="353.775" r="13.425" fill="none" stroke="#151515" stroke-width="2.25"/><path d="M207.645 356.175c-.525-3.15.6-6.225 2.775-8.325-1.65-3.225-4.575-5.775-8.325-6.825-.975-.3-1.95-.375-2.925-.45 0 .075-.075.15-.075.225-1.725 4.65-6.675 7.05-11.325 5.625-.75 1.125-1.35 2.4-1.725 3.825-.9 3.375-.375 6.75 1.125 9.6.075 0 .15-.075.225-.075a9.243 9.243 0 0110.575 6.975c4.8.3 9.375-2.1 11.925-6.15-1.125-1.125-1.95-2.625-2.25-4.425z" fill="#191919" fill-opacity=".92" fill-rule="nonzero"/><circle cx="198.72" cy="353.775" r="4.275" fill="#151515"/><circle cx="198.72" cy="353.775" r="4.275" fill="none" stroke="#151515" stroke-width="3"/><path d="M207.645 356.175c-.525-3.15.6-6.225 2.775-8.325-1.65-3.225-4.575-5.775-8.325-6.825-.975-.3-1.95-.375-2.925-.45 0 .075-.075.15-.075.225-1.725 4.65-6.675 7.05-11.325 5.625-.75 1.125-1.35 2.4-1.725 3.825-.9 3.375-.375 6.75 1.125 9.6.075 0 .15-.075.225-.075a9.243 9.243 0 0110.575 6.975c4.8.3 9.375-2.1 11.925-6.15-1.125-1.125-1.95-2.625-2.25-4.425z" fill="none" stroke="#151515" stroke-width="2.25"/><path d="M162.195 279.825c2.175-1.05 4.425-2.1 6.75-2.925M118.995 332.4c5.25-19.575 17.325-35.925 33.225-46.8" fill="none" stroke="#fff" stroke-opacity=".67" stroke-width="1.5"/><g><circle cx="610.245" cy="359.775" r="24" fill="#242424"/><circle cx="610.245" cy="359.775" r="24" fill="none" stroke="#151515" stroke-width="3"/><path d="M685.095 367.35l-50.1-8.85c-8.025-1.425-12.375-10.275-8.475-17.475l23.925-44.925-9.75-5.175-23.925 44.925c-3.825 7.2-13.575 8.55-19.2 2.7l-35.4-36.525-7.95 7.65 35.4 36.6c5.7 5.85 3.975 15.525-3.375 19.125l-45.75 22.35 4.8 9.9 45.75-22.35c7.35-3.6 15.975 1.05 17.175 9.15l7.05 50.4 10.875-1.5-7.05-50.4c-1.125-8.1 5.925-14.925 13.95-13.5l50.1 8.85 1.95-10.95z" fill="#b7b7b7" fill-rule="nonzero"/><path d="M617.82 431.4l-6.675-47.475c-.6-4.2-2.85-7.875-6.375-10.275-3.45-2.4-7.8-3.225-11.85-2.25-1.125.225-2.175.675-3.225 1.125l-43.05 21-2.175-4.5 43.05-21c4.35-2.1 7.35-6.075 8.175-10.875.825-4.8-.6-9.525-3.975-13.05l-33.3-34.425 3.6-3.45 33.3 34.425c3.675 3.825 9 5.4 14.175 4.2 4.2-.975 7.8-3.75 9.825-7.575l22.5-42.3 4.425 2.325-22.5 42.3c-2.25 4.275-2.4 9.225-.225 13.65 2.1 4.35 6.075 7.35 10.875 8.175l47.175 8.325-.9 4.95-47.175-8.325a14.68 14.68 0 00-6 .15c-7.65 1.725-12.6 8.925-11.475 16.725l6.675 47.475-4.875.675z" fill="#a9a8a9" fill-rule="nonzero"/><path d="M685.095 367.35l-50.1-8.85c-8.025-1.425-12.375-10.275-8.475-17.475l23.925-44.925-9.75-5.175-23.925 44.925c-3.825 7.2-13.575 8.55-19.2 2.7l-35.4-36.525-7.95 7.65 35.4 36.6c5.7 5.85 3.975 15.525-3.375 19.125l-45.75 22.35 4.8 9.9 45.75-22.35c7.35-3.6 15.975 1.05 17.175 9.15l7.05 50.4 10.875-1.5-7.05-50.4c-1.125-8.1 5.925-14.925 13.95-13.5l50.1 8.85 1.95-10.95z" fill="none" stroke="#151515" stroke-width="3"/><path d="M597.945 272.175c-48.3 6.825-82.125 51.6-75.3 99.975 6.825 48.375 51.6 82.05 99.975 75.3 48.375-6.75 82.125-51.675 75.3-99.975-6.825-48.3-51.6-82.125-99.975-75.3zm22.8 161.85c-41.025 5.775-78.975-22.8-84.675-63.825-5.775-41.025 22.8-78.975 63.825-84.675 41.025-5.775 78.975 22.8 84.675 63.825 5.775 41.025-22.8 78.975-63.825 84.675z" fill="#242424" fill-rule="nonzero"/><path d="M597.945 272.175c-48.3 6.825-82.125 51.6-75.3 99.975 6.825 48.3 51.6 82.125 99.975 75.3 48.375-6.825 82.125-51.675 75.3-99.975-6.825-48.3-51.6-82.125-99.975-75.3zm94.05 76.125c5.175 36.9-15.15 72.9-49.5 87.45a85.371 85.371 0 01-20.775 5.775c-21.75 3.075-43.5-2.55-61.125-15.825-17.625-13.275-29.025-32.55-32.1-54.375-5.175-36.9 15.15-72.9 49.5-87.45a85.371 85.371 0 0120.775-5.775c21.75-3.075 43.5 2.55 61.125 15.825 17.625 13.275 29.025 32.625 32.1 54.375z" fill="#191919" fill-opacity=".92" fill-rule="nonzero"/><circle cx="610.245" cy="359.775" r="75" fill="none" stroke="#151515" stroke-width="3"/><path d="M597.945 272.175c-48.3 6.825-82.125 51.6-75.3 99.975 6.825 48.375 51.6 82.05 99.975 75.3 48.375-6.75 82.125-51.675 75.3-99.975-6.825-48.3-51.6-82.125-99.975-75.3zm22.8 161.85c-41.025 5.775-78.975-22.8-84.675-63.825-5.775-41.025 22.8-78.975 63.825-84.675 41.025-5.775 78.975 22.8 84.675 63.825 5.775 41.025-22.8 78.975-63.825 84.675z" fill="none" stroke="#151515" stroke-width="3"/><circle cx="610.245" cy="359.775" r="88.5" fill="none" stroke="#151515" stroke-width="3"/><circle cx="610.245" cy="359.775" r="88.5" fill="none" stroke="#151515" stroke-width="4.5"/><path d="M599.82 285.525c-41.025 5.775-69.6 43.725-63.825 84.675 5.775 41.025 43.725 69.6 84.675 63.825 40.95-5.775 69.6-43.725 63.825-84.675-5.7-41.025-43.65-69.6-84.675-63.825zm79.5 64.575c5.325 38.1-21.3 73.425-59.4 78.75-38.1 5.325-73.425-21.3-78.75-59.4-5.325-38.1 21.3-73.425 59.4-78.75 38.1-5.325 73.425 21.3 78.75 59.4z" fill="#a9a8a9" fill-rule="nonzero"/><path d="M599.82 285.525c-41.025 5.775-69.6 43.725-63.825 84.675 5.775 41.025 43.725 69.6 84.675 63.825 40.95-5.775 69.6-43.725 63.825-84.675-5.7-41.025-43.65-69.6-84.675-63.825zm79.5 64.575c5.325 38.1-21.3 73.425-59.4 78.75-38.1 5.325-73.425-21.3-78.75-59.4-5.325-38.1 21.3-73.425 59.4-78.75 38.1-5.325 73.425 21.3 78.75 59.4z" fill="none" stroke="#151515" stroke-width="3"/><circle cx="610.245" cy="359.775" r="13.425" fill="#242424"/><circle cx="610.245" cy="359.775" r="13.425" fill="none" stroke="#151515" stroke-width="2.25"/><path d="M619.47 358.5a9.248 9.248 0 01-.675-8.7c-2.775-2.325-6.45-3.525-10.275-3-.975.15-1.95.375-2.85.75v.3c.225 4.95-3.45 9.075-8.25 9.6-.225 1.35-.3 2.775-.075 4.2.45 3.45 2.25 6.375 4.725 8.4.075-.075.15-.075.225-.15 4.125-2.625 9.6-1.575 12.45 2.325 4.5-1.65 7.8-5.625 8.55-10.275-1.5-.825-2.85-1.95-3.825-3.45z" fill="#191919" fill-opacity=".92" fill-rule="nonzero"/><circle cx="610.245" cy="359.775" r="4.275" fill="#151515"/><circle cx="610.245" cy="359.775" r="4.275" fill="none" stroke="#151515" stroke-width="3"/><path d="M619.47 358.5a9.248 9.248 0 01-.675-8.7c-2.775-2.325-6.45-3.525-10.275-3-.975.15-1.95.375-2.85.75v.3c.225 4.95-3.45 9.075-8.25 9.6-.225 1.35-.3 2.775-.075 4.2.45 3.45 2.25 6.375 4.725 8.4.075-.075.15-.075.225-.15 4.125-2.625 9.6-1.575 12.45 2.325 4.5-1.65 7.8-5.625 8.55-10.275-1.5-.825-2.85-1.95-3.825-3.45z" fill="none" stroke="#151515" stroke-width="2.25"/><path d="M615.645 277.425c.6.075 1.2.075 1.875.15 3.3.3 6.45.75 9.675 1.425M550.545 302.925c11.85-12.45 27.6-21.3 45.45-24.375" fill="none" stroke="#fff" stroke-opacity=".67" stroke-width="1.5"/></g><path d="M422.37 299.7s-3.15 9.225-4.575 20.7M416.745 326.25s-.675 10.8-.675 12.75" fill="none" stroke="#fff" stroke-opacity=".46" stroke-width="1.5"/></svg>