<svg viewBox="0 0 567 220" xmlns="http://www.w3.org/2000/svg" fill-rule="evenodd" clip-rule="evenodd" stroke-linejoin="round" stroke-miterlimit="2"><path d="M376.121 184.759a7.645 7.645 0 01-7.648-7.648v-59.976h15.296v59.976a7.644 7.644 0 01-7.648 7.648z" fill="#fff" fill-rule="nonzero"/><path d="M384.977 110.694h-17.711a3.23 3.23 0 00-3.221 3.221 3.23 3.23 0 003.221 3.22h17.711a3.23 3.23 0 003.22-3.22 3.23 3.23 0 00-3.22-3.221z" fill="#d8d8d8" fill-rule="nonzero"/><path d="M376.121 185.564a8.45 8.45 0 008.453-8.453v-59.976a.804.804 0 00-.805-.805h-15.296a.804.804 0 00-.805.805v59.976a8.45 8.45 0 008.453 8.453zm6.843-67.624h-13.686v59.171a6.84 6.84 0 006.843 6.843 6.84 6.84 0 006.843-6.843V117.94z" fill="#133b4f"/><path d="M384.977 109.889h-17.711a4.038 4.038 0 00-4.026 4.026 4.037 4.037 0 004.026 4.025h17.711a4.037 4.037 0 004.025-4.025 4.037 4.037 0 00-4.025-4.026zm0 1.61a2.423 2.423 0 012.415 2.416 2.422 2.422 0 01-2.415 2.415h-17.711a2.423 2.423 0 01-2.416-2.415 2.423 2.423 0 012.416-2.416h17.711z" fill="#133b4f"/><path d="M372.096 155.375v21.736a4.037 4.037 0 004.025 4.025 4.037 4.037 0 004.025-4.025v-21.736h-8.05z" fill="#ec1ce4" fill-rule="nonzero"/><path d="M372.096 154.57a.804.804 0 00-.805.805v21.736a4.844 4.844 0 004.83 4.83 4.844 4.844 0 004.83-4.83v-21.736a.804.804 0 00-.805-.805h-8.05zm7.245 1.61h-6.44v20.931a3.23 3.23 0 003.22 3.22 3.23 3.23 0 003.22-3.22V156.18z" fill="#133b4f"/><circle cx="368.473" cy="94.714" r="1.53" fill="#ec1ce4"/><circle cx="374.068" cy="101.758" r="1.288" fill="#ec1ce4"/><circle cx="380.75" cy="81.833" r="2.898" fill="#ec1ce4"/><circle cx="379.059" cy="93.748" r="2.496" fill="#ec1ce4"/><path d="M368.473 92.38a2.336 2.336 0 00-2.335 2.334 2.336 2.336 0 102.335-2.334zm0 1.61a.725.725 0 110 1.45.725.725 0 010-1.45zm5.595 5.675a2.094 2.094 0 000 4.187 2.094 2.094 0 000-4.187zm0 1.61a.483.483 0 110 .967.483.483 0 010-.967zm-.765-14.571a1.651 1.651 0 10.002 3.302 1.651 1.651 0 00-.002-3.302zm0 1.61a.04.04 0 110 .08.04.04 0 010-.08zm7.447-10.184a3.705 3.705 0 00-3.703 3.703 3.705 3.705 0 003.703 3.704 3.705 3.705 0 003.703-3.704 3.705 3.705 0 00-3.703-3.703zm0 1.61a2.094 2.094 0 010 4.187 2.094 2.094 0 010-4.187zm-1.691 10.707a3.302 3.302 0 000 6.602 3.302 3.302 0 003.301-3.301 3.302 3.302 0 00-3.301-3.301zm0 1.611a1.69 1.69 0 110 3.381 1.69 1.69 0 010-3.381z" fill="#133b4f"/><circle cx="374.712" cy="139.435" r="2.898" fill="#ec1ce4"/><path d="M374.712 135.732a3.704 3.704 0 00-3.703 3.703 3.704 3.704 0 003.703 3.703 3.704 3.704 0 003.703-3.703 3.704 3.704 0 00-3.703-3.703zm0 1.61a2.094 2.094 0 010 4.186 2.094 2.094 0 010-4.186z" fill="#133b4f"/><circle cx="377.208" cy="149.377" r="1.248" fill="#ec1ce4"/><path d="M377.208 147.324a2.054 2.054 0 000 4.106 2.054 2.054 0 000-4.106zm0 1.61a.444.444 0 010 .886.444.444 0 010-.886z" fill="#133b4f"/><circle cx="378.858" cy="122.77" r="1.731" fill="#ec1ce4"/><path d="M378.858 120.234a2.538 2.538 0 00-2.536 2.536 2.537 2.537 0 102.536-2.536zm0 1.61a.927.927 0 11-.001 1.853.927.927 0 01.001-1.853z" fill="#133b4f"/><circle cx="372.78" cy="120.073" r=".644" fill="#67cc70"/><path d="M372.78 118.624a1.45 1.45 0 10.002 2.9 1.45 1.45 0 00-.002-2.9zm0 1.61a.16.16 0 110-.322.16.16 0 010 .322z" fill="#133b4f"/><circle cx="376.604" cy="161.654" r=".644" fill="#133b4f"/><circle cx="373.142" cy="168.417" r="1.047" fill="#133b4f"/><circle cx="377.852" cy="173.649" r="1.53" fill="#133b4f"/><circle cx="375.598" cy="159.762" r=".242" fill="#133b4f"/><path d="M309.503 131.223c-.885 0-1.61-.724-1.61-1.61V51.322c0-6.561-5.313-11.875-11.874-11.875-6.562 0-11.875 5.314-11.875 11.875v17.792c0 14.933-12.156 27.09-27.09 27.09s-27.09-12.157-27.09-27.09V30.632c0-9.097-7.406-16.503-16.503-16.503-9.097 0-16.504 7.406-16.504 16.503v16.463c0 .886-.724 1.611-1.61 1.611-.886 0-1.61-.725-1.61-1.611V30.632c0-10.868 8.855-19.724 19.724-19.724 10.868 0 19.723 8.856 19.723 19.724v38.482c0 13.162 10.708 23.869 23.87 23.869 13.163 0 23.87-10.707 23.87-23.869V51.322c0-8.332 6.762-15.095 15.095-15.095 8.332 0 15.094 6.763 15.094 15.095v78.291c0 .886-.724 1.61-1.61 1.61z" fill="#fff" fill-rule="nonzero"/><path d="M309.503 132.028a2.422 2.422 0 002.415-2.415V51.322c0-8.777-7.123-15.9-15.899-15.9-8.777 0-15.9 7.123-15.9 15.9v17.792c0 12.718-10.346 23.064-23.065 23.064-12.719 0-23.065-10.346-23.065-23.064V30.632c0-11.312-9.217-20.529-20.528-20.529-11.312 0-20.529 9.217-20.529 20.529v16.463a2.423 2.423 0 002.415 2.416 2.423 2.423 0 002.415-2.416V30.632c0-8.653 7.045-15.698 15.699-15.698 8.653 0 15.698 7.045 15.698 15.698v38.482c0 15.377 12.518 27.895 27.895 27.895 15.378 0 27.895-12.518 27.895-27.895V51.322c0-6.116 4.953-11.069 11.07-11.069 6.116 0 11.069 4.953 11.069 11.069v78.291a2.422 2.422 0 002.415 2.415zm0-1.61a.807.807 0 01-.805-.805V51.322c0-7.006-5.673-12.68-12.679-12.68s-12.68 5.674-12.68 12.68v17.792c0 14.489-11.795 26.284-26.285 26.284s-26.285-11.795-26.285-26.284V30.632c0-9.541-7.768-17.308-17.308-17.308-9.541 0-17.309 7.767-17.309 17.308v16.463a.808.808 0 01-.805.806.808.808 0 01-.805-.806V30.632c0-10.424 8.494-18.919 18.919-18.919 10.424 0 18.918 8.495 18.918 18.919v38.482c0 13.606 11.069 24.674 24.675 24.674 13.607 0 24.675-11.068 24.675-24.674V51.322c0-7.888 6.402-14.29 14.29-14.29 7.887 0 14.289 6.402 14.289 14.29v78.291a.807.807 0 01-.805.805z" fill="#133b4f"/><path d="M254.075 198.042h-8.05V4.83A4.037 4.037 0 01250.05.805a4.037 4.037 0 014.025 4.025v193.212z" fill="#fff" fill-rule="nonzero"/><path d="M254.075 198.847c.445 0 .805-.36.805-.805V4.83A4.844 4.844 0 00250.05 0a4.844 4.844 0 00-4.83 4.83v193.212c0 .445.36.805.805.805h8.05zm-.805-1.61V4.83a3.23 3.23 0 00-3.22-3.22 3.23 3.23 0 00-3.22 3.22v192.407h6.44z" fill="#133b4f"/><path d="M268.124 67.463h-11.191v-4.025h11.191c1.127 0 2.012.886 2.012 2.013 0 1.086-.926 2.012-2.012 2.012z" fill="#6f8699" fill-rule="nonzero"/><path d="M268.124 68.268c1.521 0 2.817-1.296 2.817-2.817a2.79 2.79 0 00-2.817-2.818h-11.191a.805.805 0 00-.805.805v4.025c0 .445.361.805.805.805h11.191zm-10.386-1.61h10.386c.652 0 1.207-.555 1.207-1.207 0-.677-.531-1.208-1.207-1.208h-10.386v2.415z" fill="#133b4f"/><path fill="#dabc95" d="M279.998 191.199h128.808v6.843H279.998z"/><path d="M409.611 191.199a.805.805 0 00-.805-.805H279.998a.805.805 0 00-.805.805v6.843c0 .445.36.805.805.805h128.808c.445 0 .805-.36.805-.805v-6.843zm-128.808.806v5.232h127.198v-5.232H280.803z" fill="#133b4f"/><path fill="#d6d9e2" d="M286.519 130.821h4.025V191.2h-4.025z"/><path d="M291.349 130.821a.804.804 0 00-.805-.805h-4.025a.804.804 0 00-.805.805v60.378c0 .445.36.806.805.806h4.025a.805.805 0 00.805-.806v-60.378zm-4.025.805v58.768h2.415v-58.768h-2.415z" fill="#133b4f"/><path fill="#d6d9e2" d="M398.3 130.821h4.025V191.2H398.3z"/><path d="M403.131 130.821a.805.805 0 00-.806-.805H398.3a.805.805 0 00-.805.805v60.378c0 .445.361.806.805.806h4.025a.806.806 0 00.806-.806v-60.378zm-4.026.805v58.768h2.415v-58.768h-2.415zm-206.37 22.827l4.742-1.336-.392-.855s-.668-1.459-1.631-2.817c-.702-.989-1.569-1.905-2.435-2.292l-1.734-.775.649 1.785c.615 1.693.757 5.274.757 5.274l.044 1.016zm1.269-4.265c.11.796.183 1.58.229 2.17l.96-.27a16.974 16.974 0 00-1.053-1.712l-.136-.188z" fill="#133b4f"/><path fill="#6f8699" d="M220.424 189.187h49.712v8.856h-49.712z"/><path d="M270.941 189.187a.804.804 0 00-.805-.805h-49.712a.805.805 0 00-.805.805v8.855c0 .445.361.805.805.805h49.712c.445 0 .805-.36.805-.805v-8.855zm-49.712.805v7.245h48.102v-7.245h-48.102z" fill="#133b4f"/><path d="M208.268 179.083l-8.574-1.449v-6.48h3.422c1.368 0 2.576-1.047 2.616-2.415a2.502 2.502 0 00-2.496-2.577h-15.658c-1.368 0-2.576 1.047-2.616 2.416a2.501 2.501 0 002.495 2.576H191v6.48l-8.574 1.449c-1.932.323-3.261 2.174-2.939 4.146l2.094 11.593c.322 1.892 1.972 3.261 3.904 3.261h19.804c1.892 0 3.543-1.369 3.905-3.261l2.093-11.593c.241-1.972-1.047-3.823-3.019-4.146z" fill="#fff" fill-rule="nonzero"/><path d="M190.195 171.959h-2.738a3.306 3.306 0 01-3.3-3.405c.053-1.8 1.622-3.197 3.421-3.197h15.658a3.306 3.306 0 013.301 3.405c-.053 1.8-1.622 3.197-3.421 3.197h-2.617v4.995l7.903 1.336-.004-.001c2.401.392 3.982 2.637 3.688 5.038l-.007.046-2.094 11.601c-.436 2.273-2.422 3.914-4.696 3.914h-19.804c-2.327 0-4.31-1.653-4.697-3.923l-2.095-11.606c-.394-2.413 1.236-4.676 3.599-5.069l7.903-1.336v-4.995zm20.295 11.154c.179-1.537-.815-2.984-2.352-3.235l-.004-.001-8.574-1.449a.805.805 0 01-.671-.794v-6.48c0-.445.361-.805.805-.805h3.422c.937 0 1.784-.696 1.811-1.633a1.695 1.695 0 00-1.691-1.749h-15.658c-.937 0-1.784.697-1.811 1.634a1.695 1.695 0 001.69 1.748H191c.444 0 .805.36.805.805v6.48a.805.805 0 01-.671.794l-8.576 1.45c-1.5.25-2.526 1.691-2.278 3.208l2.094 11.601c.257 1.506 1.573 2.591 3.111 2.591h19.804c1.511 0 2.825-1.097 3.113-2.599l2.088-11.566z" fill="#133b4f"/><path d="M201.707 155.777c-1.65-5.313-4.951-8.211-6.36-9.66-.765 6.038-7.084 7.929-6.44 13.605.523 4.629 4.951 6.038 7.124 5.676 4.549-.765 6.964-5.515 5.676-9.621z" fill="#ff815f" fill-rule="nonzero"/><path d="M202.475 155.537c1.428 4.552-1.268 9.807-6.311 10.655-2.453.408-7.467-1.157-8.057-6.379-.35-3.085 1.136-5.164 2.87-7.27 1.505-1.827 3.21-3.679 3.571-6.527l.21-1.66 1.166 1.199c1.455 1.496 4.847 4.497 6.551 9.982zm-6.648-7.796c-.699 2.376-2.206 4.124-3.607 5.826-1.456 1.769-2.808 3.473-2.513 6.065.456 4.035 4.297 5.287 6.191 4.972 4.054-.682 6.189-4.926 5.041-8.586l-.001-.002c-1.265-4.073-3.541-6.673-5.111-8.275zm6.649 7.797l-.001-.002.001.002z" fill="#133b4f"/><path d="M198.044 159.883c-.644-2.858-2.013-4.307-2.737-5.072-.403 3.18-3.704 4.146-3.381 7.125.281 2.455 2.616 3.18 3.743 2.979 2.375-.403 2.737-3.382 2.375-5.032z" fill="#fb2" fill-rule="nonzero"/><path d="M195.798 165.669c-1.408.243-4.322-.633-4.673-3.687-.188-1.736.625-2.907 1.599-4.086.745-.902 1.605-1.808 1.784-3.226l.214-1.687 1.169 1.234c.778.822 2.606 2.139 3.298 5.036v.001c.278 1.168.084 3.039-.716 4.438-.585 1.022-1.476 1.791-2.675 1.977zm-.008.001l.021-.003-.021.003zm-.061-9.381c-.426 1.029-1.111 1.842-1.764 2.632-.697.845-1.374 1.645-1.24 2.883.213 1.853 1.952 2.43 2.802 2.278l.021-.004c.697-.106 1.187-.591 1.528-1.186.589-1.03.752-2.405.547-3.265-.381-1.597-1.187-2.622-1.894-3.338z" fill="#133b4f"/><path d="M183.915 185.282l1.369 7.568a1.385 1.385 0 001.368 1.127h17.349c.685 0 1.248-.483 1.369-1.127l1.368-7.568h-22.823z" fill="#67cf70" fill-rule="nonzero"/><path d="M183.915 184.477a.807.807 0 00-.792.949l1.37 7.572a2.187 2.187 0 002.159 1.784h17.349a2.189 2.189 0 002.16-1.784l1.37-7.572a.808.808 0 00-.793-.949h-22.823zm21.86 1.61h-20.896l1.196 6.614c.051.271.29.471.577.471h17.349c.288 0 .527-.2.577-.465l1.197-6.62z" fill="#133b4f"/><path d="M194.542 166.162v24.232a.805.805 0 001.61 0v-24.232a.806.806 0 00-1.61 0z" fill="#133b4f"/><path d="M202.19 75.312V51.966h-13.686v23.346a2.949 2.949 0 01-2.013 2.818c-11.472 3.784-19.683 14.733-19.321 27.573.403 14.894 12.599 27.01 27.493 27.372 15.859.362 28.861-12.398 28.861-28.177 0-12.438-8.091-23.024-19.281-26.728-1.248-.483-2.053-1.61-2.053-2.858z" fill="#fff" fill-rule="nonzero"/><path d="M204.521 77.415c11.497 3.816 19.808 14.698 19.808 27.483 0 16.23-13.372 29.354-29.686 28.982-15.319-.373-27.864-12.836-28.278-28.154-.372-13.208 8.075-24.469 19.872-28.36a2.148 2.148 0 001.462-2.054V51.966c0-.445.36-.805.805-.805h13.686c.445 0 .805.36.805.805v23.346c0 .922.608 1.742 1.526 2.103zm-3.136-24.644h-12.076v22.541a3.753 3.753 0 01-2.565 3.583c-11.145 3.675-19.121 14.312-18.769 26.786.391 14.468 12.24 26.237 26.706 26.589 15.407.352 28.038-12.043 28.038-27.372 0-12.082-7.859-22.366-18.729-25.963l-.038-.014c-1.57-.608-2.567-2.038-2.567-3.609V52.771z" fill="#133b4f"/><path d="M218.492 98.015c-.563-2.456-2.737-4.267-5.313-4.267a5.434 5.434 0 00-3.341 1.167c-.644-.442-1.409-.724-2.254-.724-.805 0-1.57.241-2.174.684v-.322a3.823 3.823 0 00-3.824-3.824c-.604 0-1.167.161-1.69.403a7.39 7.39 0 00-6.159-3.261c-4.106 0-7.447 3.341-7.447 7.447 0 .966.523 2.737.523 2.737v-.121c0-2.455-2.535-4.669-4.951-4.669-2.415 0-4.427 1.972-4.427 4.428v.322h-5.273a24.46 24.46 0 00-.967 7.527c.161 6.159 2.697 11.995 7.125 16.383 4.428 4.387 10.265 6.923 16.423 7.044h.604c6.44 0 12.519-2.496 17.067-7.084 4.549-4.549 7.084-10.627 7.084-17.067 0-2.335-.362-4.629-1.006-6.803z" fill="#f6164c" fill-rule="nonzero"/><path d="M185.603 93.923c.665-3.888 4.06-6.857 8.134-6.857a8.19 8.19 0 016.441 3.091 4.488 4.488 0 011.408-.233 4.63 4.63 0 014.535 3.694 4.673 4.673 0 013.682.335 6.2 6.2 0 013.376-1.01c2.945 0 5.435 2.061 6.091 4.864a24.782 24.782 0 011.034 7.011c0 6.655-2.621 12.936-7.318 17.633-4.701 4.743-10.983 7.323-17.639 7.323h-.62c-6.364-.125-12.398-2.743-16.973-7.277-4.577-4.535-7.197-10.568-7.363-16.93-.083-2.703.29-5.322.997-7.775a.805.805 0 01.774-.582h4.49a5.25 5.25 0 015.21-4.75c1.322 0 2.681.56 3.741 1.463zm-12.828 4.897a23.556 23.556 0 00-.775 6.701c.156 5.952 2.608 11.592 6.887 15.832 4.279 4.241 9.919 6.694 15.856 6.811h.604c6.224 0 12.099-2.411 16.498-6.849 4.397-4.396 6.848-10.272 6.848-16.497 0-2.257-.35-4.474-.973-6.574l-.012-.049c-.481-2.094-2.332-3.642-4.529-3.642a4.626 4.626 0 00-2.845.996.805.805 0 01-.952.03c-.514-.354-1.123-.583-1.798-.583-.628 0-1.227.183-1.698.528a.804.804 0 01-1.281-.649v-.322a3.017 3.017 0 00-3.019-3.019c-.484 0-.934.135-1.353.329a.805.805 0 01-1.005-.282 6.59 6.59 0 00-5.491-2.905 6.65 6.65 0 00-6.642 6.642c0 .173.019.375.049.587.303.638.474 1.327.474 2.029v.121a.804.804 0 01-1.577.228s-.272-.939-.435-1.861a4.43 4.43 0 00-.907-1.15c-.787-.724-1.822-1.202-2.837-1.202a3.633 3.633 0 00-3.622 3.623v.322a.805.805 0 01-.805.805h-4.66z" fill="#133b4f"/><path d="M178.869 99.702a3.666 3.666 0 01-.629-2.049 3.612 3.612 0 013.622-3.623c1.246 0 2.515.335 3.322 1.216.518.566.824 1.359.824 2.407a.806.806 0 001.61 0c0-1.529-.491-2.668-1.246-3.493-1.102-1.205-2.808-1.74-4.51-1.74a5.218 5.218 0 00-5.232 5.233c0 1.091.33 2.088.9 2.942a.804.804 0 101.339-.893z" fill="#133b4f"/><path d="M187.129 96.184a7.683 7.683 0 01-.074-.906 6.65 6.65 0 016.642-6.642 6.59 6.59 0 015.491 2.905.805.805 0 101.335-.899 8.192 8.192 0 00-6.826-3.616c-4.55 0-8.252 3.702-8.252 8.252 0 .354.042.752.087 1.106a.805.805 0 101.597-.2z" fill="#133b4f"/><path d="M198.687 93.52c.254-.762.83-1.359 1.528-1.708a.806.806 0 00-.72-1.441c-1.073.537-1.945 1.469-2.336 2.64a.806.806 0 001.528.509z" fill="#133b4f"/><path d="M200.233 91.822c.419-.193.869-.328 1.353-.328a3.017 3.017 0 013.019 3.019.806.806 0 001.61 0 4.626 4.626 0 00-4.629-4.629c-.724 0-1.401.187-2.028.477a.804.804 0 10.675 1.461z" fill="#133b4f"/><path d="M206.334 95.233a2.821 2.821 0 011.25-.277c.675 0 1.284.229 1.798.583a.806.806 0 00.912-1.327c-.774-.532-1.694-.866-2.71-.866-.69 0-1.379.151-1.97.447a.805.805 0 10.72 1.44z" fill="#133b4f"/><path d="M208.51 99.222c0-1.51.685-2.814 1.783-3.672a.805.805 0 00-.991-1.269 6.194 6.194 0 00-2.403 4.941.806.806 0 101.611 0z" fill="#133b4f"/><path d="M210.334 95.549a4.626 4.626 0 012.845-.996 4.601 4.601 0 014.526 3.63.805.805 0 101.575-.336 6.209 6.209 0 00-6.101-4.904 6.235 6.235 0 00-3.837 1.338.805.805 0 10.992 1.268z" fill="#133b4f"/><path fill="#ce7867" d="M191.563 41.058h7.527v14.29h-7.527z"/><path d="M199.896 41.058a.805.805 0 00-.806-.805h-7.527a.805.805 0 00-.805.805v14.289c0 .445.361.805.805.805h7.527c.445 0 .806-.36.806-.805V41.058zm-7.528.805v12.679h5.917V41.863h-5.917z" fill="#133b4f"/><path d="M203.8 51.926h-16.906a3.23 3.23 0 01-3.22-3.22 3.23 3.23 0 013.22-3.221H203.8a3.23 3.23 0 013.22 3.221 3.204 3.204 0 01-3.22 3.22z" fill="#d8d8d8" fill-rule="nonzero"/><path d="M203.8 52.731a4.005 4.005 0 004.025-4.025 4.037 4.037 0 00-4.025-4.026h-16.906a4.037 4.037 0 00-4.025 4.026 4.037 4.037 0 004.025 4.025H203.8zm0-1.61h-16.906a2.422 2.422 0 01-2.415-2.415 2.423 2.423 0 012.415-2.416H203.8a2.423 2.423 0 012.415 2.416 2.403 2.403 0 01-2.415 2.415z" fill="#133b4f"/><circle cx="195.347" cy="77.607" r="3.019" fill="#f6164c"/><path d="M195.347 73.783a3.825 3.825 0 000 7.648 3.826 3.826 0 003.824-3.824 3.826 3.826 0 00-3.824-3.824zm0 1.61a2.215 2.215 0 010 4.428 2.215 2.215 0 010-4.428z" fill="#133b4f"/><circle cx="204.806" cy="87.751" r="1.61" fill="#f6164c"/><path d="M204.806 85.335a2.417 2.417 0 000 4.831 2.417 2.417 0 000-4.831zm0 1.61a.805.805 0 110 1.61.805.805 0 010-1.61zm-16.302-4.065a1.49 1.49 0 100 2.979 1.49 1.49 0 000-2.979zm0 1.61a.12.12 0 110-.242.12.12 0 010 .242z" fill="#133b4f"/><circle cx="188.383" cy="109.608" r="1.61" fill="#133b4f"/><circle cx="196.917" cy="117.779" r="2.576" fill="#133b4f"/><circle cx="205.974" cy="110.574" r=".926" fill="#133b4f"/><circle cx="197.923" cy="103.328" r=".644" fill="#133b4f"/><path fill="#6f8699" d="M243.207 58.608h13.686v13.686h-13.686z"/><path d="M257.698 58.608a.804.804 0 00-.805-.805h-13.686a.805.805 0 00-.805.805v13.686c0 .444.361.805.805.805h13.686a.805.805 0 00.805-.805V58.608zm-13.686.805v12.075h12.076V59.413h-12.076z" fill="#133b4f"/><path d="M315.984 151.349c-.886 0-1.61-.724-1.61-1.61V97.532c0-8.735 7.084-15.819 15.819-15.819 8.735 0 15.819 7.084 15.819 15.819v36.308c0 .885-.724 1.61-1.61 1.61-.885 0-1.61-.725-1.61-1.61V97.532c0-6.964-5.635-12.599-12.599-12.599s-12.599 5.635-12.599 12.599v52.207c0 .886-.725 1.61-1.61 1.61z" fill="#fff" fill-rule="nonzero"/><path d="M315.984 152.155a2.423 2.423 0 002.415-2.416V97.532a11.787 11.787 0 0111.794-11.794 11.787 11.787 0 0111.794 11.794v36.308a2.422 2.422 0 002.415 2.415 2.422 2.422 0 002.415-2.415V97.532c0-9.179-7.445-16.624-16.624-16.624-9.179 0-16.624 7.445-16.624 16.624v52.207a2.422 2.422 0 002.415 2.416zm0-1.611a.807.807 0 01-.805-.805V97.532c0-8.29 6.724-15.014 15.014-15.014s15.014 6.724 15.014 15.014v36.308a.808.808 0 01-.805.805.808.808 0 01-.805-.805V97.532c0-7.409-5.995-13.404-13.404-13.404s-13.404 5.995-13.404 13.404v52.207a.807.807 0 01-.805.805z" fill="#133b4f"/><path d="M344.402 184.759a7.645 7.645 0 01-7.648-7.648v-59.976h15.296v59.976a7.644 7.644 0 01-7.648 7.648z" fill="#fff" fill-rule="nonzero"/><path d="M344.402 185.564a8.45 8.45 0 008.453-8.453v-59.976a.804.804 0 00-.805-.805h-15.296a.804.804 0 00-.805.805v59.976a8.45 8.45 0 008.453 8.453zm6.843-67.624h-13.686v59.171a6.84 6.84 0 006.843 6.843 6.84 6.84 0 006.843-6.843V117.94z" fill="#133b4f"/><path fill="#ce7867" d="M338.082 102.765h12.68v14.37h-12.68z"/><path d="M351.567 102.765a.804.804 0 00-.805-.805h-12.68a.805.805 0 00-.805.805v14.37c0 .444.361.805.805.805h12.68a.805.805 0 00.805-.805v-14.37zm-12.68.805v12.76h11.07v-12.76h-11.07z" fill="#133b4f"/><path d="M353.258 110.694h-17.711a3.23 3.23 0 00-3.221 3.221 3.23 3.23 0 003.221 3.22h17.711a3.23 3.23 0 003.22-3.22 3.23 3.23 0 00-3.22-3.221z" fill="#d8d8d8" fill-rule="nonzero"/><path d="M353.258 109.889h-17.711a4.038 4.038 0 00-4.026 4.026 4.037 4.037 0 004.026 4.025h17.711a4.037 4.037 0 004.025-4.025 4.037 4.037 0 00-4.025-4.026zm0 1.61a2.423 2.423 0 012.415 2.416 2.422 2.422 0 01-2.415 2.415h-17.711a2.423 2.423 0 01-2.416-2.415 2.423 2.423 0 012.416-2.416h17.711z" fill="#133b4f"/><path d="M340.377 164.713v12.398a4.037 4.037 0 004.025 4.025 4.037 4.037 0 004.025-4.025v-12.398h-8.05z" fill="#984db2" fill-rule="nonzero"/><path d="M340.377 163.908a.805.805 0 00-.805.805v12.398a4.844 4.844 0 004.83 4.83 4.844 4.844 0 004.83-4.83v-12.398a.805.805 0 00-.805-.805h-8.05zm7.245 1.61h-6.44v11.593a3.23 3.23 0 003.22 3.22 3.23 3.23 0 003.22-3.22v-11.593z" fill="#133b4f"/><circle cx="343.074" cy="154.167" r="1.208" fill="#984db2"/><path d="M343.074 152.155a2.013 2.013 0 100 4.026 2.013 2.013 0 000-4.026zm0 1.61a.402.402 0 110 .804.402.402 0 010-.804z" fill="#133b4f"/><circle cx="345.086" cy="142.011" r="2.013" fill="#984db2"/><path d="M345.086 139.193a2.819 2.819 0 000 5.636 2.82 2.82 0 002.818-2.818 2.82 2.82 0 00-2.818-2.818zm0 1.61a1.208 1.208 0 110 2.416 1.208 1.208 0 010-2.416z" fill="#133b4f"/><circle cx="345.328" cy="160.205" r=".805" fill="#984db2"/><circle cx="345.328" cy="160.205" r="1.61" fill="#133b4f"/><circle cx="343.758" cy="173.649" r=".725" fill="#133b4f"/><circle cx="344.161" cy="169.544" r="1.167" fill="#133b4f"/><path fill="#ce7867" d="M306.363 102.765h12.68v14.37h-12.68z"/><path d="M319.848 102.765a.804.804 0 00-.805-.805h-12.68a.805.805 0 00-.805.805v14.37c0 .444.361.805.805.805h12.68a.805.805 0 00.805-.805v-14.37zm-12.68.805v12.76h11.07v-12.76h-11.07z" fill="#133b4f"/><path d="M321.579 110.694h-17.711a3.23 3.23 0 00-3.22 3.221 3.23 3.23 0 003.22 3.22h17.711a3.23 3.23 0 003.22-3.22 3.23 3.23 0 00-3.22-3.221z" fill="#d8d8d8" fill-rule="nonzero"/><path d="M321.579 109.889h-17.711a4.037 4.037 0 00-4.025 4.026 4.037 4.037 0 004.025 4.025h17.711a4.037 4.037 0 004.025-4.025 4.037 4.037 0 00-4.025-4.026zm0 1.61a2.423 2.423 0 012.415 2.416 2.422 2.422 0 01-2.415 2.415h-17.711a2.422 2.422 0 01-2.415-2.415 2.422 2.422 0 012.415-2.416h17.711z" fill="#133b4f"/><path d="M312.723 184.759a7.645 7.645 0 01-7.648-7.648v-59.976h15.296v59.976a7.644 7.644 0 01-7.648 7.648z" fill="#fff" fill-rule="nonzero"/><path d="M312.723 185.564a8.448 8.448 0 008.453-8.453v-59.976a.804.804 0 00-.805-.805h-15.296a.805.805 0 00-.805.805v59.976a8.45 8.45 0 008.453 8.453zm6.843-67.624H305.88v59.171a6.84 6.84 0 006.843 6.843 6.84 6.84 0 006.843-6.843V117.94z" fill="#133b4f"/><path d="M308.698 145.03v32.081a4.037 4.037 0 004.025 4.025 4.037 4.037 0 004.026-4.025V145.03h-8.051z" fill="#f3c50d" fill-rule="nonzero"/><path d="M308.698 144.225a.804.804 0 00-.805.805v32.081a4.844 4.844 0 004.83 4.83 4.844 4.844 0 004.831-4.83V145.03a.805.805 0 00-.805-.805h-8.051zm7.246 1.61h-6.441v31.276a3.23 3.23 0 003.22 3.22 3.23 3.23 0 003.221-3.22v-31.276z" fill="#133b4f"/><circle cx="311.556" cy="159.4" r="1.167" fill="#133b4f"/><circle cx="311.113" cy="138.589" r=".765" fill="#133b4f"/><circle cx="313.891" cy="149.78" r=".483" fill="#133b4f"/><circle cx="313.891" cy="167.249" r=".483" fill="#133b4f"/><path fill="#dabc95" d="M279.998 127.601h128.808v3.22H279.998z"/><path d="M409.611 127.601a.805.805 0 00-.805-.806H279.998a.805.805 0 00-.805.806v3.22c0 .444.36.805.805.805h128.808a.805.805 0 00.805-.805v-3.22zm-128.808.805v1.61h127.198v-1.61H280.803z" fill="#133b4f"/><path fill="#ce7867" d="M228.072 33.973h6.923v35.503h-6.923z"/><path d="M235.801 33.973a.806.806 0 00-.805-.805h-6.924a.806.806 0 00-.805.805v35.503c0 .444.361.805.805.805h6.924a.806.806 0 00.805-.805V33.973zm-6.924.805v33.893h5.314V34.778h-5.314z" fill="#133b4f"/><path fill="#6f8699" d="M209.717 63.438h33.49v4.025h-33.49z"/><path d="M244.012 63.438a.804.804 0 00-.805-.805h-33.49a.805.805 0 00-.805.805v4.025c0 .445.361.805.805.805h33.49c.445 0 .805-.36.805-.805v-4.025zm-33.49.805v2.415h31.88v-2.415h-31.88z" fill="#133b4f"/><path d="M183.271 70.683h24.152a5.222 5.222 0 005.233-5.232 5.222 5.222 0 00-5.233-5.233h-24.152a5.222 5.222 0 00-5.233 5.233 5.222 5.222 0 005.233 5.232z" fill="#6f8699" fill-rule="nonzero"/><path d="M183.271 71.488h24.152a6.025 6.025 0 006.038-6.037 6.026 6.026 0 00-6.038-6.038h-24.152a6.026 6.026 0 00-6.038 6.038 6.025 6.025 0 006.038 6.037zm0-1.61a4.419 4.419 0 01-4.428-4.427 4.42 4.42 0 014.428-4.428h24.152a4.42 4.42 0 014.428 4.428 4.419 4.419 0 01-4.428 4.427h-24.152zM132.553 199.25h301.894a1.209 1.209 0 000-2.415H132.553a1.209 1.209 0 000 2.415z" fill="#133b4f"/></svg>