<svg viewBox="0 0 497 300" xmlns="http://www.w3.org/2000/svg" fill-rule="evenodd" clip-rule="evenodd" stroke-linejoin="round" stroke-miterlimit="2"><path d="M463.725 298.929H18.15c-10.05 0-18.15-8.1-18.15-18.15 0-10.05 8.1-18.15 18.15-18.15h445.575c10.05 0 18.15 8.1 18.15 18.15 0 9.975-8.1 18.15-18.15 18.15z" fill="#2b2727" fill-rule="nonzero"/><path d="M404.175 101.604V62.679c0-14.925-12.075-27-27-27s-27 12.075-27 27v38.85c0 24.825-20.175 45-45 45v114c0 9.975 8.025 18 18 18h108c9.975 0 18-8.025 18-18v-114c-24.9.075-45-20.1-45-44.925z" fill="#4d3830" fill-rule="nonzero"/><path fill="#72361f" d="M366.675 35.679h12.3v6.225h-12.3z"/><path d="M393.675 101.604V62.679c0-14.925-12.075-27-27-27s-27 12.075-27 27v38.85c0 24.825-20.175 45-45 45v114c0 9.975 8.025 18 18 18h108c9.975 0 18-8.025 18-18v-114c-24.9.075-45-20.1-45-44.925z" fill="#432e20" fill-rule="nonzero"/><path d="M438.675 146.604c-16.95 0-31.65-9.375-39.375-23.175l-41.625 16.8-21.075 11.7 49.95 7.8 52.125-10.35v-2.775z" fill="#432e20" fill-rule="nonzero"/><circle cx="366.675" cy="63.204" r="9" fill="#783f21"/><path fill="#72361f" d="M107.925 35.679h10.5v2.775h-10.5z"/><path fill="#584942" d="M107.925 54.204H366.75v18H107.925z"/><path d="M199.575 47.829h-.075l-6.525-17.55 5.325-24.45h14.175l5.4 24.45-6.6 17.55v52.725h-11.7V47.829z" fill="#c9c9c9" fill-rule="nonzero"/><path d="M207.525 47.829l6.6-17.55-5.4-24.45h3.75l5.4 24.45-6.6 17.55v52.725h-3.75V47.829z" fill="#b5b5b5" fill-rule="nonzero"/><path d="M187.35 209.229v-85.575c0-4.125 2.475-7.725 6.075-9.225 1.5-.6 1.725-2.625.45-3.675l-5.025-4.2a5.843 5.843 0 01-2.1-4.5v-3.975c0-1.5 1.2-2.7 2.7-2.7h31.8c1.5 0 2.7 1.2 2.7 2.7v3.975c0 1.725-.75 3.375-2.1 4.5l-5.025 4.2c-1.2 1.05-.975 3 .45 3.675 3.6 1.575 6.075 5.1 6.075 9.225v85.575c0 5.55-4.5 10.05-10.05 10.05h-16.05c-5.4.075-9.9-4.5-9.9-10.05z" fill="#f45145" fill-rule="nonzero"/><path d="M217.5 209.229v-85.575c0-4.125-2.475-7.725-6.075-9.225-1.5-.6-1.725-2.625-.45-3.675l5.025-4.2a5.843 5.843 0 002.1-4.5v-3.975c0-1.5-1.2-2.7-2.7-2.7h6c1.5 0 2.7 1.2 2.7 2.7v3.975c0 1.725-.75 3.375-2.1 4.5l-5.025 4.2c-1.2 1.05-.975 3 .45 3.675 3.6 1.575 6.075 5.1 6.075 9.225v85.575c0 5.55-4.5 10.05-10.05 10.05h-6c5.55.075 10.05-4.5 10.05-10.05z" fill="#db493e" fill-rule="nonzero"/><path d="M202.2 204.654v-71.475c0-2.1-1.65-3.75-3.75-3.75s-3.75 1.65-3.75 3.75v71.475c0 2.1 1.65 3.75 3.75 3.75s3.75-1.725 3.75-3.75zm13.875 0v-71.475c0-2.1-1.65-3.75-3.75-3.75s-3.75 1.65-3.75 3.75v71.475c0 2.1 1.65 3.75 3.75 3.75s3.75-1.725 3.75-3.75z" fill="#aa3930" fill-rule="nonzero"/><path d="M312 5.454c-1.2 1.35-3 3.3-4.5 4.95a4.625 4.625 0 01-6.15.6c-4.275-3.075-11.325-8.4-20.25-9.075-12.9-1.05-21.6 3.525-29.475 9.675-11.625 9.15-18.975 20.1-22.875 26.85 2.925 2.55 4.2 3.3 6.45 5.175 3.675-3.825 10.875-11.85 21.075-14.4 1.575-.375 4.35-1.05 7.65 0 1.125.375 3.225 1.2 5.1 3.3 3.225 3.6 3 8.025 3 9v29.1h19.125V42.804c-.375-4.875 1.725-9.375 5.4-11.25.3-.15 3.9-1.95 7.425-.6 2.55.975 5.7 3.9 8.1 6.225.225.225.825.75 1.8 1.125.525.15 1.125.3 1.65.225 3.45-.075 10.5-.225 15.375-.45 2.325-.075 4.125-1.95 4.125-4.275V8.454c0-2.325-1.875-4.2-4.2-4.275-4.65-.075-11.25-.225-15.225-.3-1.35 0-2.7.6-3.6 1.575z" fill="#c9c9c9" fill-rule="nonzero"/><path d="M262.35 27.879c-2.1-2.4-4.65-3.375-5.85-3.825-3.75-1.2-7.05-.45-8.85 0-5.625 1.35-10.425 4.2-14.4 7.275-1.8 2.625-3.3 5.025-4.5 7.05 2.925 2.55 4.2 3.3 6.45 5.175 3.675-3.825 10.875-11.85 21.075-14.4 1.425-.375 3.975-.975 6.975-.225-.225-.225-.525-.6-.9-1.05zm71.625 6.45c-5.625.15-13.8.375-17.775.45-.675 0-1.35-.075-1.95-.3a5.61 5.61 0 01-2.1-1.275c-2.775-2.625-6.45-6-9.375-7.125-4.05-1.575-8.25.6-8.55.75-4.2 2.25-6.6 7.35-6.225 13.05v30.9h3.225V42.954c-.375-4.875 1.725-9.375 5.4-11.25.3-.15 3.9-1.95 7.425-.6 2.55.975 5.7 3.9 8.1 6.225.225.225.825.75 1.8 1.125.525.15 1.125.3 1.65.225 3.45-.075 10.5-.225 15.375-.45 2.175-.075 3.975-1.8 4.125-3.9-.375-.075-.75 0-1.125 0z" fill="#ababab" fill-rule="nonzero"/><path d="M283.95 203.454h-3.6c-9.45 0-16.95-9.3-16.65-20.475l3.525-112.275h29.85l3.525 112.275c.3 11.175-7.2 20.475-16.65 20.475z" fill="#3b69a9" fill-rule="nonzero"/><path d="M300.6 182.979l-3.525-112.275H289.8l3.525 112.275c.3 10.425-6.225 19.2-14.775 20.325.6.075 1.2.15 1.8.15h3.6c9.45 0 16.95-9.3 16.65-20.475z" fill="#355e98" fill-rule="nonzero"/><path d="M300.975 79.779h-37.65c-2.466-.007-4.493-2.034-4.5-4.5 0-2.475 2.025-4.5 4.5-4.5h37.65c2.475 0 4.5 2.025 4.5 4.5s-2.025 4.5-4.5 4.5z" fill="#355e98" fill-rule="nonzero"/><path d="M265.8 120.054l32.025-22.05.675 20.325-33.225 18.6.525-16.875z" fill="#72361f" fill-opacity=".23" fill-rule="nonzero"/><path d="M386.1 33.879l-199.275 154.35 38.925 50.175 220.725-127.35L386.1 33.879z" fill="#c9c9c9" fill-rule="nonzero"/><path d="M437.775 98.454l-221.625 127.5 9.9 12.675 217.65-126-5.925-14.175z" fill="#e1e1e1" fill-rule="nonzero"/><path d="M492 60.204l-41.025-52.95c-6.3-8.175-18.075-9.675-26.25-3.3l-4.35 3.375 15.3 19.725c1.05-.375 2.1-.525 3.225-.525h.975c.675.075 1.425.15 2.1.375.075 0 .225.075.3.075.15.075.3.075.525.15.15.075.3.075.45.15.15.075.3.15.45.15.15.075.375.15.525.225.075.075.225.075.3.15.3.15.525.3.75.525.075.075.15.15.3.225.15.15.375.3.525.375.075.075.15.15.3.225.15.15.3.3.525.45l.225.225c.225.225.45.525.675.75l19.5 25.2c.225.3.375.525.6.825.075.075.075.15.15.3.15.225.225.375.3.6.075.075.075.225.15.3.075.225.15.375.3.6.075.075.075.225.15.3.075.3.225.6.3.9 0 .15.075.225.075.375.075.225.075.375.15.6 0 .15.075.3.075.45 0 .15 0 .3.075.45 0 .15 0 .375.075.525v.375c0 .75-.075 1.425-.15 2.1v.15c-.075.225-.075.45-.15.75v.075c-.3 1.05-.75 2.025-1.35 3l16.2 20.925 2.55-1.5c9.6-5.625 12.15-18.675 5.175-27.675z" fill="#fdc457" fill-rule="nonzero"/><path d="M462.975 50.304l-19.5-25.2c-.225-.3-.45-.525-.675-.75l-.225-.225c-.15-.15-.3-.3-.525-.45a1.019 1.019 0 00-.3-.225 2.264 2.264 0 00-.525-.375 1.019 1.019 0 00-.3-.225c-.225-.15-.525-.375-.75-.525-.075-.075-.225-.075-.3-.15-.15-.075-.375-.15-.525-.225-.15-.075-.3-.15-.45-.15-.15-.075-.3-.075-.45-.15-.15-.075-.3-.15-.525-.15-.075 0-.225-.075-.3-.075-.675-.225-1.425-.3-2.1-.375h-.975c-1.05 0-2.175.225-3.225.525L420.45 7.254l15.3 19.725c1.05-.375 2.1-.525 3.225-.525h.975c.675.075 1.425.15 2.1.375.075 0 .225.075.3.075.15.075.3.075.525.15.15.075.3.075.45.15.15.075.3.15.45.15.15.075.375.15.525.225.075.075.225.075.3.15.3.15.525.3.75.525.075.075.15.15.3.225.15.15.375.3.525.375.075.075.15.15.3.225.15.15.3.3.525.45l.225.225c.225.225.45.525.675.75l15.525 20.025c-.225.075-.375-.075-.45-.225zm29.025 9.9l-3.675-4.725c6.15 8.925 3.45 21.3-6.075 26.85l-2.55 1.5-11.85-15.375 16.2 20.925 2.55-1.5c9.825-5.625 12.375-18.675 5.4-27.675z" fill="#f2b24c" fill-rule="nonzero"/><path d="M445.275 28.404c-.225-.15-.525-.375-.75-.525.225.15.525.375.75.525zm1.05.825l.45.45c-.075-.15-.225-.3-.45-.45zm-2.1-1.5c-.15-.075-.375-.15-.525-.225.15.075.3.15.525.225zm-3.3-1.125s0 .075 0 0c0 .075 0 .075 0 0zm28.5 34.5c0 .15 0 .3.075.45 0-.15-.075-.3-.075-.45zM443.25 27.279c-.075 0-.15-.075-.225-.075.075.075.15.075.225.075zm-3.375-.75h-.15.15zm29.475 33.9c0 .075 0 .15.075.225-.075-.075-.075-.15-.075-.225zm-.45-1.575c.075.15.15.375.15.6-.075-.225-.075-.45-.15-.6zm.6 3.225v.375-.375zm-.975-4.125c.075.075.075.225.15.3-.075-.15-.15-.225-.15-.3zm-.75 10.5a10.645 10.645 0 01-2.475 2.7l-6.375 4.95c-9.6 7.425-23.325 5.7-30.75-3.9l-6-7.8c-7.425-9.6-5.7-23.325 3.9-30.75l6.375-4.95c.975-.75 2.1-1.35 3.3-1.725l-15.3-19.725-39.975 30.975 59.4 76.65 46.725-27-2.55 1.5-16.275-20.925zM468 56.979c.075.075.15.225.15.3 0-.075-.075-.15-.15-.3zm-.75-1.125c.225.3.375.525.6.825-.225-.225-.375-.525-.6-.825z" fill="#323b40" fill-rule="nonzero"/><path d="M483.975 89.379l-44.175 25.5-4.05-5.175 44.025-25.725 4.2 5.4z" fill="#2d363a" fill-rule="nonzero"/><path d="M428.175 278.604h-262.65v-132H438.6v121.5c.075 5.775-4.65 10.5-10.425 10.5z" fill="#584942" fill-rule="nonzero"/><circle cx="166.575" cy="176.904" r="6.75" fill="#783f21"/><path d="M145.425 101.604V62.679c0-14.925-12.075-27-27-27s-27 12.075-27 27v38.85c0 24.825-20.175 45-45 45v114c0 9.975 8.025 18 18 18h108c9.975 0 18-8.025 18-18v-114c-24.9.075-45-20.1-45-44.925z" fill="#4d3830" fill-rule="nonzero"/><path d="M431.25 278.604H173.625l11.25-10.5H441l-9.75 10.5z" fill="#4d3830" fill-rule="nonzero"/><path d="M438.675 146.529v114c0 4.125-3.375 7.5-7.5 7.5h-33.3v10.5h33.375c9.975 0 18-8.025 18-18v-114h-10.575z" fill="#4d3830" fill-rule="nonzero"/><path d="M134.925 101.604V62.679c0-14.925-12.075-27-27-27s-27 12.075-27 27v38.85c0 24.825-20.175 45-45 45v114c0 9.975 8.025 18 18 18h108c9.975 0 18-8.025 18-18v-114c-24.9.075-45-20.1-45-44.925z" fill="#584942" fill-rule="nonzero"/><path d="M37.5 268.104c2.85 6.225 9.075 10.5 16.35 10.5h108c7.275 0 13.5-4.275 16.35-10.5H37.5z" fill="#584942" fill-rule="nonzero"/><circle cx="166.575" cy="212.604" r="6.75" fill="#4d3830"/><circle cx="166.575" cy="176.904" r="6.75" fill="#4d3830"/><circle cx="166.575" cy="248.229" r="6.75" fill="#4d3830"/><circle cx="48.525" cy="176.904" r="6.75" fill="#4d3830"/><circle cx="48.525" cy="212.604" r="6.75" fill="#4d3830"/><circle cx="48.525" cy="248.229" r="6.75" fill="#4d3830"/><circle cx="107.925" cy="63.204" r="9" fill="#4d3830"/></svg>