<svg viewBox="0 0 625 242" xmlns="http://www.w3.org/2000/svg" fill-rule="evenodd" clip-rule="evenodd" stroke-linecap="round" stroke-linejoin="round" stroke-miterlimit="10"><path d="M617.325 241.425H6.75c-3.75 0-6.75-3-6.75-6.75s3-6.75 6.75-6.75H617.4c3.75 0 6.75 3 6.75 6.75-.075 3.75-3.075 6.75-6.825 6.75z" fill="#444e59" fill-rule="nonzero"/><path fill="#444e59" d="M240.525 227.55h105.6v6.3h-105.6z"/><path d="M419.475 186.375h-249.15c-4.95 0-9-4.05-9-9V10.5c0-4.95 4.05-9 9-9h249.15c4.95 0 9 4.05 9 9v166.8c0 5.025-3.975 9.075-9 9.075z" fill="#bbbfc2" fill-rule="nonzero"/><path d="M412.64 154.71V18.435H178.19V154.71h234.45z" fill="#28a8e0"/><path d="M420.075 186.375H381v-71.1c0-5.7 4.575-10.275 10.275-10.275h28.8v81.375zm-239.775-68.7h-18.975V173.7c0 6.975 6 12.675 13.05 12.675H196.2v-52.5c-.075-8.775-7.2-16.2-15.9-16.2z" fill="#848484" fill-opacity=".4" fill-rule="nonzero"/><path d="M420.225 186.375h-249.6c-4.95 0-9-4.05-9-9V10.5c0-4.95 4.05-9 9-9h249.6c4.95 0 9 4.05 9 9v166.8c0 5.025-4.05 9.075-9 9.075z" fill="none" stroke="#444e59" stroke-width="3"/><path d="M412.338 154.708V18.433H178.563v136.275h233.775z" fill="none" stroke="#444e59" stroke-width="3"/><path d="M366.9 148.125H238.05c-2.925 0-5.25-2.4-5.25-5.25v-91.95c0-2.925 2.4-5.25 5.25-5.25H366.9c2.925 0 5.25 2.4 5.25 5.25V142.8c0 2.925-2.325 5.325-5.25 5.325z" fill="#848484" fill-opacity=".32" fill-rule="nonzero"/><path d="M360.9 143.025H232.05c-2.925 0-5.25-2.4-5.25-5.25V45.9c0-2.925 2.4-5.25 5.25-5.25H360.9c2.925 0 5.25 2.4 5.25 5.25v91.875c.075 2.925-2.325 5.25-5.25 5.25z" fill="#afb1b2" fill-rule="nonzero"/><path d="M360.9 143.025H232.05c-2.925 0-5.25-2.4-5.25-5.25V45.9c0-2.925 2.4-5.25 5.25-5.25H360.9c2.925 0 5.25 2.4 5.25 5.25v91.875c.075 2.925-2.325 5.25-5.25 5.25z" fill="none" stroke="#444e59" stroke-width="3"/><path d="M326.85 227.55H264l7.8-41.175h47.25l7.8 41.175z" fill="#aeaeaf" fill-rule="nonzero"/><path d="M321.15 198l-2.1-11.625H271.8L269.7 198h51.45z" fill="#848484" fill-opacity=".32" fill-rule="nonzero"/><path d="M326.85 227.55H264l7.8-41.175h47.25l7.8 41.175zm-86.325 0h105.6v6.3h-105.6z" fill="none" stroke="#444e59" stroke-width="3"/><circle cx="295.05" cy="167.475" r="4.65" fill="#444e59"/><path d="M350.325 133.575h-128.85c-2.925 0-5.25-2.4-5.25-5.25v-91.95c0-2.925 2.4-5.25 5.25-5.25h128.85c2.925 0 5.25 2.4 5.25 5.25v91.875c.075 2.925-2.325 5.325-5.25 5.325z" fill="#fff" fill-rule="nonzero"/><path d="M350.325 133.575h-128.85c-2.925 0-5.25-2.4-5.25-5.25v-91.95c0-2.925 2.4-5.25 5.25-5.25h128.85c2.925 0 5.25 2.4 5.25 5.25v91.875c.075 2.925-2.325 5.325-5.25 5.325z" fill="none" stroke="#444e59" stroke-width="3"/><path d="M355.65 46.95H216.225V36.6c0-3 2.475-5.55 5.55-5.55h128.7a5.185 5.185 0 015.175 5.175V46.95z" fill="#bbbfc2" fill-rule="nonzero"/><path d="M355.65 46.95H216.225V36.6c0-3 2.475-5.55 5.55-5.55h128.7a5.185 5.185 0 015.175 5.175V46.95z" fill="none" stroke="#444e59" stroke-width="3"/><g fill="#444e59"><circle cx="229.65" cy="39.075" r="2.475"/><circle cx="237.825" cy="39.075" r="2.475"/><circle cx="245.925" cy="39.075" r="2.475"/></g><path d="M342.525 74.4H228.3c-.825 0-1.5-.675-1.5-1.5V56.925c0-.825.675-1.5 1.5-1.5h114.225c.825 0 1.5.675 1.5 1.5V72.9c0 .825-.675 1.5-1.5 1.5z" fill="#6567c3" fill-rule="nonzero"/><path d="M261.15 94.425h-32.925c-.825 0-1.5-.675-1.5-1.5V84.3c0-.825.675-1.5 1.5-1.5h32.925c.825 0 1.5.675 1.5 1.5v8.625c0 .825-.6 1.5-1.5 1.5z" fill="#444e59" fill-opacity=".2" fill-rule="nonzero"/><path d="M232.05 102.9h26.4m-26.4 8.475h26.4" fill="none" stroke="#444e59" stroke-opacity=".2" stroke-width="3"/><path d="M302.4 94.425h-32.925c-.825 0-1.5-.675-1.5-1.5V84.3c0-.825.675-1.5 1.5-1.5H302.4c.825 0 1.5.675 1.5 1.5v8.625c0 .825-.675 1.5-1.5 1.5z" fill="#444e59" fill-opacity=".2" fill-rule="nonzero"/><path d="M273.225 102.9h25.35m-25.35 8.475h25.35" fill="none" stroke="#444e59" stroke-opacity=".2" stroke-width="3"/><path d="M343.575 112.425H310.65c-.825 0-1.5-.675-1.5-1.5v-26.55c0-.825.675-1.5 1.5-1.5h32.925c.825 0 1.5.675 1.5 1.5v26.55c0 .825-.675 1.5-1.5 1.5z" fill="#444e59" fill-rule="nonzero" opacity=".2"/><path d="M342.525 120.9h-31.35c-1.2 0-2.1-.975-2.1-2.1s.975-2.1 2.1-2.1h31.35c1.2 0 2.1.975 2.1 2.1s-.975 2.1-2.1 2.1z" fill="#444e59" fill-rule="nonzero" opacity=".09"/><path d="M106.875 201.75h-60.45c-.75 0-1.425.225-1.95.75L29.85 215.25c-1.35 1.2-1.35 3.3 0 4.425l14.625 12.975c.525.45 1.2.9 1.95.9h60.45c3.45 0 6.3-3.15 6.3-6.6v-19.125c-.075-3.3-2.85-6.075-6.3-6.075zm-62.1 19.425c-2.025 0-3.75-1.65-3.75-3.75s1.65-3.75 3.75-3.75 3.75 1.65 3.75 3.75-1.65 3.75-3.75 3.75z" fill="#fff" fill-rule="nonzero"/><path fill="#f09f54" d="M60.3 201.75h17.625v31.875H60.3z"/><path fill="#ed8b3b" d="M77.925 201.75H95.55v31.875H77.925z"/><path d="M105.3 233.625h-9.75V201.75h10.05c4.125 0 7.575 3.375 7.575 7.575v16.5c-.075 4.275-3.6 7.8-7.875 7.8z" fill="#ff6c37" fill-rule="nonzero"/><path d="M108.525 203.325c-.3-.075-.6-.075-.9-.075h-60.45c-.75 0-1.425.225-1.95.75L30.6 216.75c-1.35 1.2-1.35 3.3 0 4.425l9.15 8.025 9.9 2.475c.45.15.975.15 1.5.15.975 0 1.875-.225 2.775-.675l53.85-27.45c.225-.075.525-.225.75-.375zm-63 19.35c-2.025 0-3.75-1.65-3.75-3.75s1.65-3.75 3.75-3.75 3.75 1.65 3.75 3.75-1.65 3.75-3.75 3.75z" fill="#848484" fill-opacity=".4" fill-rule="nonzero"/><path d="M106.875 201.75h-60.45c-.75 0-1.425.225-1.95.75L29.85 215.25c-1.35 1.2-1.35 3.3 0 4.425l14.625 12.975c.525.45 1.2.9 1.95.9h60.45c3.45 0 6.3-3.15 6.3-6.6v-19.125c-.075-3.3-2.85-6.075-6.3-6.075zm-62.1 19.425c-2.025 0-3.75-1.65-3.75-3.75s1.65-3.75 3.75-3.75 3.75 1.65 3.75 3.75-1.65 3.75-3.75 3.75z" fill="none" stroke="#444e59" stroke-width="3"/><path fill="none" stroke="#444e59" stroke-width="3" d="M60.3 201.75h17.625v31.875H60.3zm17.625 0H95.55v31.875H77.925zm27.375 31.875h-9.75V201.75h10.05c4.125 0 7.575 3.375 7.575 7.575v16.5c-.075 4.275-3.6 7.8-7.875 7.8z"/><path d="M91.275 171.45l-53.85 27.45c-.675.3-1.125.9-1.425 1.575l-7.2 18c-.675 1.65.3 3.525 2.025 3.975l18.825 4.8c.675.15 1.425.075 2.1-.225l53.85-27.45c3.075-1.575 4.275-5.325 2.7-8.325l-8.7-17.025c-1.575-3.15-5.325-4.35-8.325-2.775z" fill="#fff" fill-rule="nonzero"/><path d="M81.132 176.588l-15.7 8.01 14.316 28.06 15.701-8.01-14.317-28.06z" fill="#8d91db"/><path d="M91.275 171.45l-53.85 27.45c-.675.3-1.125.9-1.425 1.575l-7.2 18c-.675 1.65.3 3.525 2.025 3.975l18.825 4.8c.675.15 1.425.075 2.1-.225l53.85-27.45c3.075-1.575 4.275-5.325 2.7-8.325l-8.7-17.025c-1.575-3.15-5.325-4.35-8.325-2.775z" fill="none" stroke="#444e59" stroke-width="3"/><circle cx="43.125" cy="213.675" r="4.35" fill="#444e59"/><path d="M65.398 184.639l-15.701 8.01 14.317 28.061 15.7-8.011-14.316-28.06z" fill="#beccd5" stroke="#444e59" stroke-width="3"/><path d="M65.398 184.639l-15.701 8.01 14.317 28.061 15.7-8.011-14.316-28.06zm15.734-8.051l-15.7 8.01 14.316 28.06 15.701-8.01-14.317-28.06z" fill="none" stroke="#444e59" stroke-width="3"/><path d="M104.4 200.1l-9 4.575-14.325-28.05 9-4.575c3.675-1.875 8.175-.45 10.125 3.3l7.5 14.7c1.875 3.675.375 8.175-3.3 10.05z" fill="#6567c3" fill-rule="nonzero"/><path d="M104.4 200.1l-9 4.575-14.325-28.05 9-4.575c3.675-1.875 8.175-.45 10.125 3.3l7.5 14.7c1.875 3.675.375 8.175-3.3 10.05z" fill="none" stroke="#444e59" stroke-width="3"/><path d="M180.225 233.85H129.75c-4.125 0-7.5-3.375-7.5-7.5V125.175c0-4.125 3.375-7.5 7.5-7.5h50.475c4.125 0 7.5 3.375 7.5 7.5V226.35c0 4.2-3.375 7.5-7.5 7.5z" fill="#fff" fill-rule="nonzero"/><path d="M188.775 152.55H122.25v-27.525c0-4.05 3.3-7.35 7.35-7.35h51.375c4.275 0 7.725 3.525 7.725 7.725v27.15h.075z" fill="#6567c3" fill-rule="nonzero"/><path d="M180.225 233.85H129.75c-4.125 0-7.5-3.375-7.5-7.5V125.175c0-4.125 3.375-7.5 7.5-7.5h50.475c4.125 0 7.5 3.375 7.5 7.5V226.35c0 4.2-3.375 7.5-7.5 7.5z" fill="none" stroke="#444e59" stroke-width="3"/><path d="M180.3 233.85h-50.325c-4.275 0-7.8-3.525-7.8-7.8v-14.4h65.55v14.775c0 4.125-3.375 7.425-7.425 7.425z" fill="#bbbfc2" fill-rule="nonzero"/><path d="M180.45 233.85h-50.475c-4.275 0-7.8-3.525-7.8-7.8v-14.4h65.55v14.925c0 4.05-3.3 7.275-7.275 7.275z" fill="none" stroke="#444e59" stroke-width="3"/><circle cx="155.475" cy="222.3" r="3.75" fill="#444e59"/><path d="M137.025 164.175H174M144.375 175.8h23.25m-30.6 10.575H174" fill="none" stroke="#444e59" stroke-opacity=".3" stroke-width="3"/><circle cx="155.475" cy="137.775" r="8.4" fill="#fff" fill-opacity=".62"/><path d="M167.625 198c0 2.325-1.875 4.2-4.2 4.2H147.6a4.193 4.193 0 01-4.2-4.2c0-2.325 1.875-4.2 4.2-4.2h15.825c2.325-.075 4.2 1.8 4.2 4.2z" fill="#ed8b3b" fill-rule="nonzero"/><path d="M571.125 220.125H389.4v-109.2a5.858 5.858 0 015.85-5.85h170.1c3.15 0 5.7 2.55 5.7 5.7v109.35h.075z" fill="#bbbfc2" fill-rule="nonzero"/><path d="M571.575 220.35h-181.65v-109.5c0-3.3 2.7-6 6-6h169.65c3.3 0 6 2.7 6 6v109.5z" fill="none" stroke="#444e59" stroke-width="3"/><path d="M561.621 210.695v-96.15H399.996v96.15h161.625z" fill="#5d5d5d" fill-opacity=".71"/><path d="M439.5 192.375h-13.95c-.825 0-1.5-.675-1.5-1.5V143.1c0-.825.675-1.5 1.5-1.5h13.95c.825 0 1.5.675 1.5 1.5v47.85c0 .75-.675 1.425-1.5 1.425zm100.725 9.675h-80.55c-1.65 0-3-1.35-3-3v-61.575c0-1.65 1.35-3 3-3h80.55c1.65 0 3 1.35 3 3v61.575c0 1.65-1.275 3-3 3z" fill="#848484" fill-opacity=".32" fill-rule="nonzero"/><path d="M561.478 210.24v-95.325H400.003v95.325h161.475z" fill="none" stroke="#444e59" stroke-width="3"/><path d="M591.375 220.35H370.05v7.05c0 3.3 2.7 6 6 6h209.325c3.3 0 6-2.7 6-6v-7.05z" fill="#fff" fill-rule="nonzero"/><path d="M378.525 233.85h204.45c4.125 0 7.5-3.15 8.25-7.425H370.2c.75 4.275 4.2 7.425 8.325 7.425z" fill="#bbbfc2" fill-opacity=".8" fill-rule="nonzero"/><path d="M591.375 220.35H370.05v7.05c0 3.3 2.7 6 6 6h209.325c3.3 0 6-2.7 6-6v-7.05z" fill="none" stroke="#444e59" stroke-width="3"/><path fill="#f09f54" d="M420.075 137.775h16.875v16.875h-16.875z"/><path fill="none" stroke="#444e59" stroke-width="3" d="M420.375 137.925h16.875V154.8h-16.875z"/><path fill="none" stroke="#444e59" stroke-width="3" d="M420.375 137.925h16.875V154.8h-16.875z"/><path fill="#8d91db" d="M420.075 154.65h16.875v16.875h-16.875z"/><path fill="none" stroke="#444e59" stroke-width="3" d="M420.375 154.875h16.875v16.875h-16.875z"/><path fill="#6567c3" d="M420.075 171.525h16.875V188.4h-16.875z"/><path fill="none" stroke="#444e59" stroke-width="3" d="M420.375 171.75h16.875v16.875h-16.875z"/><path d="M535.35 196.875h-80.625c-1.65 0-3-1.35-3-3V132.3c0-1.65 1.35-3 3-3h80.625c1.65 0 3 1.35 3 3v61.575c0 1.725-1.35 3-3 3z" fill="#fff" fill-rule="nonzero"/><path d="M535.35 196.875h-80.625c-1.65 0-3-1.35-3-3V132.3c0-1.65 1.35-3 3-3h80.625c1.65 0 3 1.35 3 3v61.575c0 1.725-1.35 3-3 3z" fill="none" stroke="#444e59" stroke-width="3"/><g fill="none" stroke="#444e59" stroke-width="1.5" stroke-linecap="butt" stroke-miterlimit="4" opacity=".3"><path d="M513 179.1v1.125h-1.125"/><path d="M510.45 180.225h-31.425" stroke-dasharray="2.14,1.43"/><path d="M478.275 180.225h-1.125V179.1"/><path d="M477.15 177.525v-29.25" stroke-dasharray="2.25,1.5"/><path d="M477.15 147.525V146.4h1.125"/><path d="M479.7 146.4h31.425" stroke-dasharray="2.14,1.43"/><path d="M511.875 146.4H513v1.125"/><path d="M513 149.025v29.325" stroke-dasharray="2.25,1.5"/></g><path fill="#fff" d="M474.675 143.775H480v5.325h-5.325z"/><path fill="none" stroke="#444e59" stroke-width=".75" stroke-linecap="butt" d="M474.45 143.55h5.25v5.25h-5.25z"/><path fill="#fff" d="M474.675 177.525H480v5.325h-5.325z"/><path fill="none" stroke="#444e59" stroke-width=".75" stroke-linecap="butt" d="M474.45 177.375h5.25v5.25h-5.25z"/><path fill="#fff" d="M510.375 143.775h5.325v5.325h-5.325z"/><path fill="none" stroke="#444e59" stroke-width=".75" stroke-linecap="butt" d="M510.375 143.55h5.25v5.25h-5.25z"/><path fill="#fff" d="M510.375 177.525h5.325v5.325h-5.325z"/><path fill="none" stroke="#444e59" stroke-width=".75" stroke-linecap="butt" d="M510.375 177.375h5.25v5.25h-5.25z"/><g><path d="M428.85 163.575l5.325 11.4 5.175 2.7 3.6-3.6-2.625-5.25-11.475-5.25z" fill="#fff" fill-rule="nonzero"/><path d="M428.85 163.575l5.325 11.4 5.175 2.7 3.6-3.6-2.625-5.25-11.475-5.25z" fill="none" stroke="#444e59" stroke-width=".75" stroke-linecap="butt"/><circle cx="435.6" cy="170.025" r="1.425" fill="#444e59"/><path d="M428.85 163.575l5.925 5.925" fill="none" stroke="#444e59" stroke-width=".75"/><path d="M442.972 174.016l-3.606 3.606 2.599 2.598 3.606-3.606-2.599-2.598z" fill="#fff"/><path d="M442.972 174.016l-3.606 3.606 2.599 2.598 3.606-3.606-2.599-2.598z" fill="none" stroke="#444e59" stroke-width=".75" stroke-linecap="butt"/></g></svg>