<svg viewBox="0 0 521 236" xmlns="http://www.w3.org/2000/svg" fill-rule="evenodd" clip-rule="evenodd" stroke-linecap="round" stroke-linejoin="round" stroke-miterlimit="10"><path d="M513.45 235.575H6.75c-3.75 0-6.75-3-6.75-6.75s3-6.75 6.75-6.75h506.775c3.75 0 6.75 3 6.75 6.75-.075 3.75-3.075 6.75-6.825 6.75z" fill="#848484" fill-opacity=".28" fill-rule="nonzero"/><path d="M491.475 166.275c0-27.9-21.15-50.85-48.525-53.475v-6.3h-16.425v120.525h16.425v-7.275c27.3-2.625 48.525-25.575 48.525-53.475zm-48.6 36.15V130.2c17.55 2.55 31.35 17.775 31.35 36.15 0 18.3-13.8 33.525-31.35 36.075z" fill="#f09f54" fill-rule="nonzero"/><path d="M442.875 112.8v-6.3H426.45v120.525h16.425v-7.275c27.375-2.625 48.525-25.5 48.525-53.475.075-27.9-21.15-50.85-48.525-53.475zm0 101.4v6.225H427.5v-108.45h15.375v6.375c24.075 2.325 43.5 22.875 43.5 47.925.075 25.05-19.35 45.6-43.5 47.925z" fill="#f09f54" fill-opacity=".29" fill-rule="nonzero"/><path d="M491.475 166.275c0-27.9-21.15-50.85-48.525-53.475v-6.3h-16.425v120.525h16.425v-7.275c27.3-2.625 48.525-25.575 48.525-53.475zm-48.6 36.15V130.2c17.55 2.55 31.35 17.775 31.35 36.15 0 18.3-13.8 33.525-31.35 36.075z" fill="none" stroke="#444e59" stroke-width="3"/><path d="M433.05 214.95h-6.6m6.6-12h-6.6m6.6-12.075h-6.6m6.6-12.075h-6.6m6.6-12h-6.6m6.6-12.075h-6.6m6.6-12.075h-6.6m6.6-12.075h-6.6m6.6-12h-6.6" fill="none" stroke="#444e59" stroke-width="2.25"/><path fill="#f09f54" d="M390.075 45.525H414.9v181.2h-24.825z"/><path fill="#f09f54" d="M390.075 45.525H414.9v181.2h-24.825z"/><path fill="#f09f54" fill-opacity=".29" d="M404.1 45.525h10.8v181.2h-10.8z"/><path fill="none" stroke="#444e59" stroke-width="3" d="M390.075 45.525H414.9v181.2h-24.825z"/><path d="M398.7 208.425h-8.625m5.325 8.625h-5.325m8.625-25.875h-8.625m5.325 8.625h-5.325m8.625-25.875h-8.625m5.325 8.625h-5.325m8.625-25.95h-8.625m5.325 8.625h-5.325m8.625-25.875h-8.625m5.325 8.625h-5.325M398.7 122.1h-8.625m5.325 8.625h-5.325m8.625-25.875h-8.625m5.325 8.625h-5.325M398.7 87.6h-8.625m5.325 8.625h-5.325M398.7 70.35h-8.625m5.325 8.625h-5.325M398.7 53.1h-8.625m5.325 8.625h-5.325" fill="none" stroke="#444e59" stroke-width="2.25"/><path fill="#848484" d="M344.175 89.325h9.675V114.9h-9.675z"/><path fill="#848484" fill-opacity=".25" d="M344.175 89.325h3.6V114.9h-3.6z"/><path fill="none" stroke="#444e59" stroke-width="3" d="M344.175 89.325h9.675V114.9h-9.675z"/><path fill="#fff" d="M346.8 114.975h4.425v12.375H346.8z"/><path fill="none" stroke="#444e59" stroke-width="3" d="M346.8 114.975h4.425v12.375H346.8z"/><path d="M341.55 138.375l-22.5 88.275 34.2-87.075-11.7-1.2z" fill="#fff" fill-rule="nonzero"/><path d="M341.55 138.375l-22.5 88.275 34.2-87.075-11.7-1.2z" fill="none" stroke="#444e59" stroke-width="3"/><path d="M356.55 138.375l22.5 88.275-34.125-87.075 11.625-1.2z" fill="#fff" fill-rule="nonzero"/><path d="M356.55 138.375l22.5 88.275-34.125-87.075 11.625-1.2z" fill="none" stroke="#444e59" stroke-width="3"/><circle cx="349.05" cy="140.7" r="15" fill="#71a850"/><path d="M338.25 140.7c0-7.575 5.625-13.8 12.9-14.85-.675-.075-1.35-.15-2.1-.15-8.25 0-15 6.75-15 15s6.75 15 15 15c.675 0 1.425-.075 2.1-.15-7.275-1.05-12.9-7.275-12.9-14.85z" fill="#71a850" fill-opacity=".4" fill-rule="nonzero"/><circle cx="349.05" cy="140.7" r="15" fill="none" stroke="#444e59" stroke-width="3"/><circle cx="349.05" cy="140.7" r="5.1" fill="#444e59"/><circle cx="349.05" cy="140.7" r="5.1" fill="none" stroke="#444e59" stroke-width="3"/><path d="M294.9 226.5h-99c-5.775 0-10.5-4.725-10.5-10.5V12c0-5.775 4.725-10.5 10.5-10.5h99c5.775 0 10.5 4.725 10.5 10.5v204c0 5.775-4.725 10.5-10.5 10.5z" fill="#848484" fill-rule="nonzero"/><path d="M294.9 1.5h-6.3c5.775 0 10.5 4.725 10.5 10.5v204c0 5.775-4.725 10.5-10.5 10.5h6.375c5.775 0 10.5-4.725 10.5-10.5V12c-.075-5.85-4.8-10.5-10.575-10.5z" fill="#848484" fill-opacity=".28" fill-rule="nonzero"/><path d="M191.625 216V12c0-5.775 4.725-10.5 10.5-10.5H195.9c-5.775 0-10.5 4.725-10.5 10.5v204c0 5.775 4.725 10.5 10.5 10.5h6.225c-5.775 0-10.5-4.725-10.5-10.5z" fill="#848484" fill-opacity=".48" fill-rule="nonzero"/><path d="M294.9 226.5h-99c-5.775 0-10.5-4.725-10.5-10.5V12c0-5.775 4.725-10.5 10.5-10.5h99c5.775 0 10.5 4.725 10.5 10.5v204c0 5.775-4.725 10.5-10.5 10.5z" fill="none" stroke="#444e59" stroke-width="3"/><path d="M305.414 197.616v-168h-120v168h120z" fill="#e9fbff"/><path d="M304.8 83.775h-9.375a9.218 9.218 0 01-9.225-9.225V51.675c0-5.1 4.125-9.225 9.225-9.225h9.375v41.325zm-112.5 92.7h-6.9V103.5h6.9c5.175 0 9.375 4.2 9.375 9.375V167.1c-.075 5.175-4.2 9.375-9.375 9.375z" fill="#c9c9c9" fill-rule="nonzero"/><path d="M305.414 197.616v-168h-120v168h120z" fill="none" stroke="#444e59" stroke-width="3"/><path d="M261.9 16.5h5.25m-43.5 0h30" fill="none" stroke="#444e59" stroke-width="3.75"/><circle cx="245.4" cy="210.3" r="8.25" fill="#848484" fill-opacity=".29"/><circle cx="245.4" cy="210.3" r="6.3" fill="#444e59"/><path d="M218.025 177.525h-12c-3.3 0-6-2.7-6-6v-12c0-3.3 2.7-6 6-6h12c3.3 0 6 2.7 6 6v12c0 3.3-2.7 6-6 6zm66.375 0h-12c-3.3 0-6-2.7-6-6v-12c0-3.3 2.7-6 6-6h12c3.3 0 6 2.7 6 6v12c0 3.3-2.7 6-6 6zm-33 0h-12c-3.3 0-6-2.7-6-6v-12c0-3.3 2.7-6 6-6h12c3.3 0 6 2.7 6 6v12c0 3.3-2.7 6-6 6zm-33.375-36h-12c-3.3 0-6-2.7-6-6v-12c0-3.3 2.7-6 6-6h12c3.3 0 6 2.7 6 6v12c0 3.3-2.7 6-6 6zm66.375 0h-12c-3.3 0-6-2.7-6-6v-12c0-3.3 2.7-6 6-6h12c3.3 0 6 2.7 6 6v12c0 3.3-2.7 6-6 6zm-33 0h-12c-3.3 0-6-2.7-6-6v-12c0-3.3 2.7-6 6-6h12c3.3 0 6 2.7 6 6v12c0 3.3-2.7 6-6 6zm-33.375-36h-12c-3.3 0-6-2.7-6-6v-12c0-3.3 2.7-6 6-6h12c3.3 0 6 2.7 6 6v12c0 3.3-2.7 6-6 6zm66.375 0h-12c-3.3 0-6-2.7-6-6v-12c0-3.3 2.7-6 6-6h12c3.3 0 6 2.7 6 6v12c0 3.3-2.7 6-6 6zm-33 0h-12c-3.3 0-6-2.7-6-6v-12c0-3.3 2.7-6 6-6h12c3.3 0 6 2.7 6 6v12c0 3.3-2.7 6-6 6zm-33.375-36h-12c-3.3 0-6-2.7-6-6v-12c0-3.3 2.7-6 6-6h12c3.3 0 6 2.7 6 6v12c0 3.3-2.7 6-6 6zm66.375 0h-12c-3.3 0-6-2.7-6-6v-12c0-3.3 2.7-6 6-6h12c3.3 0 6 2.7 6 6v12c0 3.3-2.7 6-6 6zm-33 0h-12c-3.3 0-6-2.7-6-6v-12c0-3.3 2.7-6 6-6h12c3.3 0 6 2.7 6 6v12c0 3.3-2.7 6-6 6z" fill="none" stroke="#444e59" stroke-width="1.5" stroke-miterlimit="4" stroke-dasharray="3.06,3.06" opacity=".3"/><path d="M218.025 177.525h-12c-3.3 0-6-2.7-6-6v-12c0-3.3 2.7-6 6-6h12c3.3 0 6 2.7 6 6v12c0 3.3-2.7 6-6 6z" fill="#71a850" fill-rule="nonzero"/><path d="M218.025 153.525h-12c-2.4 0-4.5 1.425-5.4 3.45l23.4 4.2v-1.65c0-3.3-2.7-6-6-6z" fill="#5f8c42" fill-opacity=".52" fill-rule="nonzero"/><path d="M218.025 177.525h-12c-3.3 0-6-2.7-6-6v-12c0-3.3 2.7-6 6-6h12c3.3 0 6 2.7 6 6v12c0 3.3-2.7 6-6 6z" fill="none" stroke="#444e59" stroke-width="3"/><path d="M251.4 177.525h-12c-3.3 0-6-2.7-6-6v-12c0-3.3 2.7-6 6-6h12c3.3 0 6 2.7 6 6v12c0 3.3-2.7 6-6 6z" fill="#f09f54" fill-rule="nonzero"/><path d="M251.4 153.525h-12c-2.4 0-4.5 1.425-5.4 3.45l23.4 4.2v-1.65c0-3.3-2.7-6-6-6z" fill="#d38444" fill-opacity=".52" fill-rule="nonzero"/><path d="M251.4 177.525h-12c-3.3 0-6-2.7-6-6v-12c0-3.3 2.7-6 6-6h12c3.3 0 6 2.7 6 6v12c0 3.3-2.7 6-6 6z" fill="none" stroke="#444e59" stroke-width="3"/><path d="M284.4 141.525h-12c-3.3 0-6-2.7-6-6v-12c0-3.3 2.7-6 6-6h12c3.3 0 6 2.7 6 6v12c0 3.3-2.7 6-6 6z" fill="#2fa9ed" fill-rule="nonzero"/><path d="M284.4 117.525h-12c-2.4 0-4.5 1.425-5.4 3.45l23.4 4.2v-1.65c0-3.3-2.7-6-6-6z" fill="#288fbc" fill-opacity=".52" fill-rule="nonzero"/><path d="M284.4 141.525h-12c-3.3 0-6-2.7-6-6v-12c0-3.3 2.7-6 6-6h12c3.3 0 6 2.7 6 6v12c0 3.3-2.7 6-6 6z" fill="none" stroke="#444e59" stroke-width="3"/><path d="M251.4 105.525h-12c-3.3 0-6-2.7-6-6v-12c0-3.3 2.7-6 6-6h12c3.3 0 6 2.7 6 6v12c0 3.3-2.7 6-6 6z" fill="#e7534e" fill-rule="nonzero"/><path d="M251.4 81.525h-12c-2.4 0-4.5 1.425-5.4 3.45l23.4 4.2v-1.65c0-3.3-2.7-6-6-6z" fill="#bf4040" fill-opacity=".52" fill-rule="nonzero"/><path d="M251.4 105.525h-12c-3.3 0-6-2.7-6-6v-12c0-3.3 2.7-6 6-6h12c3.3 0 6 2.7 6 6v12c0 3.3-2.7 6-6 6z" fill="none" stroke="#444e59" stroke-width="3"/><path d="M276.45 124.275l6.9 3.975c.975.6.975 2.025 0 2.55l-6.9 3.975c-.975.6-2.25-.15-2.25-1.275v-7.95c0-1.125 1.275-1.875 2.25-1.275zm-27.9 36.6h-6.3c-1.35 0-2.4 1.125-2.4 2.4v4.65c0 1.35 1.125 2.4 2.4 2.4h.225l-.525 2.1c-.075.15.15.3.3.15l3.225-2.25h3.225c1.35 0 2.4-1.125 2.4-2.4v-4.65a2.55 2.55 0 00-2.55-2.4z" fill="#fff" fill-rule="nonzero"/><path d="M207.375 165.525l2.775 2.775a.95.95 0 001.35 0l6.225-6.225" fill="none" stroke="#fff" stroke-width="3"/><circle cx="245.4" cy="93.525" r="5.625" fill="none" stroke="#fff" stroke-width="3"/><path d="M200.1 64.275l-.15-11.25-7.5.075c-.45-1.425-.975-2.7-1.725-3.975l5.25-5.4-8.025-7.875-5.25 5.4a18.91 18.91 0 00-4.05-1.575l-.075-7.5-11.25.15.075 7.5c-1.425.45-2.7.975-3.975 1.725l-5.4-5.25-7.875 8.025 5.4 5.25a18.91 18.91 0 00-1.575 4.05l-7.5.075.15 11.25 7.5-.075c.45 1.425.975 2.7 1.725 3.975l-5.25 5.4 8.025 7.875 5.25-5.4a18.91 18.91 0 004.05 1.575l.075 7.5 11.25-.15-.075-7.5c1.425-.45 2.7-.975 3.975-1.725l5.4 5.25 7.875-8.025-5.4-5.25a18.91 18.91 0 001.575-4.05l7.5-.075zm-26.625 3.45c-4.875.075-8.775-3.825-8.85-8.7-.075-4.875 3.825-8.775 8.7-8.85 4.875-.075 8.775 3.825 8.85 8.7 0 4.875-3.9 8.775-8.7 8.85z" fill="#fff" fill-rule="nonzero"/><path d="M200.1 64.275l-.15-11.25-7.5.075c-.45-1.425-.975-2.7-1.725-3.975l5.25-5.4-8.025-7.875-5.25 5.4a18.91 18.91 0 00-4.05-1.575l-.075-7.5-11.25.15.075 7.5c-1.425.45-2.7.975-3.975 1.725l-5.4-5.25-7.875 8.025 5.4 5.25a18.91 18.91 0 00-1.575 4.05l-7.5.075.15 11.25 7.5-.075c.45 1.425.975 2.7 1.725 3.975l-5.25 5.4 8.025 7.875 5.25-5.4a18.91 18.91 0 004.05 1.575l.075 7.5 11.25-.15-.075-7.5c1.425-.45 2.7-.975 3.975-1.725l5.4 5.25 7.875-8.025-5.4-5.25a18.91 18.91 0 001.575-4.05l7.5-.075zm-26.625 3.45c-4.875.075-8.775-3.825-8.85-8.7-.075-4.875 3.825-8.775 8.7-8.85 4.875-.075 8.775 3.825 8.85 8.7 0 4.875-3.9 8.775-8.7 8.85z" fill="#f09f54" fill-rule="nonzero"/><path d="M200.1 64.275l-.15-11.25-7.5.075c-.45-1.425-.975-2.7-1.725-3.975l5.25-5.4-8.025-7.875-5.25 5.4a18.91 18.91 0 00-4.05-1.575l-.075-7.5-11.25.15.075 7.5c-1.425.45-2.7.975-3.975 1.725l-5.4-5.25-7.875 8.025 5.4 5.25a18.91 18.91 0 00-1.575 4.05l-7.5.075.15 11.25 7.5-.075c.45 1.425.975 2.7 1.725 3.975l-5.25 5.4 8.025 7.875 5.25-5.4a18.91 18.91 0 004.05 1.575l.075 7.5 11.25-.15-.075-7.5c1.425-.45 2.7-.975 3.975-1.725l5.4 5.25 7.875-8.025-5.4-5.25a18.91 18.91 0 001.575-4.05l7.5-.075zm-26.625 3.45c-4.875.075-8.775-3.825-8.85-8.7-.075-4.875 3.825-8.775 8.7-8.85 4.875-.075 8.775 3.825 8.85 8.7 0 4.875-3.9 8.775-8.7 8.85z" fill="#f09f54" fill-rule="nonzero"/><path d="M197.25 53.1s0 .075 0 0h2.775v-.075l-2.775.075zm-9.75-11.775l2.925-3-2.4-2.4-3.9 3.975c1.2.375 2.325.825 3.375 1.425zm-9.525 8.85c-.825 0-1.575.15-2.25.3 3.675 1.05 6.375 4.35 6.375 8.325.075 4.05-2.7 7.5-6.375 8.55.75.225 1.65.375 2.475.3 4.875-.075 8.7-4.05 8.7-8.85s-4.05-8.625-8.925-8.625zM166.8 40.05l1.5 1.425c1.275-.675 2.55-1.275 3.975-1.725l-.075-7.5 6.45-.075V32.1l-11.25.15.075 7.5c-.15.15-.45.225-.675.3zm5.85 38.175a18.91 18.91 0 01-4.05-1.575l-1.35 1.425.675.225.075 7.5 4.725-.075-.075-7.5zm-21.3-24.6l7.5-.075a18.91 18.91 0 011.575-4.05l-5.4-5.25 5.55-5.625-2.4-2.4-7.875 8.025 5.4 5.25a18.91 18.91 0 00-1.575 4.05l-7.5.075.15 11.25 4.725-.075-.15-11.175zm36.525 22.8c-1.05.6-2.1 1.05-3.225 1.425l3.9 3.825 2.325-2.4-3-2.85zM155.4 74.1l5.25-5.4c-.675-1.275-1.275-2.55-1.725-3.975l-4.725.075c.45 1.35.975 2.7 1.65 3.9l-5.25 5.4 8.025 7.875 2.325-2.4-5.55-5.475z" opacity=".29" fill="#f09f54" fill-rule="nonzero"/><path d="M200.1 64.275l-.15-11.25-7.5.075c-.45-1.425-.975-2.7-1.725-3.975l5.25-5.4-8.025-7.875-5.25 5.4a18.91 18.91 0 00-4.05-1.575l-.075-7.5-11.25.15.075 7.5c-1.425.45-2.7.975-3.975 1.725l-5.4-5.25-7.875 8.025 5.4 5.25a18.91 18.91 0 00-1.575 4.05l-7.5.075.15 11.25 7.5-.075c.45 1.425.975 2.7 1.725 3.975l-5.25 5.4 8.025 7.875 5.25-5.4a18.91 18.91 0 004.05 1.575l.075 7.5 11.25-.15-.075-7.5c1.425-.45 2.7-.975 3.975-1.725l5.4 5.25 7.875-8.025-5.4-5.25a18.91 18.91 0 001.575-4.05l7.5-.075zm-26.625 3.45c-4.875.075-8.775-3.825-8.85-8.7-.075-4.875 3.825-8.775 8.7-8.85 4.875-.075 8.775 3.825 8.85 8.7 0 4.875-3.9 8.775-8.7 8.85z" fill="none" stroke="#444e59" stroke-width="3"/><path d="M153.225 226.5H60.45a5.537 5.537 0 01-5.55-5.55V157.5a5.537 5.537 0 015.55-5.55h92.85a5.537 5.537 0 015.55 5.55v63.45c-.075 3.075-2.55 5.55-5.625 5.55z" fill="#444e59" fill-rule="nonzero"/><path d="M158.85 164.025H54.9V157.5a5.537 5.537 0 015.55-5.55h92.85a5.537 5.537 0 015.55 5.55v6.525z" fill="#bcbcbc" fill-rule="nonzero"/><path d="M153.225 226.5H60.45a5.537 5.537 0 01-5.55-5.55V157.5a5.537 5.537 0 015.55-5.55h92.85a5.537 5.537 0 015.55 5.55v63.45c-.075 3.075-2.55 5.55-5.625 5.55z" fill="none" stroke="#444e59" stroke-width="3"/><path d="M153.225 226.5H60.45a5.537 5.537 0 01-5.55-5.55V157.5a5.537 5.537 0 015.55-5.55h92.85a5.537 5.537 0 015.55 5.55v63.45c-.075 3.075-2.55 5.55-5.625 5.55z" fill="none" stroke="#444e59" stroke-width="3"/><path d="M158.85 164.025H54.9V157.5a5.537 5.537 0 015.55-5.55h92.85a5.537 5.537 0 015.55 5.55v6.525z" fill="none" stroke="#444e59" stroke-width="3"/><g fill="none" stroke-width="3"><path d="M69.225 216.975h11.7m-19.95 0h.825m7.425-6.45H98.85m-37.875 0h.825" stroke="#fff"/><path d="M112.95 204h8.1" stroke="#64bdff"/><path d="M90.9 204h15" stroke="#fff"/><path d="M69.225 204h14.85" stroke="#ff5f5f"/><path d="M60.975 204h.825m32.4-6.45h36.15" stroke="#fff"/><path d="M69.225 197.55h18.9" stroke="#64bdff"/><path d="M60.975 197.55h.825" stroke="#fff"/><path d="M94.2 191.1h13.5" stroke="#ff5f5f"/><path d="M69.225 191.1h18.9" stroke="#ffbe78"/><path d="M60.975 191.1h.825" stroke="#fff"/><path d="M96.825 184.65h3.675" stroke="#64bdff"/><path d="M82.575 184.65H90.9" stroke="#ff5f5f"/><path d="M69.225 184.65h6.9" stroke="#c383f2"/><path d="M60.975 184.65h.825" stroke="#fff"/><path d="M123.825 178.125h6.525" stroke="#64bdff"/><path d="M90 178.125h25.575" stroke="#ff5f5f"/><path d="M69.225 178.125H84.45" stroke="#ffbe78"/><path d="M60.975 178.125h.825" stroke="#fff"/><g><path d="M107.7 171.675h13.35" stroke="#ffbe78"/><path d="M90.9 171.675h10.35" stroke="#6dbf7b"/><path d="M79.65 171.675h5.85" stroke="#ffbe78"/><path d="M69.225 171.675h4.8" stroke="#6dbf7b"/><path d="M60.975 171.675h.825" stroke="#fff"/></g></g><circle cx="65.175" cy="158.025" r="1.875" fill="#e7534e"/><circle cx="71.925" cy="158.025" r="1.875" fill="#444e59"/><circle cx="78.75" cy="158.025" r="1.875" fill="#444e59"/><path d="M190.2 170.625H123c-3.3 0-6-2.7-6-6V103.95c0-3.3 2.7-6 6-6h67.2c3.3 0 6 2.7 6 6v60.675c0 3.3-2.7 6-6 6z" fill="#fff" fill-rule="nonzero"/><path d="M190.2 170.625H123c-3.3 0-6-2.7-6-6V103.95c0-3.3 2.7-6 6-6h67.2c3.3 0 6 2.7 6 6v60.675c0 3.3-2.7 6-6 6z" fill="#fff" fill-rule="nonzero"/><path d="M190.2 170.625H123c-3.3 0-6-2.7-6-6V103.95c0-3.3 2.7-6 6-6h67.2c3.3 0 6 2.7 6 6v60.675c0 3.3-2.7 6-6 6z" fill="none" stroke="#444e59" stroke-width="3"/><path fill="#9483c4" d="M123.825 104.1h65.1v43.275h-65.1z"/><path fill="none" stroke="#444e59" stroke-width="3" d="M123.825 104.1h65.1v43.275h-65.1zm0 50.175h41.1m-41.1 6.9h24.3"/><path d="M130.35 139.65l14.025-13.875 13.05 13.05m24.45.825l-16.95-22.125-13.575 15.15" fill="none" stroke="#444e59" stroke-width="3"/><circle cx="181.725" cy="157.425" r="3.675" fill="none" stroke="#444e59" stroke-width="3"/><circle cx="148.5" cy="117.525" r="4.65" fill="#f09f54"/><circle cx="148.5" cy="117.525" r="4.65" fill="none" stroke="#444e59" stroke-width="3"/><path d="M355.5 78.975h-58.65c-3.6 0-6.45-2.925-6.45-6.45V44.1c0-3.6 2.925-6.45 6.45-6.45h58.65c3.6 0 6.45 2.925 6.45 6.45v28.35c0 3.6-2.85 6.525-6.45 6.525z" fill="#2fa9ed" fill-rule="nonzero"/><path d="M355.5 78.975h-58.65c-3.6 0-6.45-2.925-6.45-6.45V44.1c0-3.6 2.925-6.45 6.45-6.45h58.65c3.6 0 6.45 2.925 6.45 6.45v28.35c0 3.6-2.85 6.525-6.45 6.525z" fill="none" stroke="#444e59" stroke-width="2.25"/><path d="M326.175 48.75h25.35m-25.35 8.175h16.8" fill="none" stroke="#fff" stroke-opacity=".56" stroke-width="2.25"/><g opacity=".56"><path d="M338.925 69.15h-10.2a2.497 2.497 0 01-2.475-2.475 2.497 2.497 0 012.475-2.475h10.2a2.497 2.497 0 012.475 2.475c0 1.35-1.05 2.475-2.475 2.475z" fill="#fff" fill-rule="nonzero"/><path d="M338.925 69.15h-10.2a2.497 2.497 0 01-2.475-2.475 2.497 2.497 0 012.475-2.475h10.2a2.497 2.497 0 012.475 2.475c0 1.35-1.05 2.475-2.475 2.475z" fill="none" stroke="#fff" stroke-width="2.25"/></g><g fill="none" stroke="#fff" stroke-width="2.25"><path d="M315.6 69.525h-13.425a3.44 3.44 0 01-3.45-3.45V50.4a3.44 3.44 0 013.45-3.45H315.6a3.44 3.44 0 013.45 3.45v15.675a3.44 3.44 0 01-3.45 3.45z"/><circle cx="308.925" cy="55.65" r="3.6"/><path d="M302.1 69.15c0-3.75 3.075-6.825 6.825-6.825s6.825 3.075 6.825 6.825"/></g></svg>