<?xml version="1.0" encoding="UTF-8" standalone="no"?><!DOCTYPE svg PUBLIC "-//W3C//DTD SVG 1.1//EN" "http://www.w3.org/Graphics/SVG/1.1/DTD/svg11.dtd"><svg width="100%" height="100%" viewBox="0 0 825 459" version="1.1" xmlns="http://www.w3.org/2000/svg" xmlns:xlink="http://www.w3.org/1999/xlink" xml:space="preserve" xmlns:serif="http://www.serif.com/" style="fill-rule:evenodd;clip-rule:evenodd;stroke-linecap:round;stroke-linejoin:round;stroke-miterlimit:10;"><g><ellipse id="XMLID_2_" cx="217.77" cy="443.4" rx="91.125" ry="8.55" style="fill:#525456;"/><ellipse id="XMLID_4_" cx="623.67" cy="449.7" rx="91.125" ry="8.55" style="fill:#525456;"/><g id="XMLID_90_"><g id="XMLID_319_"><path id="XMLID_322_" d="M258.195,244.95l-17.7,-8.25c-1.125,-0.525 -1.65,-1.875 -1.125,-3c0.525,-1.125 1.875,-1.65 3,-1.125l17.7,8.25c1.125,0.525 1.65,1.875 1.125,3c-0.525,1.125 -1.875,1.65 -3,1.125Z" style="fill:#a9a8a9;fill-rule:nonzero;"/><path id="XMLID_321_" d="M260.145,240.825l-17.7,-8.25c-1.125,-0.525 -1.65,-1.875 -1.125,-3c0.525,-1.125 1.875,-1.65 3,-1.125l17.7,8.25c1.125,0.525 1.65,1.875 1.125,3c-0.525,1.2 -1.875,1.65 -3,1.125Z" style="fill:#a9a8a9;fill-rule:nonzero;"/><path id="XMLID_320_" d="M262.02,236.775l-17.7,-8.25c-1.125,-0.525 -1.65,-1.875 -1.125,-3c0.525,-1.125 1.875,-1.65 3,-1.125l17.7,8.25c1.125,0.525 1.65,1.875 1.125,3c-0.525,1.2 -1.875,1.65 -3,1.125Z" style="fill:#a9a8a9;fill-rule:nonzero;"/></g></g><path id="XMLID_55_" d="M463.095,233.55l7.725,15.15c2.325,4.575 -1.125,9.975 -6.3,9.675l-14.475,-0.75l13.05,-24.075Z" style="fill:#23d497;fill-rule:nonzero;"/><path id="XMLID_186_" d="M504.143,304.507l-14.159,8.175l5.55,9.612l14.159,-8.175l-5.55,-9.612Z" style="fill:#191919;"/><path id="XMLID_54_" d="M504.143,304.507l-14.159,8.175l5.55,9.612l14.159,-8.175l-5.55,-9.612Z" style="fill:none;stroke:#151515;stroke-width:3px;"/><path id="XMLID_52_" d="M463.095,233.55l7.725,15.15c2.325,4.575 -1.125,9.975 -6.3,9.675l-14.475,-0.75l13.05,-24.075Z" style="fill:none;fill-rule:nonzero;stroke:#151515;stroke-width:3px;"/><path id="XMLID_143_" d="M447.195,225.375l88.725,-114.075l14.025,2.4l-88.65,124.275l-14.1,-12.6Z" style="fill:#242424;fill-rule:nonzero;"/><path id="XMLID_264_" d="M543.57,112.575l-86.7,121.425l4.425,3.975l88.65,-124.275l-6.375,-1.125Z" style="fill:#1a1a1a;fill-rule:nonzero;"/><path id="XMLID_188_" d="M529.695,119.25l10.8,5.625l3.375,-7.95l-5.025,-4.35l-9.15,6.675Z" style="fill:#1a1a1a;fill-rule:nonzero;"/><path id="XMLID_41_" d="M447.195,225.375l88.725,-114.075l14.025,2.4l-88.65,124.275l-14.1,-12.6Z" style="fill:none;fill-rule:nonzero;stroke:#151515;stroke-width:3px;"/><path id="XMLID_63_" d="M591.27,93.15l-0.75,0.15c-16.2,2.925 -32.625,3.525 -48.975,1.875l-26.325,-1.5c-4.95,-0.3 -9.75,1.95 -12.975,6.075l-6.15,8.025c-0.825,1.125 -0.3,2.775 0.975,3.075c-0,-0 31.125,0.375 58.8,13.125c2.625,1.2 5.625,1.275 8.25,-0.15c9.525,-5.1 31.5,-17.1 31.5,-17.1c2.7,-1.5 4.2,-4.8 3.45,-8.175c-0.825,-3.75 -4.275,-6.075 -7.8,-5.4Z" style="fill:#191919;fill-rule:nonzero;"/><path id="XMLID_334_" d="M497.07,110.775l1.275,-0l3.975,-5.1c3.225,-4.125 7.95,-6.375 12.975,-6.075l29.925,5.1c16.35,1.725 26.775,0.375 45.3,-5.475l0.75,-0.15c3.075,-0.525 6.15,1.125 7.425,4.125c0.6,-1.425 0.75,-3.075 0.375,-4.725c-0.825,-3.75 -4.275,-6 -7.8,-5.4l-0.75,0.15c-16.2,2.925 -32.625,3.525 -48.975,1.875l-26.325,-1.5c-4.95,-0.3 -9.75,1.95 -12.975,6.075l-6.15,8.025c-0.825,1.125 -0.3,2.775 0.975,3.075Z" style="fill:#242424;fill-rule:nonzero;"/><path id="XMLID_47_" d="M591.27,93.15l-0.75,0.15c-16.2,2.925 -32.625,3.525 -48.975,1.875l-26.325,-1.5c-4.95,-0.3 -9.75,1.95 -12.975,6.075l-6.15,8.025c-0.825,1.125 -0.3,2.775 0.975,3.075c-0,-0 31.125,0.375 58.8,13.125c2.625,1.2 5.625,1.275 8.25,-0.15c9.525,-5.1 31.5,-17.1 31.5,-17.1c2.7,-1.5 4.2,-4.8 3.45,-8.175c-0.825,-3.75 -4.275,-6.075 -7.8,-5.4Z" style="fill:none;fill-rule:nonzero;stroke:#151515;stroke-width:3px;"/><path id="XMLID_122_" d="M258.195,258.675c3.45,-7.575 -0.3,-13.5 -7.8,-17.1l-0.075,-0.075c-0,-0 -1.875,-0.825 -2.1,-0.9c-7.8,-3.825 -15.075,-1.275 -18.675,6.75c-16.125,35.85 -29.25,72.975 -39.15,111c5.325,1.35 10.65,2.775 15.975,4.125c7.8,-30 17.625,-59.325 29.4,-87.975c1.575,-3.825 5.175,-6.375 9.15,-6.45c5.925,0 10.725,-3.75 13.275,-9.375Z" style="fill:#242424;fill-rule:nonzero;"/><path id="XMLID_179_" d="M205.245,324.9l27.375,-71.775" style="fill:none;fill-rule:nonzero;stroke:#fff;stroke-opacity:0.46;stroke-width:1.5px;"/><path id="XMLID_257_" d="M257.145,246.675c-0.15,1.35 -0.525,2.775 -1.2,4.275c-2.55,5.625 -7.35,9.3 -13.2,9.375c-3.975,0.075 -7.65,2.625 -9.15,6.45c-11.775,28.575 -21.6,57.975 -29.4,87.975c-3.975,-1.05 -7.95,-2.1 -11.925,-3.075c-0.6,2.25 -1.2,4.425 -1.8,6.675c5.325,1.35 10.65,2.775 15.975,4.125c7.8,-30 17.625,-59.325 29.4,-87.975c1.575,-3.825 5.175,-6.375 9.15,-6.45c5.85,-0.075 10.65,-3.75 13.2,-9.375c2.1,-4.65 1.5,-8.7 -1.05,-12Z" style="fill:#191919;fill-opacity:0.92;fill-rule:nonzero;"/><path id="XMLID_36_" d="M258.195,258.675c3.45,-7.575 -0.3,-13.5 -7.8,-17.1l-0.075,-0.075c-0,-0 -1.875,-0.825 -2.1,-0.9c-7.8,-3.825 -15.075,-1.275 -18.675,6.75c-16.125,35.85 -29.25,72.975 -39.15,111c5.325,1.35 10.65,2.775 15.975,4.125c7.8,-30 17.625,-59.325 29.4,-87.975c1.575,-3.825 5.175,-6.375 9.15,-6.45c5.925,0 10.725,-3.75 13.275,-9.375Z" style="fill:none;fill-rule:nonzero;stroke:#151515;stroke-width:3px;"/><path id="XMLID_20_" d="M599.97,378.075l-177,-0.375c-17.25,-0.375 -30.525,-15.375 -28.8,-32.55c1.725,-17.175 17.775,-29.175 34.725,-26.1l174.45,25.35l-3.375,33.675Z" style="fill:#25ba81;fill-rule:nonzero;"/><path id="XMLID_313_" d="M433.695,329.7l165.675,18.675" style="fill:none;fill-rule:nonzero;stroke:#151515;stroke-width:2.25px;"/><path id="XMLID_231_" d="M443.22,359.175c-17.25,-0.375 -30.525,-15.375 -28.8,-32.55c0.225,-2.475 0.825,-4.8 1.575,-6.975c-11.475,3.075 -20.55,12.9 -21.825,25.575c-1.725,17.175 11.55,32.175 28.8,32.55l177,0.375l1.875,-18.6l-158.625,-0.375Z" style="fill:#31fe9f;fill-rule:nonzero;"/><g id="XMLID_348_"><g id="XMLID_401_"><g id="XMLID_404_"><path id="XMLID_405_" d="M415.17,322.575c0.225,-0.975 0.525,-1.95 0.9,-2.925c-0.3,0.075 -0.675,0.15 -0.975,0.3c-0,0.825 -0,1.725 0.075,2.625Z" style="fill:#23d497;fill-rule:nonzero;"/></g><g id="XMLID_402_"><path id="XMLID_403_" d="M600.795,368.55l-177,-0.375c-15.375,-0.3 -27.6,-12.3 -28.8,-27.075c-0.3,1.35 -0.6,2.7 -0.75,4.125c-1.725,17.175 11.55,32.175 28.8,32.55l177,0.375l1.875,-18.6l-0.225,0l-0.9,9Z" style="fill:#23d497;fill-rule:nonzero;"/></g></g></g><path id="XMLID_125_" d="M443.22,359.175c-17.25,-0.375 -30.525,-15.375 -28.8,-32.55c0.225,-2.475 0.825,-4.8 1.575,-6.975c-11.475,3.075 -20.55,12.9 -21.825,25.575c-1.725,17.175 11.55,32.175 28.8,32.55l177,0.375l1.875,-18.6l-158.625,-0.375Z" style="fill:none;fill-rule:nonzero;stroke:#151515;stroke-width:3px;"/><path id="XMLID_38_" d="M599.97,378.075l-177,-0.375c-17.25,-0.375 -30.525,-15.375 -28.8,-32.55c1.725,-17.175 17.775,-29.175 34.725,-26.1l174.45,25.35l-3.375,33.675Z" style="fill:none;fill-rule:nonzero;stroke:#151515;stroke-width:3px;"/><g id="XMLID_34_"><g id="XMLID_139_"><path id="XMLID_142_" d="M258.195,244.95l-17.7,-8.25c-1.125,-0.525 -1.65,-1.875 -1.125,-3c0.525,-1.125 1.875,-1.65 3,-1.125l17.7,8.25c1.125,0.525 1.65,1.875 1.125,3c-0.525,1.125 -1.875,1.65 -3,1.125Z" style="fill:none;fill-rule:nonzero;stroke:#151515;stroke-width:3px;"/><path id="XMLID_141_" d="M260.145,240.825l-17.7,-8.25c-1.125,-0.525 -1.65,-1.875 -1.125,-3c0.525,-1.125 1.875,-1.65 3,-1.125l17.7,8.25c1.125,0.525 1.65,1.875 1.125,3c-0.525,1.2 -1.875,1.65 -3,1.125Z" style="fill:none;fill-rule:nonzero;stroke:#151515;stroke-width:3px;"/><path id="XMLID_140_" d="M262.02,236.775l-17.7,-8.25c-1.125,-0.525 -1.65,-1.875 -1.125,-3c0.525,-1.125 1.875,-1.65 3,-1.125l17.7,8.25c1.125,0.525 1.65,1.875 1.125,3c-0.525,1.2 -1.875,1.65 -3,1.125Z" style="fill:none;fill-rule:nonzero;stroke:#151515;stroke-width:3px;"/></g></g><path id="XMLID_30_" d="M264.42,232.8l-18.45,-8.625c-1.275,-0.6 -1.875,-2.1 -1.275,-3.45l32.7,-70.125c0.6,-1.275 2.1,-1.875 3.45,-1.275l18.45,8.625c1.275,0.6 1.875,2.1 1.275,3.45l-32.7,70.2c-0.6,1.275 -2.175,1.8 -3.45,1.2Z" style="fill:#31fe9f;fill-rule:nonzero;"/><path id="XMLID_281_" d="M299.295,158.025l-18.45,-8.625c-0.15,-0.075 -0.3,-0.15 -0.525,-0.15l10.875,5.1c1.275,0.6 1.875,2.1 1.275,3.45l-32.7,70.125c-0.525,1.125 -1.725,1.725 -2.925,1.425l7.575,3.525c1.275,0.6 2.85,0.075 3.45,-1.275l32.7,-70.125c0.6,-1.275 -0,-2.85 -1.275,-3.45Z" style="fill:#23d497;fill-rule:nonzero;"/><path id="XMLID_40_" d="M264.42,232.8l-18.45,-8.625c-1.275,-0.6 -1.875,-2.1 -1.275,-3.45l32.7,-70.125c0.6,-1.275 2.1,-1.875 3.45,-1.275l18.45,8.625c1.275,0.6 1.875,2.1 1.275,3.45l-32.7,70.2c-0.6,1.275 -2.175,1.8 -3.45,1.2Z" style="fill:none;fill-rule:nonzero;stroke:#151515;stroke-width:3px;"/><path id="XMLID_29_" d="M439.47,337.65c-1.275,-6.75 -1.95,-13.725 -1.95,-20.85c-0,-41.775 31.05,-85.95 31.05,-85.95l-17.775,-14.55l-15.6,15.75c-10.65,11.775 -30.675,13.95 -44.55,6.3l-105.075,-47.175l-14.325,29.175l84.45,49.2c26.925,18.15 43.575,48.15 44.55,80.625l0.15,2.475c0.75,11.475 10.8,20.025 22.2,19.05c11.775,-1.05 20.175,-11.775 18.45,-23.475l-1.575,-10.575Z" style="fill:#31fe9f;fill-rule:nonzero;"/><g id="XMLID_296_"><g id="XMLID_349_"><g id="XMLID_350_"><path id="XMLID_351_" d="M410.82,352.2l-5.325,-2.775c-1.125,-36.525 2.775,-66.15 -42.6,-93.15l-87.6,-44.1l-3.975,8.175l84.45,49.2c26.925,18.15 41.85,42.975 44.25,75.225l1.8,1.275c0.525,8.25 5.85,15 13.125,17.775c-2.4,-3.3 -3.9,-7.275 -4.125,-11.625Z" style="fill:#23d497;fill-rule:nonzero;"/></g></g></g><g id="XMLID_293_"><g id="XMLID_359_"><g id="XMLID_362_"><path id="XMLID_363_" d="M439.47,337.65c-1.275,-6.75 -1.95,-13.725 -1.95,-20.85c-0,-41.775 31.05,-85.95 31.05,-85.95l-3.975,-3.225c-3,4.425 -39,44.475 -39,83.925c-0,7.125 -5.925,19.35 -4.65,26.1l12.225,3.45c1.8,11.7 -6.675,22.425 -18.45,23.475c-3.975,0.375 -7.725,-0.45 -11.025,-2.1c3.975,6.075 11.175,9.9 18.9,9.15c11.775,-1.05 20.175,-11.775 18.45,-23.475l-1.575,-10.5Z" style="fill:#23d497;fill-rule:nonzero;"/></g><g id="XMLID_360_"><path id="XMLID_361_" d="M347.745,262.5l-75.6,-44.025l-0.9,1.95l84.45,49.2c2.4,1.575 4.65,3.3 6.825,5.025c-4.5,-4.5 -9.375,-8.55 -14.775,-12.15Z" style="fill:#23d497;fill-rule:nonzero;"/></g></g></g><g id="XMLID_271_" opacity="0.83"><g id="XMLID_381_"><g id="XMLID_384_"><path id="XMLID_385_" d="M397.545,329.7c1.575,6.675 2.55,13.5 2.775,20.475l0.15,2.475c0.3,4.65 2.175,8.85 5.025,12.15c-0.75,-12.225 -3.525,-24 -7.95,-35.1Z" style="fill:#86fcbe;fill-rule:nonzero;"/></g><g id="XMLID_382_"><path id="XMLID_383_" d="M395.07,245.4c15.225,8.4 34.275,3.225 45.975,-9.675l13.5,-16.425l-3.75,-3.075l-15.6,15.75c-10.65,11.775 -30.675,13.95 -44.55,6.3l-105.075,-47.175l-2.1,4.2l111.6,50.1Z" style="fill:#86fcbe;fill-rule:nonzero;"/></g></g></g><path id="XMLID_182_" d="M280.47,222.375l13.275,-27.6l-11.1,-4.875l-13.8,27.975l11.625,4.5Z" style="fill:#23d497;fill-rule:nonzero;"/><path id="XMLID_45_" d="M439.47,337.65c-1.275,-6.75 -1.95,-13.725 -1.95,-20.85c-0,-41.775 31.05,-85.95 31.05,-85.95l-17.775,-14.55l-15.6,15.75c-10.65,11.775 -30.675,13.95 -44.55,6.3l-105.075,-47.175l-14.325,29.175l84.45,49.2c26.925,18.15 43.575,48.15 44.55,80.625l0.15,2.475c0.75,11.475 10.8,20.025 22.2,19.05c11.775,-1.05 20.175,-11.775 18.45,-23.475l-1.575,-10.575Z" style="fill:none;fill-rule:nonzero;stroke:#151515;stroke-width:3px;"/><path id="XMLID_33_" d="M306.495,122.775l18.975,-107.625l-17.175,-3l-20.55,116.7l-0.525,2.925c-0.6,3.45 0.9,6.825 3.6,8.025l12.375,5.475c2.85,1.275 5.85,-2.1 5.025,-5.55c-1.35,-5.475 -2.55,-12.15 -1.725,-16.95Z" style="fill:#242424;fill-rule:nonzero;"/><path id="XMLID_203_" d="M306.495,122.775l18.975,-107.625l-17.175,-3l-0.6,3.525l10.725,1.875l-19.05,107.55c-0.825,4.8 0.3,11.475 1.65,16.875c0.225,0.75 0.15,1.575 -0,2.25l2.1,0.9c2.85,1.275 5.85,-2.1 5.025,-5.55c-1.275,-5.325 -2.475,-12 -1.65,-16.8Z" style="fill:#1a1a1a;fill-rule:nonzero;"/><path id="XMLID_48_" d="M306.495,122.775l18.975,-107.625l-17.175,-3l-20.55,116.7l-0.525,2.925c-0.6,3.45 0.9,6.825 3.6,8.025l12.375,5.475c2.85,1.275 5.85,-2.1 5.025,-5.55c-1.35,-5.475 -2.55,-12.15 -1.725,-16.95Z" style="fill:none;fill-rule:nonzero;stroke:#151515;stroke-width:3px;"/><path id="XMLID_39_" d="M299.295,158.25l-16.725,-6.75c-3.45,-1.425 -5.1,-5.325 -3.75,-8.775c1.425,-3.45 5.325,-5.1 8.775,-3.75l16.725,6.75c3.45,1.425 5.1,5.325 3.75,8.775c-1.35,3.45 -5.325,5.1 -8.775,3.75Z" style="fill:#242424;fill-rule:nonzero;"/><path id="XMLID_206_" d="M304.395,145.725l-5.85,-2.4c1.8,1.875 2.475,4.725 1.425,7.275c-1.425,3.45 -5.325,5.1 -8.775,3.75l-10.8,-4.35c0.6,0.6 1.425,1.125 2.25,1.5l16.725,6.75c3.45,1.425 7.425,-0.3 8.775,-3.75c1.35,-3.45 -0.3,-7.425 -3.75,-8.775Z" style="fill:#1a1a1a;fill-rule:nonzero;"/><path id="XMLID_42_" d="M299.295,158.25l-16.725,-6.75c-3.45,-1.425 -5.1,-5.325 -3.75,-8.775c1.425,-3.45 5.325,-5.1 8.775,-3.75l16.725,6.75c3.45,1.425 5.1,5.325 3.75,8.775c-1.35,3.45 -5.325,5.1 -8.775,3.75Z" style="fill:none;fill-rule:nonzero;stroke:#151515;stroke-width:3px;"/><path id="XMLID_228_" d="M310.649,7.642c4.678,-2.487 11.158,0.539 14.461,6.752c3.303,6.214 2.187,13.278 -2.492,15.765c-4.678,2.487 -11.158,-0.539 -14.461,-6.752c-3.303,-6.214 -2.187,-13.278 2.492,-15.765Z" style="fill:#151515;"/><path id="XMLID_44_" d="M310.655,7.191c4.679,-2.488 11.159,0.538 14.462,6.752c3.303,6.213 2.186,13.277 -2.492,15.764c-4.679,2.487 -11.159,-0.538 -14.462,-6.752c-3.303,-6.214 -2.186,-13.277 2.492,-15.764Z" style="fill:none;stroke:#151515;stroke-width:3px;"/><path id="XMLID_51_" d="M489.27,273.975c-1.5,-2.4 -3.225,-4.65 -5.25,-6.6c-3.9,-3.825 -7.725,-7.65 -11.55,-11.475l0.075,0l-2.925,-5.025c-1.425,-2.475 -4.575,-3.3 -6.975,-1.875c-2.475,1.425 -3.3,4.575 -1.875,6.975l2.925,5.025l0.075,0c1.425,5.25 2.775,10.5 4.2,15.75c0.675,2.7 1.725,5.4 3.15,7.875c6.45,11.775 5.475,9.45 13.95,22.125l16.575,-9.525c-6.975,-13.725 -5.4,-11.7 -12.375,-23.25Z" style="fill:#31fe9f;fill-rule:nonzero;"/><path id="XMLID_325_" d="M465.195,253.725l2.925,5.025l-0.075,0c3.825,3.825 7.65,7.65 11.55,11.475c2.025,1.95 3.75,4.2 5.25,6.6c6.9,11.4 5.475,9.525 12.075,22.875l4.5,-2.625c-6.75,-13.65 -5.25,-11.625 -12.225,-23.1c-1.5,-2.4 -3.225,-4.65 -5.25,-6.6c-3.9,-3.825 -7.725,-7.65 -11.55,-11.475l0.075,0l-2.925,-5.025c-1.425,-2.475 -4.575,-3.3 -6.975,-1.875c-0.9,0.525 -1.65,1.275 -2.025,2.175c1.875,-0.075 3.675,0.825 4.65,2.55Z" style="fill:#23d497;fill-opacity:0.95;fill-rule:nonzero;"/><path id="XMLID_117_" d="M489.27,273.975c-1.5,-2.4 -3.225,-4.65 -5.25,-6.6c-3.9,-3.825 -7.725,-7.65 -11.55,-11.475l0.075,0l-2.925,-5.025c-1.425,-2.475 -4.575,-3.3 -6.975,-1.875c-2.475,1.425 -3.3,4.575 -1.875,6.975l2.925,5.025l0.075,0c1.425,5.25 2.775,10.5 4.2,15.75c0.675,2.7 1.725,5.4 3.15,7.875c6.45,11.775 5.475,9.45 13.95,22.125l16.575,-9.525c-6.975,-13.725 -5.4,-11.7 -12.375,-23.25Z" style="fill:none;fill-rule:nonzero;stroke:#151515;stroke-width:3px;"/><path id="XMLID_181_" d="M505.62,307.2c-4.2,3.45 -8.925,6.225 -14.025,8.1c-2.4,0.75 -5.475,-0.525 -6.675,-2.55c-1.2,-2.025 -0.75,-5.325 1.125,-7.05c4.2,-3.45 8.925,-6.225 14.025,-8.1c2.4,-0.75 5.475,0.525 6.675,2.55c1.125,2.025 0.75,5.325 -1.125,7.05Z" style="fill:#1fcc8a;fill-rule:nonzero;"/><path id="XMLID_53_" d="M505.62,307.2c-4.2,3.45 -8.925,6.225 -14.025,8.1c-2.4,0.75 -5.475,-0.525 -6.675,-2.55c-1.2,-2.025 -0.75,-5.325 1.125,-7.05c4.2,-3.45 8.925,-6.225 14.025,-8.1c2.4,-0.75 5.475,0.525 6.675,2.55c1.125,2.025 0.75,5.325 -1.125,7.05Z" style="fill:none;fill-rule:nonzero;stroke:#151515;stroke-width:3px;"/><path id="XMLID_126_" d="M499.77,328.65c-0.225,0.9 -0.375,1.8 -0.375,2.775c-0,5.85 4.725,10.575 10.575,10.575c5.775,0 10.425,-4.575 10.575,-10.35l-20.775,-3Z" style="fill:#191919;fill-rule:nonzero;"/><path id="XMLID_61_" d="M499.77,328.65c-0.225,0.9 -0.375,1.8 -0.375,2.775c-0,5.85 4.725,10.575 10.575,10.575c5.775,0 10.425,-4.575 10.575,-10.35l-20.775,-3Z" style="fill:none;fill-rule:nonzero;stroke:#151515;stroke-width:3px;"/><circle id="XMLID_57_" cx="420.945" cy="350.4" r="21.675" style="fill:#242424;"/><circle id="XMLID_58_" cx="420.945" cy="350.4" r="21.675" style="fill:none;stroke:#151515;stroke-width:3px;"/><circle id="XMLID_279_" cx="420.945" cy="350.4" r="21.675" style="fill:none;stroke:#151515;stroke-width:3px;"/><circle id="XMLID_83_" cx="420.945" cy="350.4" r="12.75" style="fill:#191919;fill-opacity:0.92;"/><path id="XMLID_127_" d="M512.745,335.25c-2.25,1.35 -5.175,0.525 -6.525,-1.725l-7.5,-13.05l8.25,-4.8l7.5,13.05c1.275,2.325 0.525,5.25 -1.725,6.525Z" style="fill:#191919;fill-rule:nonzero;"/><path id="XMLID_56_" d="M512.745,335.25c-2.25,1.35 -5.175,0.525 -6.525,-1.725l-7.5,-13.05l8.25,-4.8l7.5,13.05c1.275,2.325 0.525,5.25 -1.725,6.525Z" style="fill:none;fill-rule:nonzero;stroke:#151515;stroke-width:3px;"/><circle id="XMLID_128_" cx="510.795" cy="331.275" r="3.675" style="fill:none;stroke:#151515;stroke-width:3px;"/><circle id="XMLID_227_" cx="465.045" cy="253.125" r="3.15" style="fill:none;stroke:#151515;stroke-width:3px;"/><path id="XMLID_65_" d="M427.245,339.375c-0,-0 -4.5,-9.975 -1.05,-32.475c3.525,-22.5 7.425,-32.475 7.425,-32.475c-0,0 -5.325,1.425 -12.75,19.65c-7.425,18.375 -8.1,45.3 -8.1,45.3l14.475,0Z" style="fill:#191919;fill-rule:nonzero;"/><path id="XMLID_75_" d="M427.245,339.375c-0,-0 -4.5,-9.975 -1.05,-32.475c3.525,-22.5 7.425,-32.475 7.425,-32.475c-0,0 -5.325,1.425 -12.75,19.65c-6.75,16.725 -7.95,42.15 -8.1,46.5c-2.85,2.325 -4.65,5.85 -4.65,9.825c-0,7.05 5.7,12.75 12.75,12.75c7.05,0 12.75,-5.7 12.75,-12.75c0.075,-4.725 -2.55,-8.85 -6.375,-11.025Z" style="fill:none;fill-rule:nonzero;stroke:#151515;stroke-width:3px;"/><path id="XMLID_81_" d="M422.445,356.775l-64.8,-1.8c-1.8,-0.075 -3.3,-1.875 -3.3,-4.125c-0,-2.25 1.5,-4.125 3.3,-4.125l64.8,-1.8c1.875,-0.075 3.45,1.8 3.45,4.2l-0,3.675c0.075,2.175 -1.5,4.05 -3.45,3.975Z" style="fill:#242424;fill-rule:nonzero;"/><path id="XMLID_59_" d="M422.445,356.775l-64.8,-1.8c-1.8,-0.075 -3.3,-1.875 -3.3,-4.125c-0,-2.25 1.5,-4.125 3.3,-4.125l64.8,-1.8c1.875,-0.075 3.45,1.8 3.45,4.2l-0,3.675c0.075,2.175 -1.5,4.05 -3.45,3.975Z" style="fill:none;fill-rule:nonzero;stroke:#151515;stroke-width:3px;"/><path id="XMLID_124_" d="M417.795,350.775l8.175,-0" style="fill:none;fill-rule:nonzero;stroke:#151515;stroke-width:3px;"/><path id="XMLID_82_" d="M363.795,366.75l-0.3,-0c-2.775,-0 -5.1,-2.25 -5.1,-5.1l-0,-21.75c-0,-2.775 2.25,-5.1 5.1,-5.1l0.3,0c2.775,0 5.1,2.25 5.1,5.1l-0,21.75c-0,2.85 -2.325,5.1 -5.1,5.1Z" style="fill:#161616;fill-rule:nonzero;"/><path id="XMLID_60_" d="M363.795,366.75l-0.3,-0c-2.775,-0 -5.1,-2.25 -5.1,-5.1l-0,-21.75c-0,-2.775 2.25,-5.1 5.1,-5.1l0.3,0c2.775,0 5.1,2.25 5.1,5.1l-0,21.75c-0,2.85 -2.325,5.1 -5.1,5.1Z" style="fill:none;fill-rule:nonzero;stroke:#151515;stroke-width:3px;"/><path id="XMLID_77_" d="M492.345,167.25l12.675,9.3" style="fill:none;fill-rule:nonzero;stroke:#151515;stroke-width:3px;"/><path id="XMLID_78_" d="M505.02,177.675l4.35,3.075" style="fill:none;fill-rule:nonzero;stroke:#151515;stroke-width:4.5px;"/><path id="XMLID_205_" d="M502.32,163.2l29.175,-38.325" style="fill:none;fill-rule:nonzero;stroke:#fff;stroke-opacity:0.46;stroke-width:2.25px;"/><path id="XMLID_84_" d="M461.97,216.15l31.425,-41.55" style="fill:none;fill-rule:nonzero;stroke:#fff;stroke-opacity:0.46;stroke-width:2.25px;"/><path id="XMLID_49_" d="M292.096,27.932l-14.902,6.726l1.512,3.35l14.902,-6.727l-1.512,-3.349Z" style="fill:none;stroke:#151515;stroke-width:4.5px;"/><path id="XMLID_93_" d="M314.37,24.9l-19.2,8.625l-3.75,-8.325l19.125,-8.625c1.875,-0.825 4.125,-0 4.95,1.875l0.675,1.425c0.9,1.95 0.075,4.2 -1.8,5.025Z" style="fill:#151515;fill-rule:nonzero;"/><path id="XMLID_46_" d="M314.37,24.9l-19.2,8.625l-3.75,-8.325l19.125,-8.625c1.875,-0.825 4.125,-0 4.95,1.875l0.675,1.425c0.9,1.95 0.075,4.2 -1.8,5.025Z" style="fill:none;fill-rule:nonzero;stroke:#151515;stroke-width:3px;"/><ellipse id="XMLID_94_" cx="276.495" cy="37.35" rx="4.275" ry="4.35" style="fill:#5e5e5e;"/><ellipse id="XMLID_50_" cx="276.495" cy="37.35" rx="5.625" ry="5.7" style="fill:none;stroke:#151515;stroke-width:3px;"/><ellipse id="XMLID_89_" cx="276.495" cy="37.35" rx="5.625" ry="5.7" style="fill:#151515;"/><path id="XMLID_274_" d="M340.201,5.735l-17.704,7.992l1.759,3.896l17.704,-7.992l-1.759,-3.896Z" style="fill:none;stroke:#151515;stroke-width:5.25px;"/><ellipse id="XMLID_263_" cx="320.745" cy="14.475" rx="3.525" ry="3.6" style="fill:#5e5e5e;"/><ellipse id="XMLID_259_" cx="320.745" cy="14.475" rx="4.65" ry="4.725" style="fill:none;stroke:#151515;stroke-width:3px;"/><ellipse id="XMLID_240_" cx="320.745" cy="14.475" rx="4.65" ry="4.725" style="fill:#151515;"/><ellipse id="XMLID_282_" cx="340.695" cy="6.75" rx="6.675" ry="6.75" style="fill:#151515;"/><path id="XMLID_91_" d="M293.67,26.775l10.95,-5.025" style="fill:none;fill-rule:nonzero;stroke:#fff;stroke-opacity:0.46;stroke-width:1.5px;"/><path id="XMLID_92_" d="M329.97,11.7l2.325,-1.05" style="fill:none;fill-rule:nonzero;stroke:#fff;stroke-opacity:0.46;stroke-width:1.5px;"/><path id="XMLID_268_" d="M293.895,119.7l-0.975,5.7c-0,-0 -0.825,5.4 -0.3,8.25c0.525,2.85 2.85,3.675 2.85,3.675" style="fill:none;fill-rule:nonzero;stroke:#fff;stroke-opacity:0.46;stroke-width:1.5px;"/><path id="XMLID_230_" d="M308.595,33l-13.875,81" style="fill:none;fill-rule:nonzero;stroke:#fff;stroke-opacity:0.46;stroke-width:1.5px;"/><path id="XMLID_187_" d="M235.395,248.475c-0,0 2.25,-4.275 5.775,-4.275" style="fill:none;fill-rule:nonzero;stroke:#fff;stroke-opacity:0.46;stroke-width:1.5px;"/><path id="XMLID_195_" d="M286.02,142.35c-0,0 -2.325,0 -3.075,2.175c-0.3,1.05 -0.075,2.325 0.975,3.3" style="fill:none;fill-rule:nonzero;stroke:#fff;stroke-opacity:0.46;stroke-width:1.5px;"/><path id="XMLID_255_" d="M470.52,267.15c-0,0 1.5,7.125 2.625,10.35c1.125,3.15 11.025,18.9 11.025,18.9" style="fill:none;fill-rule:nonzero;stroke:#fff;stroke-opacity:0.5;stroke-width:2.25px;"/><path id="XMLID_297_" d="M488.745,310.8c-0,0 -0.45,-1.875 2.1,-3.9c1.425,-1.125 8.55,-5.325 8.55,-5.325" style="fill:none;fill-rule:nonzero;stroke:#fff;stroke-opacity:0.5;stroke-width:2.25px;"/><path id="XMLID_305_" d="M252.27,220.35l28.95,-61.65" style="fill:none;fill-rule:nonzero;stroke:#fff;stroke-opacity:0.46;stroke-width:1.5px;"/><path id="XMLID_301_" d="M312.42,11.7c-0,-0 1.5,-2.925 6,-1.875" style="fill:none;fill-rule:nonzero;stroke:#fff;stroke-opacity:0.46;stroke-width:1.5px;"/><g><g id="XMLID_123_"><circle id="XMLID_114_" cx="198.72" cy="353.775" r="24" style="fill:#242424;"/><circle id="XMLID_18_" cx="198.72" cy="353.775" r="24" style="fill:none;stroke:#151515;stroke-width:3px;"/><path id="XMLID_113_" d="M264.57,390l-42.675,-27.75c-6.825,-4.425 -7.35,-14.25 -1.05,-19.425l39.525,-32.025l-6.9,-8.55l-39.525,32.025c-6.3,5.1 -15.825,2.55 -18.75,-5.025l-18.225,-47.475l-10.275,3.975l18.225,47.55c2.925,7.575 -2.4,15.825 -10.575,16.275l-50.85,2.7l0.6,11.025l50.85,-2.7c8.175,-0.45 14.325,7.2 12.225,15.075l-13.2,49.2l10.65,2.85l13.2,-49.2c2.1,-7.875 11.325,-11.4 18.15,-6.975l42.675,27.75l5.925,-9.3Z" style="fill:#b7b7b7;fill-rule:nonzero;"/><path id="XMLID_5_" d="M177.645,422.7l12.375,-46.275c1.2,-4.575 0.3,-9.3 -2.55,-12.975c-2.85,-3.75 -7.2,-5.85 -11.85,-5.85l-0.825,0l-47.85,2.475l-0.225,-5.025l47.85,-2.475c4.875,-0.225 9.15,-2.7 11.775,-6.825c2.625,-4.05 3.15,-9 1.425,-13.575l-17.175,-44.7l4.65,-1.8l17.175,44.7c2.25,5.85 7.725,9.6 14.025,9.6c3.45,-0 6.675,-1.125 9.375,-3.375l37.2,-30.15l3.15,3.9l-37.2,30.15c-3.75,3.075 -5.775,7.575 -5.55,12.45c0.225,4.875 2.7,9.15 6.825,11.775l40.2,26.1l-2.7,4.2l-40.2,-26.1c-2.475,-1.575 -5.25,-2.4 -8.175,-2.4c-6.825,0 -12.75,4.575 -14.55,11.1l-12.375,46.275l-4.8,-1.2Z" style="fill:#a9a8a9;fill-rule:nonzero;"/><path id="XMLID_28_" d="M264.57,390l-42.675,-27.75c-6.825,-4.425 -7.35,-14.25 -1.05,-19.425l39.525,-32.025l-6.9,-8.55l-39.525,32.025c-6.3,5.1 -15.825,2.55 -18.75,-5.025l-18.225,-47.475l-10.275,3.975l18.225,47.55c2.925,7.575 -2.4,15.825 -10.575,16.275l-50.85,2.7l0.6,11.025l50.85,-2.7c8.175,-0.45 14.325,7.2 12.225,15.075l-13.2,49.2l10.65,2.85l13.2,-49.2c2.1,-7.875 11.325,-11.4 18.15,-6.975l42.675,27.75l5.925,-9.3Z" style="fill:none;fill-rule:nonzero;stroke:#151515;stroke-width:3px;"/><path id="XMLID_43_" d="M221.595,268.275c-47.1,-12.6 -95.775,15.45 -108.375,62.55c-12.6,47.1 15.45,95.775 62.55,108.375c47.1,12.6 95.775,-15.45 108.375,-62.55c12.675,-47.1 -15.375,-95.7 -62.55,-108.375Zm-42.3,157.95c-39.975,-10.725 -63.75,-51.825 -53.025,-91.875c10.725,-39.975 51.825,-63.75 91.875,-53.025c40.05,10.725 63.75,51.825 53.025,91.875c-10.725,39.975 -51.9,63.75 -91.875,53.025Z" style="fill:#242424;fill-rule:nonzero;"/><path id="XMLID_121_" d="M221.595,268.275c-47.1,-12.6 -95.775,15.45 -108.375,62.55c-12.6,47.1 15.45,95.775 62.55,108.375c47.1,12.6 95.775,-15.45 108.375,-62.55c12.675,-47.1 -15.375,-95.7 -62.55,-108.375Zm56.775,106.875c-9.675,36 -42.45,61.125 -79.725,61.125c-7.2,0 -14.325,-0.975 -21.3,-2.85c-21.225,-5.7 -39,-19.35 -50.025,-38.475c-11.025,-19.125 -13.95,-41.325 -8.25,-62.55c9.675,-36 42.45,-61.125 79.725,-61.125c7.2,0 14.325,0.975 21.3,2.85c21.225,5.7 39,19.35 50.025,38.475c11.025,19.125 13.95,41.25 8.25,62.55Z" style="fill:#191919;fill-opacity:0.92;fill-rule:nonzero;"/><circle id="XMLID_22_" cx="198.72" cy="353.775" r="75" style="fill:none;stroke:#151515;stroke-width:3px;"/><path id="XMLID_14_" d="M221.595,268.275c-47.1,-12.6 -95.775,15.45 -108.375,62.55c-12.6,47.1 15.45,95.775 62.55,108.375c47.1,12.6 95.775,-15.45 108.375,-62.55c12.675,-47.1 -15.375,-95.7 -62.55,-108.375Zm-42.3,157.95c-39.975,-10.725 -63.75,-51.825 -53.025,-91.875c10.725,-39.975 51.825,-63.75 91.875,-53.025c40.05,10.725 63.75,51.825 53.025,91.875c-10.725,39.975 -51.9,63.75 -91.875,53.025Z" style="fill:none;fill-rule:nonzero;stroke:#151515;stroke-width:3px;"/><circle id="XMLID_12_" cx="198.72" cy="353.775" r="88.5" style="fill:none;stroke:#151515;stroke-width:3px;"/><circle id="XMLID_16_" cx="198.72" cy="353.775" r="88.5" style="fill:none;stroke:#151515;stroke-width:4.5px;"/><path id="XMLID_13_" d="M218.07,281.325c-39.975,-10.725 -81.15,13.05 -91.875,53.025c-10.725,39.975 13.05,81.15 53.025,91.875c39.975,10.725 81.15,-13.05 91.875,-53.025c10.8,-40.05 -12.975,-81.15 -53.025,-91.875Zm48,90.525c-9.975,37.125 -48.3,59.25 -85.425,49.35c-37.125,-9.9 -59.25,-48.3 -49.35,-85.425c9.9,-37.125 48.3,-59.25 85.425,-49.35c37.2,9.975 59.325,48.225 49.35,85.425Z" style="fill:#a9a8a9;fill-rule:nonzero;"/><path id="XMLID_72_" d="M218.07,281.325c-39.975,-10.725 -81.15,13.05 -91.875,53.025c-10.725,39.975 13.05,81.15 53.025,91.875c39.975,10.725 81.15,-13.05 91.875,-53.025c10.8,-40.05 -12.975,-81.15 -53.025,-91.875Zm48,90.525c-9.975,37.125 -48.3,59.25 -85.425,49.35c-37.125,-9.9 -59.25,-48.3 -49.35,-85.425c9.9,-37.125 48.3,-59.25 85.425,-49.35c37.2,9.975 59.325,48.225 49.35,85.425Z" style="fill:none;fill-rule:nonzero;stroke:#151515;stroke-width:3px;"/><circle id="XMLID_115_" cx="198.72" cy="353.775" r="13.425" style="fill:#242424;"/><circle id="XMLID_1_" cx="198.72" cy="353.775" r="13.425" style="fill:none;stroke:#151515;stroke-width:2.25px;"/><path id="XMLID_116_" d="M207.645,356.175c-0.525,-3.15 0.6,-6.225 2.775,-8.325c-1.65,-3.225 -4.575,-5.775 -8.325,-6.825c-0.975,-0.3 -1.95,-0.375 -2.925,-0.45c-0,0.075 -0.075,0.15 -0.075,0.225c-1.725,4.65 -6.675,7.05 -11.325,5.625c-0.75,1.125 -1.35,2.4 -1.725,3.825c-0.9,3.375 -0.375,6.75 1.125,9.6c0.075,-0 0.15,-0.075 0.225,-0.075c4.875,-0.825 9.45,2.25 10.575,6.975c4.8,0.3 9.375,-2.1 11.925,-6.15c-1.125,-1.125 -1.95,-2.625 -2.25,-4.425Z" style="fill:#191919;fill-opacity:0.92;fill-rule:nonzero;"/><circle id="XMLID_118_" cx="198.72" cy="353.775" r="4.275" style="fill:#151515;"/><circle id="XMLID_15_" cx="198.72" cy="353.775" r="4.275" style="fill:none;stroke:#151515;stroke-width:3px;"/><path id="XMLID_21_" d="M207.645,356.175c-0.525,-3.15 0.6,-6.225 2.775,-8.325c-1.65,-3.225 -4.575,-5.775 -8.325,-6.825c-0.975,-0.3 -1.95,-0.375 -2.925,-0.45c-0,0.075 -0.075,0.15 -0.075,0.225c-1.725,4.65 -6.675,7.05 -11.325,5.625c-0.75,1.125 -1.35,2.4 -1.725,3.825c-0.9,3.375 -0.375,6.75 1.125,9.6c0.075,-0 0.15,-0.075 0.225,-0.075c4.875,-0.825 9.45,2.25 10.575,6.975c4.8,0.3 9.375,-2.1 11.925,-6.15c-1.125,-1.125 -1.95,-2.625 -2.25,-4.425Z" style="fill:none;fill-rule:nonzero;stroke:#151515;stroke-width:2.25px;"/></g><path id="XMLID_9_" d="M162.195,279.825c2.175,-1.05 4.425,-2.1 6.75,-2.925" style="fill:none;fill-rule:nonzero;stroke:#fff;stroke-opacity:0.67;stroke-width:1.5px;"/><path id="XMLID_3_" d="M118.995,332.4c5.25,-19.575 17.325,-35.925 33.225,-46.8" style="fill:none;fill-rule:nonzero;stroke:#fff;stroke-opacity:0.67;stroke-width:1.5px;"/></g><g><g id="XMLID_23_"><circle id="XMLID_198_" cx="610.245" cy="359.775" r="24" style="fill:#242424;"/><circle id="XMLID_197_" cx="610.245" cy="359.775" r="24" style="fill:none;stroke:#151515;stroke-width:3px;"/><path id="XMLID_194_" d="M685.095,367.35l-50.1,-8.85c-8.025,-1.425 -12.375,-10.275 -8.475,-17.475l23.925,-44.925l-9.75,-5.175l-23.925,44.925c-3.825,7.2 -13.575,8.55 -19.2,2.7l-35.4,-36.525l-7.95,7.65l35.4,36.6c5.7,5.85 3.975,15.525 -3.375,19.125l-45.75,22.35l4.8,9.9l45.75,-22.35c7.35,-3.6 15.975,1.05 17.175,9.15l7.05,50.4l10.875,-1.5l-7.05,-50.4c-1.125,-8.1 5.925,-14.925 13.95,-13.5l50.1,8.85l1.95,-10.95Z" style="fill:#b7b7b7;fill-rule:nonzero;"/><path id="XMLID_6_" d="M617.82,431.4l-6.675,-47.475c-0.6,-4.2 -2.85,-7.875 -6.375,-10.275c-3.45,-2.4 -7.8,-3.225 -11.85,-2.25c-1.125,0.225 -2.175,0.675 -3.225,1.125l-43.05,21l-2.175,-4.5l43.05,-21c4.35,-2.1 7.35,-6.075 8.175,-10.875c0.825,-4.8 -0.6,-9.525 -3.975,-13.05l-33.3,-34.425l3.6,-3.45l33.3,34.425c3.675,3.825 9,5.4 14.175,4.2c4.2,-0.975 7.8,-3.75 9.825,-7.575l22.5,-42.3l4.425,2.325l-22.5,42.3c-2.25,4.275 -2.4,9.225 -0.225,13.65c2.1,4.35 6.075,7.35 10.875,8.175l47.175,8.325l-0.9,4.95l-47.175,-8.325c-2.025,-0.375 -4.05,-0.3 -6,0.15c-7.65,1.725 -12.6,8.925 -11.475,16.725l6.675,47.475l-4.875,0.675Z" style="fill:#a9a8a9;fill-rule:nonzero;"/><path id="XMLID_193_" d="M685.095,367.35l-50.1,-8.85c-8.025,-1.425 -12.375,-10.275 -8.475,-17.475l23.925,-44.925l-9.75,-5.175l-23.925,44.925c-3.825,7.2 -13.575,8.55 -19.2,2.7l-35.4,-36.525l-7.95,7.65l35.4,36.6c5.7,5.85 3.975,15.525 -3.375,19.125l-45.75,22.35l4.8,9.9l45.75,-22.35c7.35,-3.6 15.975,1.05 17.175,9.15l7.05,50.4l10.875,-1.5l-7.05,-50.4c-1.125,-8.1 5.925,-14.925 13.95,-13.5l50.1,8.85l1.95,-10.95Z" style="fill:none;fill-rule:nonzero;stroke:#151515;stroke-width:3px;"/><path id="XMLID_185_" d="M597.945,272.175c-48.3,6.825 -82.125,51.6 -75.3,99.975c6.825,48.375 51.6,82.05 99.975,75.3c48.375,-6.75 82.125,-51.675 75.3,-99.975c-6.825,-48.3 -51.6,-82.125 -99.975,-75.3Zm22.8,161.85c-41.025,5.775 -78.975,-22.8 -84.675,-63.825c-5.775,-41.025 22.8,-78.975 63.825,-84.675c41.025,-5.775 78.975,22.8 84.675,63.825c5.775,41.025 -22.8,78.975 -63.825,84.675Z" style="fill:#242424;fill-rule:nonzero;"/><path id="XMLID_177_" d="M597.945,272.175c-48.3,6.825 -82.125,51.6 -75.3,99.975c6.825,48.3 51.6,82.125 99.975,75.3c48.375,-6.825 82.125,-51.675 75.3,-99.975c-6.825,-48.3 -51.6,-82.125 -99.975,-75.3Zm94.05,76.125c5.175,36.9 -15.15,72.9 -49.5,87.45c-6.6,2.775 -13.575,4.725 -20.775,5.775c-21.75,3.075 -43.5,-2.55 -61.125,-15.825c-17.625,-13.275 -29.025,-32.55 -32.1,-54.375c-5.175,-36.9 15.15,-72.9 49.5,-87.45c6.6,-2.775 13.575,-4.725 20.775,-5.775c21.75,-3.075 43.5,2.55 61.125,15.825c17.625,13.275 29.025,32.625 32.1,54.375Z" style="fill:#191919;fill-opacity:0.92;fill-rule:nonzero;"/><circle id="XMLID_176_" cx="610.245" cy="359.775" r="75" style="fill:none;stroke:#151515;stroke-width:3px;"/><path id="XMLID_173_" d="M597.945,272.175c-48.3,6.825 -82.125,51.6 -75.3,99.975c6.825,48.375 51.6,82.05 99.975,75.3c48.375,-6.75 82.125,-51.675 75.3,-99.975c-6.825,-48.3 -51.6,-82.125 -99.975,-75.3Zm22.8,161.85c-41.025,5.775 -78.975,-22.8 -84.675,-63.825c-5.775,-41.025 22.8,-78.975 63.825,-84.675c41.025,-5.775 78.975,22.8 84.675,63.825c5.775,41.025 -22.8,78.975 -63.825,84.675Z" style="fill:none;fill-rule:nonzero;stroke:#151515;stroke-width:3px;"/><circle id="XMLID_172_" cx="610.245" cy="359.775" r="88.5" style="fill:none;stroke:#151515;stroke-width:3px;"/><circle id="XMLID_171_" cx="610.245" cy="359.775" r="88.5" style="fill:none;stroke:#151515;stroke-width:4.5px;"/><path id="XMLID_137_" d="M599.82,285.525c-41.025,5.775 -69.6,43.725 -63.825,84.675c5.775,41.025 43.725,69.6 84.675,63.825c40.95,-5.775 69.6,-43.725 63.825,-84.675c-5.7,-41.025 -43.65,-69.6 -84.675,-63.825Zm79.5,64.575c5.325,38.1 -21.3,73.425 -59.4,78.75c-38.1,5.325 -73.425,-21.3 -78.75,-59.4c-5.325,-38.1 21.3,-73.425 59.4,-78.75c38.1,-5.325 73.425,21.3 78.75,59.4Z" style="fill:#a9a8a9;fill-rule:nonzero;"/><path id="XMLID_130_" d="M599.82,285.525c-41.025,5.775 -69.6,43.725 -63.825,84.675c5.775,41.025 43.725,69.6 84.675,63.825c40.95,-5.775 69.6,-43.725 63.825,-84.675c-5.7,-41.025 -43.65,-69.6 -84.675,-63.825Zm79.5,64.575c5.325,38.1 -21.3,73.425 -59.4,78.75c-38.1,5.325 -73.425,-21.3 -78.75,-59.4c-5.325,-38.1 21.3,-73.425 59.4,-78.75c38.1,-5.325 73.425,21.3 78.75,59.4Z" style="fill:none;fill-rule:nonzero;stroke:#151515;stroke-width:3px;"/><circle id="XMLID_32_" cx="610.245" cy="359.775" r="13.425" style="fill:#242424;"/><circle id="XMLID_31_" cx="610.245" cy="359.775" r="13.425" style="fill:none;stroke:#151515;stroke-width:2.25px;"/><path id="XMLID_27_" d="M619.47,358.5c-1.725,-2.7 -1.875,-6 -0.675,-8.7c-2.775,-2.325 -6.45,-3.525 -10.275,-3c-0.975,0.15 -1.95,0.375 -2.85,0.75l-0,0.3c0.225,4.95 -3.45,9.075 -8.25,9.6c-0.225,1.35 -0.3,2.775 -0.075,4.2c0.45,3.45 2.25,6.375 4.725,8.4c0.075,-0.075 0.15,-0.075 0.225,-0.15c4.125,-2.625 9.6,-1.575 12.45,2.325c4.5,-1.65 7.8,-5.625 8.55,-10.275c-1.5,-0.825 -2.85,-1.95 -3.825,-3.45Z" style="fill:#191919;fill-opacity:0.92;fill-rule:nonzero;"/><circle id="XMLID_26_" cx="610.245" cy="359.775" r="4.275" style="fill:#151515;"/><circle id="XMLID_25_" cx="610.245" cy="359.775" r="4.275" style="fill:none;stroke:#151515;stroke-width:3px;"/><path id="XMLID_24_" d="M619.47,358.5c-1.725,-2.7 -1.875,-6 -0.675,-8.7c-2.775,-2.325 -6.45,-3.525 -10.275,-3c-0.975,0.15 -1.95,0.375 -2.85,0.75l-0,0.3c0.225,4.95 -3.45,9.075 -8.25,9.6c-0.225,1.35 -0.3,2.775 -0.075,4.2c0.45,3.45 2.25,6.375 4.725,8.4c0.075,-0.075 0.15,-0.075 0.225,-0.15c4.125,-2.625 9.6,-1.575 12.45,2.325c4.5,-1.65 7.8,-5.625 8.55,-10.275c-1.5,-0.825 -2.85,-1.95 -3.825,-3.45Z" style="fill:none;fill-rule:nonzero;stroke:#151515;stroke-width:2.25px;"/></g><path id="XMLID_135_" d="M615.645,277.425c0.6,0.075 1.2,0.075 1.875,0.15c3.3,0.3 6.45,0.75 9.675,1.425" style="fill:none;fill-rule:nonzero;stroke:#fff;stroke-opacity:0.67;stroke-width:1.5px;"/><path id="XMLID_7_" d="M550.545,302.925c11.85,-12.45 27.6,-21.3 45.45,-24.375" style="fill:none;fill-rule:nonzero;stroke:#fff;stroke-opacity:0.67;stroke-width:1.5px;"/></g><path id="XMLID_10_" d="M422.37,299.7c-0,-0 -3.15,9.225 -4.575,20.7" style="fill:none;fill-rule:nonzero;stroke:#fff;stroke-opacity:0.46;stroke-width:1.5px;"/><path id="XMLID_178_" d="M416.745,326.25c-0,-0 -0.675,10.8 -0.675,12.75" style="fill:none;fill-rule:nonzero;stroke:#fff;stroke-opacity:0.46;stroke-width:1.5px;"/></g></svg>