<svg viewBox="0 0 231 185" xmlns="http://www.w3.org/2000/svg" fill-rule="evenodd" clip-rule="evenodd" stroke-linejoin="round" stroke-miterlimit="2"><path d="M116.682 115.43c.002-.206-6.231-.198-6.234 0-.23 14.822-1.732 25.777-4.698 37.011-3.039 11.512-19.536 32.059-19.536 32.059h54.702s-17.066-20.547-20.105-32.059c-2.967-11.239-4.271-23.248-4.129-37.011z" fill="#06b1ef"/><clipPath id="a"><path d="M74.169 67.168L63.666 71.25V51.354l32.25-25.104v37.639l-7.797 4.082a16.848 16.848 0 00-13.95-.803z"/></clipPath><g clip-path="url(#a)"><path fill="#c11a4d" d="M59.916 22.5h39.75V75h-39.75z"/></g><clipPath id="b"><path d="M60.507 76.5c-3.225-4.711-5.091-10.281-5.091-16.233 0-7.544 2.941-14.451 7.843-19.767 4.902 5.316 7.875 12.223 7.907 19.767 0 5.984-1.866 11.522-5.061 16.233h-5.598z"/></clipPath><g clip-path="url(#b)"><path fill="#cf264d" d="M51.666 36.75h23.25v43.5h-23.25z"/></g><clipPath id="c"><path d="M64.416 71.25l10.461-4a36.374 36.374 0 00-.581-8.317 37.819 37.819 0 00-4.23-11.683l-5.65 4.349V71.25z"/></clipPath><g clip-path="url(#c)"><path fill="#a5143a" fill-opacity=".72" d="M60.666 43.5h18V75h-18z"/></g><clipPath id="d"><path d="M65.017 56.914l30.899-24.043V26.25l-32.25 25.071V71.25l1.351-.514V56.914z"/></clipPath><g clip-path="url(#d)"><path fill="#f4a15d" fill-opacity=".23" d="M59.916 22.5h39.75V75h-39.75z"/></g><clipPath id="e"><path d="M83.396 66.566c1.73.286 3.366.858 4.907 1.684l7.613-4.036V27L82.641 37.456c-.661 4.035-.975 8.262-.975 12.616.031 5.752.629 11.314 1.73 16.494z"/></clipPath><g clip-path="url(#e)"><path fill="#a5143a" fill-opacity=".72" d="M77.916 23.25h21.75V72h-21.75z"/></g><clipPath id="f"><path d="M74.585 67.891l-10.369 4.044a.955.955 0 01-1.3-.89V51.33c0-.294.135-.572.367-.753l31.841-24.875a.954.954 0 011.542.753v37.296a.956.956 0 01-.511.846l-7.698 4.045a.954.954 0 01-.889-.001 15.626 15.626 0 00-12.983-.75zm13.421-1.171l6.751-3.547v-34.76L64.824 51.796v17.851l9.069-3.538h.002a17.526 17.526 0 0114.111.611z"/></clipPath><g clip-path="url(#f)"><path fill="#601b23" d="M59.166 21.75h41.25v54h-41.25z"/></g><clipPath id="g"><path d="M60.507 76.5c-3.225-4.711-5.091-10.281-5.091-16.233 0-7.544 2.941-14.451 7.843-19.767 4.902 5.316 7.875 12.223 7.907 19.767 0 5.984-1.866 11.522-5.061 16.233h-5.598z"/></clipPath><g clip-path="url(#g)"><path fill="#cf264d" d="M51.666 36.75h23.25v43.5h-23.25z"/></g><clipPath id="h"><path d="M63.31 40.5c.379.413.758.859 1.106 1.304-3.285 5.088-5.179 11.067-5.211 17.427 0 6.297.947 12.181 4.168 17.269h-2.905c-3.189-4.707-5.052-10.272-5.052-16.219.031-7.569 3-14.47 7.894-19.781z"/></clipPath><g clip-path="url(#h)"><path fill="#f4a15d" fill-opacity=".23" d="M51.666 36.75h16.5v43.5h-16.5z"/></g><clipPath id="i"><path d="M63.288 40.5c.126.127.252.286.378.445-3.685 5.502-5.794 11.958-5.826 18.891 0 6.01 1.606 11.671 4.409 16.664h-1.795c-3.181-4.707-5.038-10.272-5.038-16.219.031-7.569 2.991-14.47 7.872-19.781z"/></clipPath><g clip-path="url(#i)"><path fill="#f4a15d" fill-opacity=".32" d="M51.666 36.75h15.75v43.5h-15.75z"/></g><clipPath id="j"><path d="M71.166 60.249c0-7.537-2.969-14.406-7.895-19.749a21.6 21.6 0 00-1.105 1.304c3.284 5.088 5.178 11.067 5.21 17.427 0 6.297-1.832 12.181-5.053 17.269h3.79c3.189-4.739 5.053-10.304 5.053-16.251z"/></clipPath><g clip-path="url(#j)"><path fill="#a5143a" fill-opacity=".37" d="M58.416 36.75h16.5v43.5h-16.5z"/></g><clipPath id="k"><path d="M71.166 60.249c0-7.537-2.96-14.406-7.873-19.749a5.286 5.286 0 00-.377.445c3.684 5.502 5.793 11.958 5.825 18.891 0 6.01-1.606 11.671-4.409 16.664h1.795c3.181-4.739 5.039-10.304 5.039-16.251z"/></clipPath><g clip-path="url(#k)"><path fill="#a5143a" fill-opacity=".72" d="M59.166 36.75h15.75v43.5h-15.75z"/></g><clipPath id="l"><path d="M63.271 40.5a21.6 21.6 0 00-1.105 1.304c3.284 5.088 5.178 11.067 5.21 17.427 0 6.297-1.832 12.181-5.053 17.269h3.79c3.189-4.707 5.053-10.272 5.053-16.219-.032-7.569-3-14.47-7.895-19.781z"/></clipPath><g clip-path="url(#l)"><path fill="#a5143a" fill-opacity=".37" d="M58.416 36.75h16.5v43.5h-16.5z"/></g><clipPath id="m"><path d="M63.293 40.5a5.286 5.286 0 00-.377.445c3.684 5.502 5.793 11.958 5.825 18.891 0 6.01-1.606 11.671-4.409 16.664h1.795c3.181-4.707 5.039-10.272 5.039-16.219-.032-7.569-2.992-14.47-7.873-19.781z"/></clipPath><g clip-path="url(#m)"><path fill="#a5143a" fill-opacity=".72" d="M59.166 36.75h15.75v43.5h-15.75z"/></g><clipPath id="n"><path d="M67.416 46.5a33.526 33.526 0 00-4.125-6 32.29 32.29 0 00-4.125 6h8.25z"/></clipPath><g clip-path="url(#n)"><path fill="#601b23" d="M55.416 36.75h15.75v13.5h-15.75z"/></g><clipPath id="o"><path d="M60.03 76.833a.97.97 0 00.797.417h5.71a.969.969 0 00.799-.42c3.366-4.911 5.33-10.685 5.33-16.923-.034-7.863-3.161-15.061-8.323-20.599a.97.97 0 00-1.419 0c-5.164 5.539-8.258 12.738-8.258 20.599 0 6.206 1.964 12.015 5.364 16.926zm3.603-35.426c-4.409 5.073-7.032 11.506-7.032 18.5 0 5.631 1.733 10.911 4.739 15.416h4.68c2.977-4.503 4.71-9.754 4.71-15.412-.03-6.996-2.683-13.429-7.097-18.504z"/></clipPath><g clip-path="url(#o)"><path fill="#601b23" d="M50.916 35.25h25.5V81h-25.5z"/></g><clipPath id="p"><path d="M102.666 101.483s-3.907.831-9.525 6.388c-2.034 2.013-5.23 6.101-7.587 9.199-.968 1.278-3.034.639-3.067-.958l-.774-34.016a3.33 3.33 0 01.71-2.683L90.882 69l11.784 32.483z"/></clipPath><g clip-path="url(#p)"><path fill="#cf264d" d="M77.916 65.25h28.5v56.25h-28.5z"/></g><clipPath id="q"><path d="M82.432 117c1.862-.257 3.266-1.829 3.299-3.69l.359-31.765a3.334 3.334 0 01.719-2.695l5.357-6.577L90.957 69l-8.525 10.428a3.364 3.364 0 00-.719 2.695L82.432 117z"/></clipPath><g clip-path="url(#q)"><path fill="#f4a15d" fill-opacity=".32" d="M77.916 65.25h18v55.5h-18z"/></g><clipPath id="r"><path d="M101.916 101.189L90.107 69l-4.691 5.729c2.523 9.495 6.502 19.149 11.873 28.771 2.847-1.931 4.627-2.311 4.627-2.311z"/></clipPath><g clip-path="url(#r)"><path fill="#a5143a" fill-opacity=".72" d="M81.666 65.25h24v42h-24z"/></g><clipPath id="s"><path d="M80.963 81.729c-.179-1.217.154-2.465.905-3.388l8.297-10.481a.945.945 0 01.898-.347.954.954 0 01.737.626l11.56 32.696a.981.981 0 01-.064.795.95.95 0 01-.631.474s-3.621.84-8.871 6.169c-1.972 2.003-5.069 6.074-7.354 9.156-1.491 2.019-4.669.999-4.718-1.521l-.759-34.179zm9.621-11.319l-7.243 9.15c-.43.527-.605 1.24-.492 1.928.007.045.011.091.012.136l.76 34.243c.014.692.89.959 1.3.404 2.338-3.154 5.512-7.313 7.53-9.362 4.044-4.105 7.24-5.742 8.791-6.354L90.584 70.41z"/></clipPath><g clip-path="url(#s)"><path fill="#601b23" d="M77.166 63.75h30v58.5h-30z"/></g><clipPath id="t"><path d="M57.566 72.75h10.699c.359 0 .651-.336.651-.75s-.292-.75-.651-.75H57.566c-.359 0-.65.336-.65.75s.291.75.65.75z"/></clipPath><g clip-path="url(#t)"><path fill="#601b23" d="M53.166 67.5h19.5v9h-19.5z"/></g><clipPath id="u"><path d="M60.507 76.5c-3.225-4.711-5.091-10.281-5.091-16.233 0-7.544 2.941-14.451 7.843-19.767 4.902 5.316 7.875 12.223 7.907 19.767 0 5.984-1.866 11.522-5.061 16.233h-5.598z"/></clipPath><g clip-path="url(#u)"><path fill="#cf264d" d="M51.666 36.75h23.25v43.5h-23.25z"/></g><clipPath id="v"><path d="M60.507 76.5c-3.225-4.711-5.091-10.281-5.091-16.233 0-7.544 2.941-14.451 7.843-19.767 4.902 5.316 7.875 12.223 7.907 19.767 0 5.984-1.866 11.522-5.061 16.233h-5.598z"/></clipPath><g clip-path="url(#v)"><path fill="#cf264d" d="M51.666 36.75h23.25v43.5h-23.25z"/></g><clipPath id="w"><path d="M63.31 40.5c.379.413.758.859 1.106 1.304-3.285 5.088-5.179 11.067-5.211 17.427 0 6.297.947 12.181 4.168 17.269h-2.905c-3.189-4.707-5.052-10.272-5.052-16.219.031-7.569 3-14.47 7.894-19.781z"/></clipPath><g clip-path="url(#w)"><path fill="#f4a15d" fill-opacity=".23" d="M51.666 36.75h16.5v43.5h-16.5z"/></g><clipPath id="x"><path d="M63.288 40.5c.126.127.252.286.378.445-3.685 5.502-5.794 11.958-5.826 18.891 0 6.01 1.606 11.671 4.409 16.664h-1.795c-3.181-4.707-5.038-10.272-5.038-16.219.031-7.569 2.991-14.47 7.872-19.781z"/></clipPath><g clip-path="url(#x)"><path fill="#f4a15d" fill-opacity=".32" d="M51.666 36.75h15.75v43.5h-15.75z"/></g><clipPath id="y"><path d="M71.166 60.249c0-7.537-2.969-14.406-7.895-19.749a21.6 21.6 0 00-1.105 1.304c3.284 5.088 5.178 11.067 5.21 17.427 0 6.297-1.832 12.181-5.053 17.269h3.79c3.189-4.739 5.053-10.304 5.053-16.251z"/></clipPath><g clip-path="url(#y)"><path fill="#a5143a" fill-opacity=".37" d="M58.416 36.75h16.5v43.5h-16.5z"/></g><clipPath id="z"><path d="M71.166 60.249c0-7.537-2.96-14.406-7.873-19.749a5.286 5.286 0 00-.377.445c3.684 5.502 5.793 11.958 5.825 18.891 0 6.01-1.606 11.671-4.409 16.664h1.795c3.181-4.739 5.039-10.304 5.039-16.251z"/></clipPath><g clip-path="url(#z)"><path fill="#a5143a" fill-opacity=".72" d="M59.166 36.75h15.75v43.5h-15.75z"/></g><clipPath id="A"><path d="M63.271 40.5a21.6 21.6 0 00-1.105 1.304c3.284 5.088 5.178 11.067 5.21 17.427 0 6.297-1.832 12.181-5.053 17.269h3.79c3.189-4.707 5.053-10.272 5.053-16.219-.032-7.569-3-14.47-7.895-19.781z"/></clipPath><g clip-path="url(#A)"><path fill="#a5143a" fill-opacity=".37" d="M58.416 36.75h16.5v43.5h-16.5z"/></g><clipPath id="B"><path d="M63.293 40.5a5.286 5.286 0 00-.377.445c3.684 5.502 5.793 11.958 5.825 18.891 0 6.01-1.606 11.671-4.409 16.664h1.795c3.181-4.707 5.039-10.272 5.039-16.219-.032-7.569-2.992-14.47-7.873-19.781z"/></clipPath><g clip-path="url(#B)"><path fill="#a5143a" fill-opacity=".72" d="M59.166 36.75h15.75v43.5h-15.75z"/></g><clipPath id="C"><path d="M67.416 46.5a33.526 33.526 0 00-4.125-6 32.29 32.29 0 00-4.125 6h8.25z"/></clipPath><g clip-path="url(#C)"><path fill="#601b23" d="M55.416 36.75h15.75v13.5h-15.75z"/></g><clipPath id="D"><path d="M60.03 76.833a.97.97 0 00.797.417h5.71a.969.969 0 00.799-.42c3.366-4.911 5.33-10.685 5.33-16.923-.034-7.863-3.161-15.061-8.323-20.599a.97.97 0 00-1.419 0c-5.164 5.539-8.258 12.738-8.258 20.599 0 6.206 1.964 12.015 5.364 16.926zm3.603-35.426c-4.409 5.073-7.032 11.506-7.032 18.5 0 5.631 1.733 10.911 4.739 15.416h4.68c2.977-4.503 4.71-9.754 4.71-15.412-.03-6.996-2.683-13.429-7.097-18.504z"/></clipPath><g clip-path="url(#D)"><path fill="#601b23" d="M50.916 35.25h25.5V81h-25.5z"/></g><clipPath id="E"><path d="M57.566 72.75h10.699c.359 0 .651-.336.651-.75s-.292-.75-.651-.75H57.566c-.359 0-.65.336-.65.75s.291.75.65.75z"/></clipPath><g clip-path="url(#E)"><path fill="#601b23" d="M53.166 67.5h19.5v9h-19.5z"/></g><clipPath id="F"><path d="M149.913 67.168l10.503 4.082V51.354l-32.25-25.104v37.639l7.796 4.082a16.85 16.85 0 0113.951-.803z"/></clipPath><g clip-path="url(#F)"><path fill="#c11a4d" d="M124.416 22.5h39.75V75h-39.75z"/></g><clipPath id="G"><path d="M160.416 71.25l-10.462-4c-.129-2.73.065-5.524.581-8.317a37.819 37.819 0 014.23-11.683l5.651 4.349V71.25z"/></clipPath><g clip-path="url(#G)"><path fill="#a5143a" fill-opacity=".72" d="M146.166 43.5h18V75h-18z"/></g><clipPath id="H"><path d="M159.095 56.914l-30.929-24.043V26.25l32.25 25.071V71.25l-1.321-.514V56.914z"/></clipPath><g clip-path="url(#H)"><path fill="#f4a15d" fill-opacity=".23" d="M124.416 22.5h39.75V75h-39.75z"/></g><clipPath id="I"><path d="M140.685 66.566c-1.73.286-3.366.858-4.907 1.684l-7.612-4.036V27l13.274 10.456c.661 4.035.976 8.262.976 12.616 0 5.752-.598 11.314-1.731 16.494z"/></clipPath><g clip-path="url(#I)"><path fill="#a5143a" fill-opacity=".72" d="M124.416 23.25h21.75V72h-21.75z"/></g><clipPath id="J"><path d="M149.496 67.891a15.626 15.626 0 00-12.983.75.954.954 0 01-.889.001l-7.698-4.045a.955.955 0 01-.51-.846V26.455a.955.955 0 011.541-.753l31.841 24.875a.956.956 0 01.368.753v19.715a.956.956 0 01-1.301.89l-10.369-4.044zm9.761 1.756V51.796l-29.933-23.383v34.76l6.751 3.547a17.526 17.526 0 0114.111-.611h.002l9.069 3.538z"/></clipPath><g clip-path="url(#J)"><path fill="#601b23" d="M123.666 21.75h41.25v54h-41.25z"/></g><clipPath id="K"><path d="M122.166 101.483s3.906.831 9.524 6.388c2.034 2.013 5.23 6.101 7.587 9.199.968 1.278 3.034.639 3.067-.958l.774-34.016a3.33 3.33 0 00-.71-2.683L133.95 69l-11.784 32.483z"/></clipPath><g clip-path="url(#K)"><path fill="#cf264d" d="M118.416 65.25h28.5v56.25h-28.5z"/></g><clipPath id="L"><path d="M142.369 117a3.81 3.81 0 01-3.289-3.69l-.358-31.765a3.343 3.343 0 00-.716-2.695l-5.34-6.577L133.87 69l8.532 10.46c.618.77.879 1.733.716 2.695L142.369 117z"/></clipPath><g clip-path="url(#L)"><path fill="#a5143a" fill-opacity=".72" d="M128.916 65.25h18v55.5h-18z"/></g><clipPath id="M"><path d="M122.166 101.189L133.974 69l4.692 5.729c-2.524 9.495-6.503 19.149-11.874 28.771-2.847-1.931-4.626-2.311-4.626-2.311z"/></clipPath><g clip-path="url(#M)"><path fill="#a5143a" fill-opacity=".72" d="M118.416 65.25h24v42h-24z"/></g><clipPath id="N"><path d="M143.868 81.729l-.759 34.176c-.049 2.523-3.227 3.542-4.717 1.525-2.286-3.083-5.383-7.154-7.355-9.157-5.25-5.329-8.871-6.169-8.871-6.169a.95.95 0 01-.631-.474.981.981 0 01-.064-.795l11.56-32.696a.954.954 0 01.737-.626.945.945 0 01.898.347l8.289 10.471c.759.932 1.092 2.181.913 3.398zm-9.621-11.319l-10.658 30.145c1.551.611 4.747 2.248 8.791 6.354 2.018 2.049 5.192 6.208 7.531 9.363.409.553 1.285.287 1.299-.405l.76-34.243a1.04 1.04 0 01.012-.136 2.442 2.442 0 00-.5-1.938l-7.235-9.14z"/></clipPath><g clip-path="url(#N)"><path fill="#601b23" d="M117.666 63.75h30v58.5h-30z"/></g><clipPath id="O"><path d="M122.082 119.131c.353-3.792-.161-7.36-6.587-16.758-1.06-1.497-3.599-1.497-4.659 0-6.426 9.43-6.94 12.998-6.587 16.758.064.477.932 1.019 1.478.828 3.695-1.88 11.182-1.88 14.877 0 .546.191 1.414-.319 1.478-.828z"/></clipPath><g clip-path="url(#O)"><path fill="#4e8280" d="M100.416 97.5h25.5v26.25h-25.5z"/></g><clipPath id="P"><path d="M107.456 119.133c-.349-3.789.159-7.355 6.511-16.748.19-.287.444-.509.699-.669-1.207-.796-3.049-.573-3.907.669-6.352 9.425-6.86 12.991-6.511 16.748.064.477.921 1.019 1.461.828.54-.255 1.144-.51 1.779-.701 0-.032-.032-.064-.032-.127z"/></clipPath><g clip-path="url(#P)"><path fill="#f4a15d" d="M100.416 97.5h18v26.25h-18z"/></g><clipPath id="Q"><path d="M114.666 119.319c2.289.165 4.446.626 6.006 1.384.498.198 1.294-.264 1.494-.725-2.191-.626-4.912-.857-7.5-.659z"/></clipPath><g clip-path="url(#Q)"><path fill="#f4a15d" d="M110.916 115.5h15v9h-15z"/></g><clipPath id="R"><path d="M111.96 102.373a2.804 2.804 0 00-.294-.319c1.211-1.179 3.47-1.052 4.452.319 6.549 9.431 7.072 12.999 6.712 16.759-.065.478-.949 1.02-1.506.829-.753-.383-1.67-.67-2.652-.893.36-3.759-.196-7.328-6.712-16.695z"/></clipPath><g clip-path="url(#R)"><path fill="#37605d" d="M107.916 97.5h18.75v26.25h-18.75z"/></g><clipPath id="S"><path d="M122.823 119.77a.29.29 0 00.004-.031c.358-3.991-.092-7.776-6.602-17.671-.706-1.035-1.877-1.568-3.059-1.568-1.183 0-2.354.533-3.051 1.555-6.519 9.942-6.969 13.727-6.611 17.685l.004.038c.062.477.44 1.043 1.003 1.385.536.326 1.192.427 1.692.245a.926.926 0 00.116-.051c3.401-1.798 10.292-1.798 13.693 0l.116.051c.498.181 1.15.089 1.684-.228.566-.335.95-.899 1.011-1.41zm-1.861-.355c.305-3.664-.315-7.162-6.289-16.243-.341-.5-.929-.729-1.507-.729-.579 0-1.167.229-1.498.714-5.974 9.111-6.602 12.613-6.3 16.24l.253.147c3.829-1.914 11.273-1.913 15.098.005l.243-.134z"/></clipPath><g clip-path="url(#S)"><path fill="#601b23" d="M99.666 96.75h27v28.5h-27z"/></g><clipPath id="T"><path d="M119.957 108c14.937-24.691 20.36-48.933 16.999-69.141C134.038 21.31 124.65 8.66 112.789.75 100.928 8.66 91.54 21.31 88.623 38.859c-3.362 20.208 2.093 44.45 16.999 69.141h14.335z"/></clipPath><g clip-path="url(#T)"><path fill="#cf264d" d="M83.916-3h57.75v114.75h-57.75z"/></g><clipPath id="U"><path d="M100.181 39.179c1.934-15.884 6.964-28.501 13.735-37.949-.226-.16-.484-.32-.71-.48-12.058 7.91-21.601 20.56-24.568 38.109-3.417 20.208 2.128 44.45 17.282 69.141h3.063c-8.415-24.691-11.253-48.421-8.802-68.821z"/></clipPath><g clip-path="url(#U)"><path fill="#f4a15d" fill-opacity=".23" d="M83.916-3h33.75v114.75h-33.75z"/></g><clipPath id="V"><path d="M136.96 38.724C134.089 21.276 124.874 8.672 113.166.75a82.67 82.67 0 017.29 15.202c4.26 11.835 4.733 21.585 4.986 27.711 1.136 27.55-9.247 58.019-11.424 64.337h6.027c14.864-24.76 20.261-49.039 16.915-69.276z"/></clipPath><g clip-path="url(#V)"><path fill="#a5143a" fill-opacity=".37" d="M109.416-3h32.25v114.75h-32.25z"/></g><clipPath id="W"><path d="M136.949 38.859C134.008 21.31 124.547 8.66 112.592.75c-.319.192-.607.416-.926.608 4.538 3.555 7.99 7.366 10.611 11.017 23.526 32.793.959 81.886-2.141 88.387a69.992 69.992 0 00-2.333-16.012 72.716 72.716 0 00-3.612-10.248l-1.439 32.569h3.964c-.096.321-.192.609-.32.929h3.356c15.119-24.691 20.585-48.933 17.197-69.141z"/></clipPath><g clip-path="url(#W)"><path fill="#a5143a" fill-opacity=".72" d="M107.916-3h33.75v114.75h-33.75z"/></g><clipPath id="X"><path d="M92.577 44.431c.443-5.124 2.089-21.777 12.248-35.452 1.614-2.145 4.02-5.06 3.83-5.22-.285-.256-5.855 4.836-9.812 10.248-4.969 6.757-8.608 15.052-10.222 24.851-3.355 20.208 2.088 44.451 16.964 69.142h1.298c-4.083-8.23-6.774-15.66-8.609-21.521-1.203-3.939-3.323-10.92-4.653-20.271-.854-6.277-1.804-13.002-1.044-21.777z"/></clipPath><g clip-path="url(#X)"><path fill="#f4a15d" fill-opacity=".32" d="M83.916 0h28.5v111.75h-28.5z"/></g><clipPath id="Y"><path d="M115.041 33.75c4.76 0 8.625 3.865 8.625 8.625S119.801 51 115.041 51c-4.761 0-8.625-3.865-8.625-8.625s3.864-8.625 8.625-8.625z"/></clipPath><g clip-path="url(#Y)"><path fill="#a5143a" fill-opacity=".72" d="M102.666 30h24.75v24.75h-24.75z"/></g><clipPath id="Z"><path d="M114.666 33c-5.382 0-9.75 4.369-9.75 9.75s4.368 9.75 9.75 9.75c5.381 0 9.75-4.369 9.75-9.75s-4.369-9.75-9.75-9.75zm0 1.937a7.817 7.817 0 017.812 7.813 7.817 7.817 0 01-7.812 7.813 7.817 7.817 0 01-7.813-7.813 7.817 7.817 0 017.813-7.813z"/></clipPath><g clip-path="url(#Z)"><path fill="#a5143a" fill-opacity=".72" d="M101.166 29.25h27v27h-27z"/></g><clipPath id="aa"><path d="M120.38 108.75a.96.96 0 00.817-.458c15.179-24.828 20.656-49.212 17.24-69.531C135.45 20.983 125.835 8.172 113.692.158a.96.96 0 00-1.056 0c-12.143 8.014-21.758 20.825-24.745 38.603-3.416 20.319 2.093 44.703 17.24 69.53l.818.459h14.431zM113.164 2.108c-11.487 7.766-20.539 20.042-23.383 36.97-3.332 19.814 2.052 43.552 16.707 67.758h13.353c14.685-24.207 20.038-47.944 16.707-67.759-2.844-16.927-11.896-29.203-23.384-36.969z"/></clipPath><g clip-path="url(#aa)"><path fill="#601b23" d="M83.166-3.75h60V112.5h-60z"/></g><clipPath id="ab"><path d="M104.278 39.494c.763-4.699 5.196-7.894 9.894-7.132 4.698.763 7.894 5.196 7.131 9.894-.763 4.699-5.196 7.894-9.894 7.131-4.698-.762-7.894-5.195-7.131-9.893z"/></clipPath><g clip-path="url(#ab)"><path fill="#abcfd8" d="M100.416 28.5h24.75v24.75h-24.75z"/></g><clipPath id="ac"><path d="M111.666 35.25a5.253 5.253 0 015.25 5.25 5.253 5.253 0 01-5.25 5.25 5.253 5.253 0 01-5.25-5.25 5.252 5.252 0 015.25-5.25z"/></clipPath><g clip-path="url(#ac)"><path fill="#e2f0f2" fill-opacity=".93" d="M102.666 31.5h18v18h-18z"/></g><clipPath id="ad"><path d="M103.543 39.688c-.862 5.311 2.75 10.323 8.061 11.185 5.311.862 10.322-2.75 11.184-8.061.863-5.311-2.75-10.323-8.061-11.185-5.311-.862-10.322 2.75-11.184 8.061zm1.911.31a7.816 7.816 0 018.963-6.459 7.817 7.817 0 016.46 8.963 7.816 7.816 0 01-8.963 6.459 7.817 7.817 0 01-6.46-8.963z"/></clipPath><g clip-path="url(#ad)"><path fill="#601b23" d="M99.666 27.75h27v27h-27z"/></g><clipPath id="ae"><path d="M100.416 11.967a37.355 37.355 0 0124.75.033c-3.628-4.454-7.833-8.194-12.392-11.25-4.558 3.056-8.763 6.796-12.358 11.217z"/></clipPath><g clip-path="url(#ae)"><path fill="#601b23" d="M96.666-3h32.25v18.75h-32.25z"/></g><clipPath id="af"><path d="M99.882 11.178a.937.937 0 00-.047 1.136.95.95 0 001.087.353 36.458 36.458 0 0123.733.03.95.95 0 001.09-.351.937.937 0 00-.046-1.138c-3.631-4.376-7.839-8.049-12.401-11.052a.955.955 0 00-1.046 0c-4.563 3.003-8.772 6.677-12.37 11.022zm12.893-9.102a54.604 54.604 0 00-9.285 7.87 38.398 38.398 0 0118.586.017 54.662 54.662 0 00-9.301-7.887z"/></clipPath><g clip-path="url(#af)"><path fill="#601b23" d="M95.916-3.75h33.75V16.5h-33.75z"/></g><clipPath id="ag"><path d="M159.507 76.5c-3.225-4.711-5.091-10.281-5.091-16.233 0-7.544 2.941-14.451 7.843-19.767 4.902 5.316 7.875 12.223 7.907 19.767 0 5.984-1.866 11.522-5.061 16.233h-5.598z"/></clipPath><g clip-path="url(#ag)"><path fill="#cf264d" d="M150.666 36.75h23.25v43.5h-23.25z"/></g><clipPath id="ah"><path d="M159.507 76.5c-3.225-4.711-5.091-10.281-5.091-16.233 0-7.544 2.941-14.451 7.843-19.767 4.902 5.316 7.875 12.223 7.907 19.767 0 5.984-1.866 11.522-5.061 16.233h-5.598z"/></clipPath><g clip-path="url(#ah)"><path fill="#cf264d" d="M150.666 36.75h23.25v43.5h-23.25z"/></g><clipPath id="ai"><path d="M162.31 40.5c.379.413.758.859 1.106 1.304-3.285 5.088-5.179 11.067-5.211 17.427 0 6.297.947 12.181 4.168 17.269h-2.905c-3.189-4.707-5.052-10.272-5.052-16.219 0-7.569 2.968-14.47 7.894-19.781z"/></clipPath><g clip-path="url(#ai)"><path fill="#f4a15d" fill-opacity=".23" d="M150.666 36.75h16.5v43.5h-16.5z"/></g><clipPath id="aj"><path d="M162.288 40.5c.126.127.252.286.378.445-3.685 5.502-5.794 11.958-5.826 18.891 0 6.01 1.606 11.671 4.409 16.664h-1.795c-3.181-4.707-5.038-10.272-5.038-16.219 0-7.569 2.959-14.47 7.872-19.781z"/></clipPath><g clip-path="url(#aj)"><path fill="#f4a15d" fill-opacity=".32" d="M150.666 36.75h15.75v43.5h-15.75z"/></g><clipPath id="ak"><path d="M170.166 60.249c0-7.537-2.969-14.406-7.895-19.749a21.6 21.6 0 00-1.105 1.304c3.284 5.088 5.178 11.067 5.21 17.427 0 6.297-1.832 12.181-5.053 17.269h3.79c3.189-4.739 5.053-10.304 5.053-16.251z"/></clipPath><g clip-path="url(#ak)"><path fill="#a5143a" fill-opacity=".37" d="M157.416 36.75h16.5v43.5h-16.5z"/></g><clipPath id="al"><path d="M170.166 60.249c0-7.537-2.96-14.406-7.873-19.749a5.286 5.286 0 00-.377.445c3.684 5.502 5.793 11.958 5.825 18.891 0 6.01-1.606 11.671-4.409 16.664h1.795c3.181-4.739 5.039-10.304 5.039-16.251z"/></clipPath><g clip-path="url(#al)"><path fill="#a5143a" fill-opacity=".72" d="M158.166 36.75h15.75v43.5h-15.75z"/></g><clipPath id="am"><path d="M162.271 40.5a21.6 21.6 0 00-1.105 1.304c3.284 5.088 5.178 11.067 5.21 17.427 0 6.297-1.832 12.181-5.053 17.269h3.79c3.189-4.707 5.053-10.272 5.053-16.219 0-7.569-2.969-14.47-7.895-19.781z"/></clipPath><g clip-path="url(#am)"><path fill="#a5143a" fill-opacity=".37" d="M157.416 36.75h16.5v43.5h-16.5z"/></g><clipPath id="an"><path d="M162.293 40.5a5.286 5.286 0 00-.377.445c3.684 5.502 5.793 11.958 5.825 18.891 0 6.01-1.606 11.671-4.409 16.664h1.795c3.181-4.707 5.039-10.272 5.039-16.219 0-7.569-2.96-14.47-7.873-19.781z"/></clipPath><g clip-path="url(#an)"><path fill="#a5143a" fill-opacity=".72" d="M158.166 36.75h15.75v43.5h-15.75z"/></g><clipPath id="ao"><path d="M166.416 46.5a33.526 33.526 0 00-4.125-6 32.29 32.29 0 00-4.125 6h8.25z"/></clipPath><g clip-path="url(#ao)"><path fill="#601b23" d="M154.416 36.75h15.75v13.5h-15.75z"/></g><clipPath id="ap"><path d="M159.03 76.833a.969.969 0 00.797.417h5.71a.97.97 0 00.799-.42c3.366-4.911 5.33-10.685 5.33-16.923-.034-7.863-3.16-15.061-8.323-20.599a.97.97 0 00-1.419 0c-5.164 5.539-8.258 12.738-8.258 20.599 0 6.206 1.964 12.015 5.364 16.926zm3.603-35.426c-4.409 5.073-7.032 11.506-7.032 18.5 0 5.631 1.733 10.911 4.739 15.416h4.68c2.977-4.503 4.71-9.754 4.71-15.412-.03-6.996-2.683-13.429-7.097-18.504z"/></clipPath><g clip-path="url(#ap)"><path fill="#601b23" d="M149.916 35.25h25.5V81h-25.5z"/></g><clipPath id="aq"><path d="M157.316 72.75h10.699c.359 0 .651-.336.651-.75s-.292-.75-.651-.75h-10.699c-.359 0-.65.336-.65.75s.291.75.65.75z"/></clipPath><g clip-path="url(#aq)"><path fill="#601b23" d="M152.916 67.5h19.5v9h-19.5z"/></g><clipPath id="ar"><path d="M103.416 10.5s2.217-3.355 9.75-9c-3.49 4.547-4.174 7.401-4.403 7.62-2.217.408-5.347 1.38-5.347 1.38z"/></clipPath><g clip-path="url(#ar)"><path fill="#fff" fill-opacity=".41" d="M99.666-2.25h17.25v16.5h-17.25z"/></g><clipPath id="as"><path d="M221.927 132.898c-.81.765-3.965 2.026-3.965 2.026s3.079 1.435 3.844 2.244c.764.809 2.023 3.964 2.023 3.964s1.437-3.08 2.246-3.843c.808-.765 3.963-2.025 3.963-2.025s-3.08-1.437-3.842-2.245c-.764-.808-2.025-3.963-2.025-3.963s-1.437 3.079-2.244 3.842z"/></clipPath><g clip-path="url(#as)"><path d="M234.563 143.957l-19.426 1.699-1.7-19.425 19.426-1.7 1.7 19.426z" fill="#eaf9ff"/></g><clipPath id="at"><path d="M79.427 139.648c-.81.765-3.965 2.026-3.965 2.026s3.079 1.435 3.844 2.244c.764.809 2.023 3.964 2.023 3.964s1.437-3.08 2.246-3.843c.808-.765 3.963-2.025 3.963-2.025s-3.08-1.437-3.842-2.245c-.764-.808-2.025-3.963-2.025-3.963s-1.437 3.079-2.244 3.842z"/></clipPath><g clip-path="url(#at)"><path d="M92.063 150.707l-19.426 1.699-1.7-19.425 19.426-1.7 1.7 19.426z" fill="#eaf9ff"/></g><clipPath id="au"><path d="M30.56 138.416c-1.062 1.004-5.203 2.659-5.203 2.659s4.04 1.884 5.044 2.945c1.003 1.062 2.656 5.203 2.656 5.203s1.886-4.042 2.947-5.044c1.061-1.004 5.202-2.658 5.202-2.658s-4.042-1.885-5.043-2.946c-1.003-1.061-2.658-5.201-2.658-5.201s-1.885 4.041-2.945 5.042z"/></clipPath><g clip-path="url(#au)"><path d="M45.875 151.866l-23.161 2.026-2.027-23.161 23.162-2.027 2.026 23.162z" fill="#eaf9ff"/></g><clipPath id="av"><path d="M191.767 98.676c-.506.478-2.478 1.266-2.478 1.266s1.924.897 2.402 1.403c.477.505 1.265 2.477 1.265 2.477s.898-1.924 1.403-2.402c.505-.478 2.477-1.265 2.477-1.265s-1.924-.898-2.401-1.403c-.478-.506-1.266-2.477-1.266-2.477s-.898 1.924-1.402 2.401z"/></clipPath><g clip-path="url(#av)"><path d="M201.188 106.866l-14.943 1.308-1.308-14.943 14.943-1.308 1.308 14.943z" fill="#eaf9ff"/></g><clipPath id="aw"><path d="M49.267 105.426c-.506.478-2.478 1.266-2.478 1.266s1.924.897 2.402 1.403c.477.505 1.265 2.477 1.265 2.477s.898-1.924 1.403-2.402c.505-.478 2.477-1.265 2.477-1.265s-1.924-.898-2.401-1.403c-.478-.506-1.266-2.477-1.266-2.477s-.898 1.924-1.402 2.401z"/></clipPath><g clip-path="url(#aw)"><path d="M58.688 113.616l-14.943 1.308-1.308-14.943 14.943-1.308 1.308 14.943z" fill="#eaf9ff"/></g><clipPath id="ax"><path d="M166.267 121.176c-.506.478-2.478 1.266-2.478 1.266s1.924.897 2.402 1.403c.477.505 1.265 2.477 1.265 2.477s.898-1.924 1.403-2.402c.505-.478 2.477-1.265 2.477-1.265s-1.924-.898-2.401-1.403c-.478-.506-1.266-2.477-1.266-2.477s-.898 1.924-1.402 2.401z"/></clipPath><g clip-path="url(#ax)"><path d="M175.688 129.366l-14.943 1.308-1.308-14.943 14.943-1.308 1.308 14.943z" fill="#eaf9ff"/></g><clipPath id="ay"><path d="M2.767 114.426c-.506.478-2.478 1.266-2.478 1.266s1.924.897 2.402 1.403c.477.505 1.265 2.477 1.265 2.477s.898-1.924 1.403-2.402c.505-.478 2.477-1.265 2.477-1.265s-1.924-.898-2.401-1.403c-.478-.506-1.266-2.477-1.266-2.477s-.898 1.924-1.402 2.401z"/></clipPath><g clip-path="url(#ay)"><path d="M12.188 122.616l-14.943 1.308-1.308-14.943 14.943-1.308 1.308 14.943z" fill="#eaf9ff"/></g></svg>