<?xml version="1.0" encoding="UTF-8" standalone="no"?><!DOCTYPE svg PUBLIC "-//W3C//DTD SVG 1.1//EN" "http://www.w3.org/Graphics/SVG/1.1/DTD/svg11.dtd"><svg width="100%" height="100%" viewBox="0 0 497 300" version="1.1" xmlns="http://www.w3.org/2000/svg" xmlns:xlink="http://www.w3.org/1999/xlink" xml:space="preserve" xmlns:serif="http://www.serif.com/" style="fill-rule:evenodd;clip-rule:evenodd;stroke-linejoin:round;stroke-miterlimit:2;"><path d="M463.725,298.929l-445.575,-0c-10.05,-0 -18.15,-8.1 -18.15,-18.15c-0,-10.05 8.1,-18.15 18.15,-18.15l445.575,-0c10.05,-0 18.15,8.1 18.15,18.15c-0,9.975 -8.1,18.15 -18.15,18.15Z" style="fill:#2b2727;fill-rule:nonzero;"/><path d="M404.175,101.604l0,-38.925c0,-14.925 -12.075,-27 -27,-27c-14.925,0 -27,12.075 -27,27l0,38.85c0,24.825 -20.175,45 -45,45l0,114c0,9.975 8.025,18 18,18l108,0c9.975,0 18,-8.025 18,-18l0,-114c-24.9,0.075 -45,-20.1 -45,-44.925Z" style="fill:#4d3830;fill-rule:nonzero;"/><rect x="366.675" y="35.679" width="12.3" height="6.225" style="fill:#72361f;"/><path d="M393.675,101.604l0,-38.925c0,-14.925 -12.075,-27 -27,-27c-14.925,0 -27,12.075 -27,27l0,38.85c0,24.825 -20.175,45 -45,45l0,114c0,9.975 8.025,18 18,18l108,0c9.975,0 18,-8.025 18,-18l0,-114c-24.9,0.075 -45,-20.1 -45,-44.925Z" style="fill:#432e20;fill-rule:nonzero;"/><path d="M438.675,146.604c-16.95,0 -31.65,-9.375 -39.375,-23.175l-41.625,16.8l-21.075,11.7l49.95,7.8l52.125,-10.35l0,-2.775Z" style="fill:#432e20;fill-rule:nonzero;"/><circle cx="366.675" cy="63.204" r="9" style="fill:#783f21;"/><rect x="107.925" y="35.679" width="10.5" height="2.775" style="fill:#72361f;"/><rect x="107.925" y="54.204" width="258.825" height="18" style="fill:#584942;"/><path d="M199.575,47.829l-0.075,0l-6.525,-17.55l5.325,-24.45l14.175,0l5.4,24.45l-6.6,17.55l-0,52.725l-11.7,0l-0,-52.725Z" style="fill:#c9c9c9;fill-rule:nonzero;"/><path d="M207.525,47.829l6.6,-17.55l-5.4,-24.45l3.75,0l5.4,24.45l-6.6,17.55l0,52.725l-3.75,0l0,-52.725Z" style="fill:#b5b5b5;fill-rule:nonzero;"/><path d="M187.35,209.229l0,-85.575c0,-4.125 2.475,-7.725 6.075,-9.225c1.5,-0.6 1.725,-2.625 0.45,-3.675l-5.025,-4.2c-1.334,-1.112 -2.104,-2.763 -2.1,-4.5l0,-3.975c0,-1.5 1.2,-2.7 2.7,-2.7l31.8,0c1.5,0 2.7,1.2 2.7,2.7l0,3.975c0,1.725 -0.75,3.375 -2.1,4.5l-5.025,4.2c-1.2,1.05 -0.975,3 0.45,3.675c3.6,1.575 6.075,5.1 6.075,9.225l0,85.575c0,5.55 -4.5,10.05 -10.05,10.05l-16.05,0c-5.4,0.075 -9.9,-4.5 -9.9,-10.05Z" style="fill:#f45145;fill-rule:nonzero;"/><path d="M217.5,209.229l0,-85.575c0,-4.125 -2.475,-7.725 -6.075,-9.225c-1.5,-0.6 -1.725,-2.625 -0.45,-3.675l5.025,-4.2c1.334,-1.112 2.104,-2.763 2.1,-4.5l0,-3.975c0,-1.5 -1.2,-2.7 -2.7,-2.7l6,0c1.5,0 2.7,1.2 2.7,2.7l0,3.975c0,1.725 -0.75,3.375 -2.1,4.5l-5.025,4.2c-1.2,1.05 -0.975,3 0.45,3.675c3.6,1.575 6.075,5.1 6.075,9.225l0,85.575c0,5.55 -4.5,10.05 -10.05,10.05l-6,0c5.55,0.075 10.05,-4.5 10.05,-10.05Z" style="fill:#db493e;fill-rule:nonzero;"/><path d="M202.2,204.654l-0,-71.475c-0,-2.1 -1.65,-3.75 -3.75,-3.75c-2.1,0 -3.75,1.65 -3.75,3.75l-0,71.475c-0,2.1 1.65,3.75 3.75,3.75c2.1,0 3.75,-1.725 3.75,-3.75Zm13.875,0l-0,-71.475c-0,-2.1 -1.65,-3.75 -3.75,-3.75c-2.1,0 -3.75,1.65 -3.75,3.75l-0,71.475c-0,2.1 1.65,3.75 3.75,3.75c2.1,0 3.75,-1.725 3.75,-3.75Z" style="fill:#aa3930;fill-rule:nonzero;"/><path d="M312,5.454c-1.2,1.35 -3,3.3 -4.5,4.95c-1.584,1.74 -4.259,2.001 -6.15,0.6c-4.275,-3.075 -11.325,-8.4 -20.25,-9.075c-12.9,-1.05 -21.6,3.525 -29.475,9.675c-11.625,9.15 -18.975,20.1 -22.875,26.85c2.925,2.55 4.2,3.3 6.45,5.175c3.675,-3.825 10.875,-11.85 21.075,-14.4c1.575,-0.375 4.35,-1.05 7.65,0c1.125,0.375 3.225,1.2 5.1,3.3c3.225,3.6 3,8.025 3,9l0,29.1l19.125,0l0,-27.825c-0.375,-4.875 1.725,-9.375 5.4,-11.25c0.3,-0.15 3.9,-1.95 7.425,-0.6c2.55,0.975 5.7,3.9 8.1,6.225c0.225,0.225 0.825,0.75 1.8,1.125c0.525,0.15 1.125,0.3 1.65,0.225c3.45,-0.075 10.5,-0.225 15.375,-0.45c2.325,-0.075 4.125,-1.95 4.125,-4.275l0,-25.35c0,-2.325 -1.875,-4.2 -4.2,-4.275c-4.65,-0.075 -11.25,-0.225 -15.225,-0.3c-1.35,0 -2.7,0.6 -3.6,1.575Z" style="fill:#c9c9c9;fill-rule:nonzero;"/><g><path d="M262.35,27.879c-2.1,-2.4 -4.65,-3.375 -5.85,-3.825c-3.75,-1.2 -7.05,-0.45 -8.85,0c-5.625,1.35 -10.425,4.2 -14.4,7.275c-1.8,2.625 -3.3,5.025 -4.5,7.05c2.925,2.55 4.2,3.3 6.45,5.175c3.675,-3.825 10.875,-11.85 21.075,-14.4c1.425,-0.375 3.975,-0.975 6.975,-0.225c-0.225,-0.225 -0.525,-0.6 -0.9,-1.05Zm71.625,6.45c-5.625,0.15 -13.8,0.375 -17.775,0.45c-0.675,0 -1.35,-0.075 -1.95,-0.3c-0.786,-0.265 -1.503,-0.7 -2.1,-1.275c-2.775,-2.625 -6.45,-6 -9.375,-7.125c-4.05,-1.575 -8.25,0.6 -8.55,0.75c-4.2,2.25 -6.6,7.35 -6.225,13.05l0,30.9l3.225,-0l0,-27.825c-0.375,-4.875 1.725,-9.375 5.4,-11.25c0.3,-0.15 3.9,-1.95 7.425,-0.6c2.55,0.975 5.7,3.9 8.1,6.225c0.225,0.225 0.825,0.75 1.8,1.125c0.525,0.15 1.125,0.3 1.65,0.225c3.45,-0.075 10.5,-0.225 15.375,-0.45c2.175,-0.075 3.975,-1.8 4.125,-3.9c-0.375,-0.075 -0.75,-0 -1.125,-0Z" style="fill:#ababab;fill-rule:nonzero;"/></g><path d="M283.95,203.454l-3.6,0c-9.45,0 -16.95,-9.3 -16.65,-20.475l3.525,-112.275l29.85,0l3.525,112.275c0.3,11.175 -7.2,20.475 -16.65,20.475Z" style="fill:#3b69a9;fill-rule:nonzero;"/><path d="M300.6,182.979l-3.525,-112.275l-7.275,0l3.525,112.275c0.3,10.425 -6.225,19.2 -14.775,20.325c0.6,0.075 1.2,0.15 1.8,0.15l3.6,0c9.45,0 16.95,-9.3 16.65,-20.475Z" style="fill:#355e98;fill-rule:nonzero;"/><path d="M300.975,79.779l-37.65,0c-2.466,-0.007 -4.493,-2.034 -4.5,-4.5c0,-2.475 2.025,-4.5 4.5,-4.5l37.65,0c2.475,0 4.5,2.025 4.5,4.5c0,2.475 -2.025,4.5 -4.5,4.5Z" style="fill:#355e98;fill-rule:nonzero;"/><path d="M265.8,120.054l32.025,-22.05l0.675,20.325l-33.225,18.6l0.525,-16.875Z" style="fill:#72361f;fill-opacity:0.23;fill-rule:nonzero;"/><path d="M386.1,33.879l-199.275,154.35l38.925,50.175l220.725,-127.35l-60.375,-77.175Z" style="fill:#c9c9c9;fill-rule:nonzero;"/><path d="M437.775,98.454l-221.625,127.5l9.9,12.675l217.65,-126l-5.925,-14.175Z" style="fill:#e1e1e1;fill-rule:nonzero;"/><path d="M492,60.204l-41.025,-52.95c-6.3,-8.175 -18.075,-9.675 -26.25,-3.3l-4.35,3.375l15.3,19.725c1.05,-0.375 2.1,-0.525 3.225,-0.525l0.975,0c0.675,0.075 1.425,0.15 2.1,0.375c0.075,0 0.225,0.075 0.3,0.075c0.15,0.075 0.3,0.075 0.525,0.15c0.15,0.075 0.3,0.075 0.45,0.15c0.15,0.075 0.3,0.15 0.45,0.15c0.15,0.075 0.375,0.15 0.525,0.225c0.075,0.075 0.225,0.075 0.3,0.15c0.3,0.15 0.525,0.3 0.75,0.525c0.075,0.075 0.15,0.15 0.3,0.225c0.15,0.15 0.375,0.3 0.525,0.375c0.075,0.075 0.15,0.15 0.3,0.225c0.15,0.15 0.3,0.3 0.525,0.45l0.225,0.225c0.225,0.225 0.45,0.525 0.675,0.75l19.5,25.2c0.225,0.3 0.375,0.525 0.6,0.825c0.075,0.075 0.075,0.15 0.15,0.3c0.15,0.225 0.225,0.375 0.3,0.6c0.075,0.075 0.075,0.225 0.15,0.3c0.075,0.225 0.15,0.375 0.3,0.6c0.075,0.075 0.075,0.225 0.15,0.3c0.075,0.3 0.225,0.6 0.3,0.9c0,0.15 0.075,0.225 0.075,0.375c0.075,0.225 0.075,0.375 0.15,0.6c0,0.15 0.075,0.3 0.075,0.45c0,0.15 0,0.3 0.075,0.45c0,0.15 0,0.375 0.075,0.525l0,0.375c0,0.75 -0.075,1.425 -0.15,2.1l0,0.15c-0.075,0.225 -0.075,0.45 -0.15,0.75l0,0.075c-0.3,1.05 -0.75,2.025 -1.35,3l16.2,20.925l2.55,-1.5c9.6,-5.625 12.15,-18.675 5.175,-27.675Z" style="fill:#fdc457;fill-rule:nonzero;"/><g><path d="M462.975,50.304l-19.5,-25.2c-0.225,-0.3 -0.45,-0.525 -0.675,-0.75l-0.225,-0.225c-0.15,-0.15 -0.3,-0.3 -0.525,-0.45c-0.085,-0.093 -0.187,-0.169 -0.3,-0.225c-0.156,-0.149 -0.333,-0.276 -0.525,-0.375c-0.085,-0.093 -0.187,-0.169 -0.3,-0.225c-0.225,-0.15 -0.525,-0.375 -0.75,-0.525c-0.075,-0.075 -0.225,-0.075 -0.3,-0.15c-0.15,-0.075 -0.375,-0.15 -0.525,-0.225c-0.15,-0.075 -0.3,-0.15 -0.45,-0.15c-0.15,-0.075 -0.3,-0.075 -0.45,-0.15c-0.15,-0.075 -0.3,-0.15 -0.525,-0.15c-0.075,0 -0.225,-0.075 -0.3,-0.075c-0.675,-0.225 -1.425,-0.3 -2.1,-0.375l-0.975,0c-1.05,0 -2.175,0.225 -3.225,0.525l-10.875,-14.325l15.3,19.725c1.05,-0.375 2.1,-0.525 3.225,-0.525l0.975,-0c0.675,0.075 1.425,0.15 2.1,0.375c0.075,-0 0.225,0.075 0.3,0.075c0.15,0.075 0.3,0.075 0.525,0.15c0.15,0.075 0.3,0.075 0.45,0.15c0.15,0.075 0.3,0.15 0.45,0.15c0.15,0.075 0.375,0.15 0.525,0.225c0.075,0.075 0.225,0.075 0.3,0.15c0.3,0.15 0.525,0.3 0.75,0.525c0.075,0.075 0.15,0.15 0.3,0.225c0.15,0.15 0.375,0.3 0.525,0.375c0.075,0.075 0.15,0.15 0.3,0.225c0.15,0.15 0.3,0.3 0.525,0.45l0.225,0.225c0.225,0.225 0.45,0.525 0.675,0.75l15.525,20.025c-0.225,0.075 -0.375,-0.075 -0.45,-0.225Zm29.025,9.9l-3.675,-4.725c6.15,8.925 3.45,21.3 -6.075,26.85l-2.55,1.5l-11.85,-15.375l16.2,20.925l2.55,-1.5c9.825,-5.625 12.375,-18.675 5.4,-27.675Z" style="fill:#f2b24c;fill-rule:nonzero;"/></g><g><path d="M445.275,28.404c-0.225,-0.15 -0.525,-0.375 -0.75,-0.525c0.225,0.15 0.525,0.375 0.75,0.525Zm1.05,0.825l0.45,0.45c-0.075,-0.15 -0.225,-0.3 -0.45,-0.45Zm-2.1,-1.5c-0.15,-0.075 -0.375,-0.15 -0.525,-0.225c0.15,0.075 0.3,0.15 0.525,0.225Zm-3.3,-1.125c0,0 0,0.075 0,0c0,0.075 0,0.075 0,0Zm28.5,34.5c0,0.15 0,0.3 0.075,0.45c0,-0.15 -0.075,-0.3 -0.075,-0.45Zm-26.175,-33.825c-0.075,0 -0.15,-0.075 -0.225,-0.075c0.075,0.075 0.15,0.075 0.225,0.075Zm-3.375,-0.75l-0.15,0l0.15,0Zm29.475,33.9c0,0.075 0,0.15 0.075,0.225c-0.075,-0.075 -0.075,-0.15 -0.075,-0.225Zm-0.45,-1.575c0.075,0.15 0.15,0.375 0.15,0.6c-0.075,-0.225 -0.075,-0.45 -0.15,-0.6Zm0.6,3.225l-0,0.375l-0,-0.375Zm-0.975,-4.125c0.075,0.075 0.075,0.225 0.15,0.3c-0.075,-0.15 -0.15,-0.225 -0.15,-0.3Zm-0.75,10.5c-0.663,1.036 -1.5,1.95 -2.475,2.7l-6.375,4.95c-9.6,7.425 -23.325,5.7 -30.75,-3.9l-6,-7.8c-7.425,-9.6 -5.7,-23.325 3.9,-30.75l6.375,-4.95c0.975,-0.75 2.1,-1.35 3.3,-1.725l-15.3,-19.725l-39.975,30.975l59.4,76.65l46.725,-27l-2.55,1.5l-16.275,-20.925Zm0.225,-11.475c0.075,0.075 0.15,0.225 0.15,0.3c0,-0.075 -0.075,-0.15 -0.15,-0.3Zm-0.75,-1.125c0.225,0.3 0.375,0.525 0.6,0.825c-0.225,-0.225 -0.375,-0.525 -0.6,-0.825Z" style="fill:#323b40;fill-rule:nonzero;"/></g><path d="M483.975,89.379l-44.175,25.5l-4.05,-5.175l44.025,-25.725l4.2,5.4Z" style="fill:#2d363a;fill-rule:nonzero;"/><path d="M428.175,278.604l-262.65,0l0,-132l273.075,0l0,121.5c0.075,5.775 -4.65,10.5 -10.425,10.5Z" style="fill:#584942;fill-rule:nonzero;"/><circle cx="166.575" cy="176.904" r="6.75" style="fill:#783f21;"/><path d="M145.425,101.604l0,-38.925c0,-14.925 -12.075,-27 -27,-27c-14.925,0 -27,12.075 -27,27l0,38.85c0,24.825 -20.175,45 -45,45l0,114c0,9.975 8.025,18 18,18l108,0c9.975,0 18,-8.025 18,-18l0,-114c-24.9,0.075 -45,-20.1 -45,-44.925Z" style="fill:#4d3830;fill-rule:nonzero;"/><path d="M431.25,278.604l-257.625,0l11.25,-10.5l256.125,0l-9.75,10.5Z" style="fill:#4d3830;fill-rule:nonzero;"/><path d="M438.675,146.529l0,114c0,4.125 -3.375,7.5 -7.5,7.5l-33.3,0l0,10.5l33.375,0c9.975,0 18,-8.025 18,-18l0,-114l-10.575,0Z" style="fill:#4d3830;fill-rule:nonzero;"/><path d="M134.925,101.604l0,-38.925c0,-14.925 -12.075,-27 -27,-27c-14.925,0 -27,12.075 -27,27l0,38.85c0,24.825 -20.175,45 -45,45l0,114c0,9.975 8.025,18 18,18l108,0c9.975,0 18,-8.025 18,-18l0,-114c-24.9,0.075 -45,-20.1 -45,-44.925Z" style="fill:#584942;fill-rule:nonzero;"/><path d="M37.5,268.104c2.85,6.225 9.075,10.5 16.35,10.5l108,0c7.275,0 13.5,-4.275 16.35,-10.5l-140.7,0Z" style="fill:#584942;fill-rule:nonzero;"/><circle cx="166.575" cy="212.604" r="6.75" style="fill:#4d3830;"/><circle cx="166.575" cy="176.904" r="6.75" style="fill:#4d3830;"/><circle cx="166.575" cy="248.229" r="6.75" style="fill:#4d3830;"/><circle cx="48.525" cy="176.904" r="6.75" style="fill:#4d3830;"/><circle cx="48.525" cy="212.604" r="6.75" style="fill:#4d3830;"/><circle cx="48.525" cy="248.229" r="6.75" style="fill:#4d3830;"/><circle cx="107.925" cy="63.204" r="9" style="fill:#4d3830;"/></svg>