<svg viewBox="0 0 281 35" xmlns="http://www.w3.org/2000/svg" fill-rule="evenodd" clip-rule="evenodd" stroke-linejoin="round" stroke-miterlimit="2"><path d="M0 10.513a24.045 24.045 0 0118.878 9.086C22.167 8.286 32.709 0 45.19 0a27.429 27.429 0 0123.179 12.682 21.42 21.42 0 0115.097-6.185c2.897 0 5.659.571 8.178 1.606a21.421 21.421 0 0115.241-6.329c7.351 0 13.84 3.681 17.686 9.28a21.55 21.55 0 015.962-.836c4.255 0 8.222 1.234 11.553 3.358 1.75-6.941 8.096-12.09 15.647-12.09a16.157 16.157 0 0113.752 7.627 21.42 21.42 0 0115.228-6.316c6.284 0 11.939 2.69 15.85 6.969a16.234 16.234 0 011.672-.085c8.711 0 15.817 6.85 16.116 15.4a25.789 25.789 0 013.855-.288c2.771 0 5.44.439 7.937 1.249A25.54 25.54 0 01255 11.998c4.397 0 8.535 1.103 12.148 3.046a24.055 24.055 0 0114.102-4.531V35.25H0V10.513z" fill="#06b1ef"/></svg>