<?xml version="1.0" encoding="UTF-8" standalone="no"?><!DOCTYPE svg PUBLIC "-//W3C//DTD SVG 1.1//EN" "http://www.w3.org/Graphics/SVG/1.1/DTD/svg11.dtd"><svg width="100%" height="100%" viewBox="0 0 220 87" version="1.1" xmlns="http://www.w3.org/2000/svg" xmlns:xlink="http://www.w3.org/1999/xlink" xml:space="preserve" xmlns:serif="http://www.serif.com/" style="fill-rule:evenodd;clip-rule:evenodd;stroke-linecap:round;stroke-linejoin:round;stroke-miterlimit:10;"><clipPath id="_clip1"><path d="M217.347,86.145l-214.97,-0c-1.321,-0 -2.377,-1 -2.377,-2.25c-0,-1.25 1.056,-2.25 2.377,-2.25l214.996,-0c1.321,-0 2.377,1 2.377,2.25c-0.026,1.25 -1.083,2.25 -2.403,2.25Z" clip-rule="nonzero"/></clipPath><g clip-path="url(#_clip1)"><rect x="-3.75" y="77.895" width="227.25" height="12" style="fill:#444e59;"/></g><rect x="84.336" y="80.727" width="37.166" height="2.208" style="fill:#444e59;"/><clipPath id="_clip2"><path d="M147.318,66.295l-87.689,0c-1.742,0 -3.168,-1.419 -3.168,-3.154l0,-58.487c0,-1.735 1.426,-3.154 3.168,-3.154l87.689,-0c1.743,-0 3.168,1.419 3.168,3.154l-0,58.461c-0,1.761 -1.399,3.18 -3.168,3.18Z" clip-rule="nonzero"/></clipPath><g clip-path="url(#_clip2)"><rect x="52.711" y="-2.25" width="101.525" height="72.295" style="fill:#bbbfc2;"/></g><clipPath id="_clip3"><path d="M144.913,7.435l-0,47.762l-82.516,0l0,-47.762l82.516,0Z" clip-rule="nonzero"/></clipPath><g clip-path="url(#_clip3)"><path d="M58.647,58.947l0,-55.262l90.016,0l-0,55.262l-90.016,0Z" style="fill:#28a8e0;"/></g><clipPath id="_clip4"><path d="M147.53,66.295l-13.753,0l-0,-24.919c-0,-1.998 1.61,-3.601 3.616,-3.601l10.137,-0l-0,28.52Z" clip-rule="nonzero"/></clipPath><g clip-path="url(#_clip4)"><rect x="130.027" y="34.025" width="21.253" height="36.02" style="fill:#848484;fill-opacity:0.4;"/></g><clipPath id="_clip5"><path d="M63.14,42.217l-6.679,0l0,19.636c0,2.445 2.112,4.442 4.593,4.442l7.682,0l-0,-18.4c-0.027,-3.075 -2.534,-5.678 -5.596,-5.678Z" clip-rule="nonzero"/></clipPath><g clip-path="url(#_clip5)"><rect x="52.711" y="38.467" width="19.774" height="31.578" style="fill:#848484;fill-opacity:0.4;"/></g><path d="M147.582,66.295l-87.848,0c-1.742,0 -3.167,-1.419 -3.167,-3.154l-0,-58.487c-0,-1.735 1.425,-3.154 3.167,-3.154l87.848,-0c1.743,-0 3.168,1.419 3.168,3.154l0,58.461c0,1.761 -1.425,3.18 -3.168,3.18Z" style="fill:none;fill-rule:nonzero;stroke:#444e59;stroke-width:3px;"/><path d="M62.528,55.197l0,-47.762l82.279,-0l-0,47.762l-82.279,-0Z" style="fill:none;stroke:#444e59;stroke-width:3px;"/><clipPath id="_clip6"><path d="M128.814,52.889l-45.349,0c-1.029,0 -1.848,-0.841 -1.848,-1.84l0,-32.226c0,-1.026 0.845,-1.84 1.848,-1.84l45.349,-0c1.03,-0 1.848,0.841 1.848,1.84l0,32.2c0,1.025 -0.818,1.866 -1.848,1.866Z" clip-rule="nonzero"/></clipPath><g clip-path="url(#_clip6)"><rect x="77.867" y="13.233" width="56.545" height="43.407" style="fill:#848484;fill-opacity:0.32;"/></g><clipPath id="_clip7"><path d="M126.703,51.102l-45.35,0c-1.029,0 -1.848,-0.841 -1.848,-1.84l0,-32.201c0,-1.025 0.845,-1.84 1.848,-1.84l45.35,0c1.029,0 1.847,0.842 1.847,1.84l0,32.201c0.027,1.025 -0.818,1.84 -1.847,1.84Z" clip-rule="nonzero"/></clipPath><g clip-path="url(#_clip7)"><rect x="75.755" y="11.471" width="56.546" height="43.381" style="fill:#afb1b2;"/></g><path d="M126.703,51.102l-45.35,0c-1.029,0 -1.848,-0.841 -1.848,-1.84l0,-32.201c0,-1.025 0.845,-1.84 1.848,-1.84l45.35,0c1.029,0 1.847,0.842 1.847,1.84l0,32.201c0.027,1.025 -0.818,1.84 -1.847,1.84Z" style="fill:none;fill-rule:nonzero;stroke:#444e59;stroke-width:3px;"/><clipPath id="_clip8"><path d="M114.719,80.727l-22.121,-0l2.745,-14.432l16.63,0l2.746,14.432Z" clip-rule="nonzero"/></clipPath><g clip-path="url(#_clip8)"><rect x="88.848" y="62.545" width="29.62" height="21.931" style="fill:#aeaeaf;"/></g><clipPath id="_clip9"><path d="M112.712,70.37l-0.739,-4.075l-16.63,0l-0.739,4.075l18.108,-0Z" clip-rule="nonzero"/></clipPath><g clip-path="url(#_clip9)"><rect x="90.854" y="62.545" width="25.608" height="11.574" style="fill:#848484;fill-opacity:0.32;"/></g><path d="M114.719,80.727l-22.121,-0l2.745,-14.432l16.63,0l2.746,14.432Z" style="fill:none;fill-rule:nonzero;stroke:#444e59;stroke-width:3px;"/><rect x="84.336" y="80.727" width="37.166" height="2.208" style="fill:none;stroke:#444e59;stroke-width:3px;"/><clipPath id="_clip10"><path d="M103.526,61.301c0.904,0 1.637,-0.73 1.637,-1.63c-0,-0.9 -0.733,-1.629 -1.637,-1.629c-0.903,-0 -1.636,0.729 -1.636,1.629c-0,0.9 0.733,1.63 1.636,1.63Z" clip-rule="nonzero"/></clipPath><g clip-path="url(#_clip10)"><rect x="98.14" y="54.292" width="10.773" height="10.759" style="fill:#444e59;"/></g><clipPath id="_clip11"><path d="M122.981,47.79l-45.35,-0c-1.029,-0 -1.847,-0.841 -1.847,-1.84l-0,-32.227c-0,-1.025 0.844,-1.84 1.847,-1.84l45.35,0c1.029,0 1.848,0.841 1.848,1.84l-0,32.201c0.026,1.025 -0.819,1.866 -1.848,1.866Z" clip-rule="nonzero"/></clipPath><g clip-path="url(#_clip11)"><rect x="72.034" y="8.133" width="56.546" height="43.407" style="fill:#fff;"/></g><path d="M122.981,47.79l-45.35,-0c-1.029,-0 -1.847,-0.841 -1.847,-1.84l-0,-32.227c-0,-1.025 0.844,-1.84 1.847,-1.84l45.35,0c1.029,0 1.847,0.841 1.847,1.84l0.001,32.201c0.026,1.025 -0.819,1.866 -1.848,1.866Z" style="fill:none;fill-rule:nonzero;stroke:#444e59;stroke-width:3px;"/><clipPath id="_clip12"><path d="M124.855,17.429l-49.071,0l-0,-3.627c-0,-1.052 0.871,-1.945 1.953,-1.945l45.297,-0c1.003,-0 1.821,0.815 1.821,1.813l-0,3.759Z" clip-rule="nonzero"/></clipPath><g clip-path="url(#_clip12)"><rect x="72.034" y="8.107" width="56.571" height="13.073" style="fill:#bbbfc2;"/></g><path d="M124.855,17.429l-49.071,0l-0,-3.627c-0,-1.052 0.871,-1.945 1.953,-1.945l45.297,-0c1.003,-0 1.821,0.815 1.821,1.813l-0,3.759Z" style="fill:none;fill-rule:nonzero;stroke:#444e59;stroke-width:3px;"/><clipPath id="_clip13"><path d="M80.509,15.537c0.481,-0 0.871,-0.389 0.871,-0.868c-0,-0.479 -0.39,-0.867 -0.871,-0.867c-0.482,-0 -0.872,0.388 -0.872,0.867c0,0.479 0.39,0.868 0.872,0.868Z" clip-rule="nonzero"/></clipPath><g clip-path="url(#_clip13)"><rect x="75.887" y="10.052" width="9.242" height="9.235" style="fill:#444e59;"/></g><clipPath id="_clip14"><path d="M83.386,15.537c0.481,-0 0.871,-0.389 0.871,-0.868c-0,-0.479 -0.39,-0.867 -0.871,-0.867c-0.481,-0 -0.871,0.388 -0.871,0.867c-0,0.479 0.39,0.868 0.871,0.868Z" clip-rule="nonzero"/></clipPath><g clip-path="url(#_clip14)"><rect x="78.765" y="10.052" width="9.242" height="9.235" style="fill:#444e59;"/></g><clipPath id="_clip15"><path d="M86.237,15.537c0.481,-0 0.871,-0.389 0.871,-0.868c-0,-0.479 -0.39,-0.867 -0.871,-0.867c-0.481,-0 -0.871,0.388 -0.871,0.867c-0,0.479 0.39,0.868 0.871,0.868Z" clip-rule="nonzero"/></clipPath><g clip-path="url(#_clip15)"><rect x="81.616" y="10.052" width="9.242" height="9.235" style="fill:#444e59;"/></g><clipPath id="_clip16"><path d="M120.236,27.05l-40.203,0c-0.29,0 -0.528,-0.236 -0.528,-0.526l0,-5.599c0,-0.289 0.238,-0.525 0.528,-0.525l40.203,-0c0.29,-0 0.527,0.236 0.527,0.525l0,5.599c0,0.29 -0.237,0.526 -0.528,0.526Z" clip-rule="nonzero"/></clipPath><g clip-path="url(#_clip16)"><rect x="75.755" y="16.65" width="48.758" height="14.15" style="fill:#6567c3;"/></g><clipPath id="_clip17"><path d="M91.595,34.069l-11.588,-0c-0.29,-0 -0.528,-0.237 -0.528,-0.526l0,-3.023c0,-0.289 0.238,-0.526 0.528,-0.526l11.588,0c0.291,0 0.528,0.237 0.528,0.526l0,3.023c0,0.289 -0.211,0.526 -0.528,0.526Z" clip-rule="nonzero"/></clipPath><g clip-path="url(#_clip17)"><rect x="75.729" y="26.244" width="20.144" height="11.574" style="fill:#444e59;fill-opacity:0.2;"/></g><path d="M81.353,37.039l9.292,-0" style="fill:none;fill-rule:nonzero;stroke:#444e59;stroke-opacity:0.2;stroke-width:3px;"/><path d="M81.353,40.009l9.292,0" style="fill:none;fill-rule:nonzero;stroke:#444e59;stroke-opacity:0.2;stroke-width:3px;"/><clipPath id="_clip18"><path d="M106.113,34.069l-11.588,-0c-0.29,-0 -0.528,-0.237 -0.528,-0.526l0,-3.023c0,-0.289 0.238,-0.526 0.528,-0.526l11.588,0c0.291,0 0.528,0.237 0.528,0.526l0,3.023c0,0.289 -0.237,0.526 -0.528,0.526Z" clip-rule="nonzero"/></clipPath><g clip-path="url(#_clip18)"><rect x="90.247" y="26.244" width="20.144" height="11.574" style="fill:#444e59;fill-opacity:0.2;"/></g><path d="M95.845,37.039l8.922,-0" style="fill:none;fill-rule:nonzero;stroke:#444e59;stroke-opacity:0.2;stroke-width:3px;"/><path d="M95.845,40.009l8.922,0" style="fill:none;fill-rule:nonzero;stroke:#444e59;stroke-opacity:0.2;stroke-width:3px;"/><g opacity="0.2"><g><clipPath id="_clip19"><path d="M120.605,40.377l-11.588,0c-0.29,0 -0.528,-0.236 -0.528,-0.525l0,-9.306c0,-0.289 0.238,-0.526 0.528,-0.526l11.588,0c0.29,0 0.528,0.237 0.528,0.526l-0,9.306c-0,0.289 -0.238,0.525 -0.528,0.525Z" clip-rule="nonzero"/></clipPath><g clip-path="url(#_clip19)"><rect x="108" y="29.145" width="14.25" height="12" style="fill:#444e59;"/></g></g></g><g opacity="0.09"><clipPath id="_clip20"><path d="M120.236,43.348l-11.034,-0c-0.423,-0 -0.739,-0.342 -0.739,-0.736c-0,-0.395 0.343,-0.736 0.739,-0.736l11.034,-0c0.422,-0 0.739,0.341 0.739,0.736c-0,0.394 -0.344,0.736 -0.74,0.736Z" clip-rule="nonzero"/></clipPath><g clip-path="url(#_clip20)"><rect x="108" y="41.145" width="13.5" height="2.25" style="fill:#444e59;"/></g></g><clipPath id="_clip21"><path d="M38.259,72.158l-21.268,-0c-0.264,-0 -0.501,0.078 -0.686,0.26l-5.145,4.42c-0.475,0.416 -0.475,1.144 -0,1.533l5.145,4.498c0.185,0.156 0.422,0.312 0.686,0.312l21.268,0c1.214,0 2.217,-1.092 2.217,-2.288l-0,-6.629c-0.026,-1.144 -1.003,-2.106 -2.217,-2.106Zm-21.848,6.733c-0.713,0 -1.32,-0.572 -1.32,-1.299c0,-0.728 0.581,-1.3 1.32,-1.3c0.739,-0 1.319,0.572 1.319,1.3c0,0.727 -0.58,1.299 -1.319,1.299Z" clip-rule="nonzero"/></clipPath><g clip-path="url(#_clip21)"><rect x="7.053" y="68.408" width="37.173" height="18.523" style="fill:#fff;"/></g><rect x="21.873" y="72.158" width="6.201" height="11.049" style="fill:#f09f54;"/><rect x="28.074" y="72.158" width="6.201" height="11.049" style="fill:#ed8b3b;"/><clipPath id="_clip22"><path d="M37.705,83.207l-3.43,0l-0,-11.049l3.536,-0c1.451,-0 2.665,1.17 2.665,2.626l-0,5.719c-0.026,1.482 -1.267,2.704 -2.771,2.704Z" clip-rule="nonzero"/></clipPath><g clip-path="url(#_clip22)"><rect x="30.525" y="68.408" width="13.701" height="18.549" style="fill:#ff6c37;"/></g><clipPath id="_clip23"><path d="M38.84,72.704c-0.106,-0.026 -0.211,-0.026 -0.317,-0.026l-21.268,-0c-0.264,-0 -0.501,0.078 -0.686,0.26l-5.145,4.42c-0.475,0.416 -0.475,1.143 -0,1.533l3.219,2.782l3.483,0.858c0.158,0.052 0.343,0.052 0.528,0.052c0.343,0 0.659,-0.078 0.976,-0.234l18.946,-9.515c0.079,-0.026 0.185,-0.078 0.264,-0.13Zm-22.165,6.707c-0.713,0 -1.32,-0.572 -1.32,-1.299c0,-0.728 0.581,-1.3 1.32,-1.3c0.738,-0 1.319,0.572 1.319,1.3c-0,0.727 -0.581,1.299 -1.319,1.299Z" clip-rule="nonzero"/></clipPath><g clip-path="url(#_clip23)"><rect x="7.317" y="68.928" width="35.273" height="17.405" style="fill:#848484;fill-opacity:0.4;"/></g><path d="M38.259,72.158l-21.268,-0c-0.264,-0 -0.501,0.078 -0.686,0.26l-5.145,4.42c-0.475,0.416 -0.475,1.144 -0,1.533l5.145,4.498c0.185,0.156 0.422,0.312 0.686,0.312l21.268,0c1.214,0 2.217,-1.092 2.217,-2.288l-0,-6.629c-0.026,-1.144 -1.003,-2.106 -2.217,-2.106Zm-21.848,6.733c-0.713,0 -1.32,-0.572 -1.32,-1.299c0,-0.728 0.581,-1.3 1.32,-1.3c0.739,-0 1.319,0.572 1.319,1.3c0,0.727 -0.58,1.299 -1.319,1.299Z" style="fill:none;fill-rule:nonzero;stroke:#444e59;stroke-width:3px;"/><rect x="21.873" y="72.158" width="6.201" height="11.049" style="fill:none;stroke:#444e59;stroke-width:3px;"/><rect x="28.074" y="72.158" width="6.201" height="11.049" style="fill:none;stroke:#444e59;stroke-width:3px;"/><path d="M37.705,83.207l-3.43,0l-0,-11.049l3.536,-0c1.451,-0 2.665,1.17 2.665,2.626l-0,5.719c-0.026,1.482 -1.267,2.704 -2.771,2.704Z" style="fill:none;fill-rule:nonzero;stroke:#444e59;stroke-width:3px;"/><clipPath id="_clip24"><path d="M32.771,61.655l-18.946,9.515c-0.238,0.104 -0.396,0.312 -0.502,0.546l-2.533,6.24c-0.237,0.571 0.106,1.221 0.713,1.377l6.623,1.664c0.237,0.052 0.501,0.026 0.739,-0.078l18.946,-9.515c1.082,-0.546 1.504,-1.846 0.95,-2.886l-3.061,-5.901c-0.554,-1.092 -1.874,-1.508 -2.929,-0.962Z" clip-rule="nonzero"/></clipPath><g clip-path="url(#_clip24)"><rect x="6.964" y="57.665" width="35.79" height="27.108" style="fill:#fff;"/></g><clipPath id="_clip25"><path d="M23.678,66.212l5.524,-2.776l5.037,9.726l-5.524,2.777l-5.037,-9.727Z" clip-rule="nonzero"/></clipPath><g clip-path="url(#_clip25)"><path d="M39.284,74.798l-12.247,6.249l-8.403,-16.471l12.246,-6.248l8.404,16.47Z" style="fill:#8d91db;"/></g><path d="M32.771,61.655l-18.946,9.515c-0.238,0.104 -0.396,0.312 -0.502,0.546l-2.533,6.24c-0.237,0.571 0.106,1.221 0.713,1.377l6.623,1.664c0.237,0.052 0.501,0.026 0.739,-0.078l18.946,-9.515c1.082,-0.546 1.504,-1.846 0.95,-2.886l-3.061,-5.901c-0.554,-1.092 -1.874,-1.508 -2.929,-0.962Z" style="fill:none;fill-rule:nonzero;stroke:#444e59;stroke-width:3px;"/><clipPath id="_clip26"><path d="M15.83,77.8c0.845,-0 1.531,-0.676 1.531,-1.508c-0,-0.833 -0.686,-1.508 -1.531,-1.508c-0.845,-0 -1.53,0.675 -1.53,1.508c-0,0.832 0.685,1.508 1.53,1.508Z" clip-rule="nonzero"/></clipPath><g clip-path="url(#_clip26)"><rect x="10.55" y="71.034" width="10.561" height="10.516" style="fill:#444e59;"/></g><clipPath id="_clip27"><path d="M18.143,69.003l5.523,-2.776l5.037,9.726l-5.523,2.777l-5.037,-9.727Z" clip-rule="nonzero"/></clipPath><g clip-path="url(#_clip27)"><path d="M33.748,77.589l-12.247,6.249l-8.403,-16.471l12.247,-6.248l8.403,16.47Z" style="fill:#beccd5;"/></g><path d="M18.143,69.003l5.523,-2.776l5.037,9.726l-5.523,2.777l-5.037,-9.727Z" style="fill:none;fill-rule:nonzero;stroke:#444e59;stroke-width:3px;"/><path d="M18.143,69.003l5.523,-2.776l5.037,9.726l-5.523,2.777l-5.037,-9.727Z" style="fill:none;fill-rule:nonzero;stroke:#444e59;stroke-width:3px;"/><path d="M23.678,66.212l5.524,-2.776l5.037,9.726l-5.524,2.777l-5.037,-9.727Z" style="fill:none;fill-rule:nonzero;stroke:#444e59;stroke-width:3px;"/><clipPath id="_clip28"><path d="M37.389,71.586l-3.167,1.586l-5.04,-9.723l3.167,-1.586c1.293,-0.65 2.876,-0.156 3.562,1.144l2.639,5.095c0.659,1.274 0.132,2.834 -1.161,3.484Z" clip-rule="nonzero"/></clipPath><g clip-path="url(#_clip28)"><rect x="25.432" y="57.828" width="17.152" height="19.094" style="fill:#6567c3;"/></g><path d="M37.389,71.586l-3.167,1.586l-5.04,-9.723l3.167,-1.586c1.293,-0.65 2.876,-0.156 3.562,1.144l2.639,5.095c0.659,1.274 0.132,2.834 -1.161,3.484Z" style="fill:none;fill-rule:nonzero;stroke:#444e59;stroke-width:3px;"/><clipPath id="_clip29"><path d="M63.65,83.683l-17.386,0c-1.421,0 -2.583,-1.19 -2.583,-2.644l-0,-35.671c-0,-1.454 1.162,-2.644 2.583,-2.644l17.386,0c1.421,0 2.583,1.19 2.583,2.644l0,35.671c0,1.481 -1.162,2.644 -2.583,2.644Z" clip-rule="nonzero"/></clipPath><g clip-path="url(#_clip29)"><rect x="39.931" y="38.974" width="30.053" height="48.459" style="fill:#fff;"/></g><clipPath id="_clip30"><path d="M66.595,55.02l-22.914,-0l-0,-9.704c-0,-1.428 1.137,-2.592 2.532,-2.592l17.695,0c1.473,0 2.661,1.243 2.661,2.724l0,9.572l0.026,-0Z" clip-rule="nonzero"/></clipPath><g clip-path="url(#_clip30)"><rect x="39.931" y="38.974" width="30.414" height="19.796" style="fill:#6567c3;"/></g><path d="M63.65,83.683l-17.386,0c-1.421,0 -2.583,-1.19 -2.583,-2.644l-0,-35.671c-0,-1.454 1.162,-2.644 2.583,-2.644l17.386,0c1.421,0 2.583,1.19 2.583,2.644l0,35.671c0,1.481 -1.162,2.644 -2.583,2.644Z" style="fill:none;fill-rule:nonzero;stroke:#444e59;stroke-width:3px;"/><clipPath id="_clip31"><path d="M63.676,83.683l-17.334,0c-1.473,0 -2.687,-1.242 -2.687,-2.75l0,-5.077l22.578,0l0,5.21c0,1.454 -1.162,2.617 -2.557,2.617Z" clip-rule="nonzero"/></clipPath><g clip-path="url(#_clip31)"><rect x="39.905" y="72.106" width="30.078" height="15.327" style="fill:#bbbfc2;"/></g><path d="M63.728,83.683l-17.386,0c-1.473,0 -2.687,-1.242 -2.687,-2.75l0,-5.077l22.578,0l0,5.262c0,1.428 -1.136,2.565 -2.506,2.565Z" style="fill:none;fill-rule:nonzero;stroke:#444e59;stroke-width:3px;"/><clipPath id="_clip32"><path d="M55.125,80.933c0.713,0 1.292,-0.592 1.292,-1.322c-0,-0.73 -0.579,-1.322 -1.292,-1.322c-0.713,0 -1.292,0.592 -1.292,1.322c0,0.73 0.579,1.322 1.292,1.322Z" clip-rule="nonzero"/></clipPath><g clip-path="url(#_clip32)"><rect x="50.083" y="74.539" width="10.083" height="10.144" style="fill:#444e59;"/></g><path d="M48.77,59.118l12.736,0" style="fill:none;fill-rule:nonzero;stroke:#444e59;stroke-opacity:0.3;stroke-width:3px;"/><path d="M51.302,63.217l8.008,-0" style="fill:none;fill-rule:nonzero;stroke:#444e59;stroke-opacity:0.3;stroke-width:3px;"/><path d="M48.77,66.945l12.736,0" style="fill:none;fill-rule:nonzero;stroke:#444e59;stroke-opacity:0.3;stroke-width:3px;"/><clipPath id="_clip33"><path d="M55.125,52.772c1.598,0 2.893,-1.326 2.893,-2.961c0,-1.636 -1.295,-2.962 -2.893,-2.962c-1.598,0 -2.893,1.326 -2.893,2.962c-0,1.635 1.295,2.961 2.893,2.961Z" clip-rule="nonzero"/></clipPath><g clip-path="url(#_clip33)"><rect x="48.482" y="43.099" width="13.287" height="13.423" style="fill:#fff;fill-opacity:0.62;"/></g><clipPath id="_clip34"><path d="M59.31,71.044c0,0.82 -0.646,1.481 -1.447,1.481l-5.451,-0c-0.8,-0 -1.446,-0.661 -1.446,-1.481c-0,-0.82 0.646,-1.481 1.446,-1.481l5.451,0c0.801,-0.026 1.447,0.635 1.447,1.481Z" clip-rule="nonzero"/></clipPath><g clip-path="url(#_clip34)"><rect x="47.216" y="65.812" width="15.844" height="10.462" style="fill:#ed8b3b;"/></g><clipPath id="_clip35"><path d="M201.174,78.094l-63.849,-0l0,-38.504c0,-1.137 0.922,-2.063 2.055,-2.063l59.765,0c1.107,0 2.003,0.899 2.003,2.01l-0,38.557l0.026,-0Z" clip-rule="nonzero"/></clipPath><g clip-path="url(#_clip35)"><rect x="133.575" y="33.777" width="71.349" height="48.067" style="fill:#bbbfc2;"/></g><path d="M201.332,78.173l-63.823,0l0,-38.61c0,-1.163 0.949,-2.115 2.109,-2.115l59.606,-0c1.16,-0 2.108,0.952 2.108,2.115l0,38.61Z" style="fill:none;fill-rule:nonzero;stroke:#444e59;stroke-width:3px;"/><g><clipPath id="_clip36"><rect x="141.048" y="40.866" width="56.787" height="33.903" clip-rule="nonzero"/></clipPath><g clip-path="url(#_clip36)"><path d="M137.298,78.519l-0,-41.403l64.287,0l-0,41.403l-64.287,-0Z" style="fill:#5d5d5d;fill-opacity:0.71;"/><clipPath id="_clip37"><path d="M154.928,68.309l-4.902,0c-0.29,0 -0.527,-0.238 -0.527,-0.529l0,-16.845c0,-0.291 0.237,-0.529 0.527,-0.529l4.902,-0c0.29,-0 0.527,0.238 0.527,0.529l-0,16.872c-0,0.264 -0.237,0.502 -0.527,0.502Z" clip-rule="nonzero"/></clipPath><g clip-path="url(#_clip37)"><rect x="145.749" y="46.656" width="13.455" height="25.403" style="fill:#848484;fill-opacity:0.32;"/></g><clipPath id="_clip38"><path d="M190.318,71.721l-28.302,-0c-0.58,-0 -1.054,-0.476 -1.054,-1.058l0,-21.712c0,-0.581 0.474,-1.057 1.054,-1.057l28.302,-0c0.579,-0 1.054,0.476 1.054,1.057l-0,21.712c-0,0.582 -0.448,1.058 -1.054,1.058Z" clip-rule="nonzero"/></clipPath><g clip-path="url(#_clip38)"><rect x="157.212" y="44.144" width="37.91" height="31.327" style="fill:#848484;fill-opacity:0.32;"/></g></g></g><path d="M141.05,74.608l0,-33.611l56.735,-0l-0,33.611l-56.735,0Z" style="fill:none;stroke:#444e59;stroke-width:3px;"/><clipPath id="_clip39"><path d="M208.289,78.173l-77.763,0l0,2.486c0,1.164 0.949,2.116 2.108,2.116l73.547,-0c1.16,-0 2.108,-0.952 2.108,-2.116l0,-2.486Z" clip-rule="nonzero"/></clipPath><g clip-path="url(#_clip39)"><rect x="126.776" y="74.423" width="85.263" height="12.101" style="fill:#fff;"/></g><clipPath id="_clip40"><path d="M133.504,82.933l71.834,0c1.449,0 2.635,-1.11 2.898,-2.618l-77.657,0c0.264,1.508 1.476,2.618 2.925,2.618Z" clip-rule="nonzero"/></clipPath><g clip-path="url(#_clip40)"><rect x="126.829" y="76.565" width="85.157" height="10.118" style="fill:#bbbfc2;fill-opacity:0.8;"/></g><path d="M208.289,78.173l-77.763,0l0,2.486c0,1.164 0.949,2.116 2.108,2.116l73.547,-0c1.159,-0 2.108,-0.952 2.108,-2.116l0,-2.486Z" style="fill:none;fill-rule:nonzero;stroke:#444e59;stroke-width:3px;"/><rect x="148.103" y="49.057" width="5.929" height="5.95" style="fill:#f09f54;"/><rect x="148.208" y="49.11" width="5.929" height="5.95" style="fill:none;stroke:#444e59;stroke-width:3px;"/><rect x="148.208" y="49.11" width="5.929" height="5.95" style="fill:none;stroke:#444e59;stroke-width:3px;"/><rect x="148.103" y="55.007" width="5.929" height="5.95" style="fill:#8d91db;"/><rect x="148.208" y="55.087" width="5.929" height="5.95" style="fill:none;stroke:#444e59;stroke-width:3px;"/><rect x="148.103" y="60.957" width="5.929" height="5.95" style="fill:#6567c3;"/><rect x="148.208" y="61.037" width="5.929" height="5.95" style="fill:none;stroke:#444e59;stroke-width:3px;"/><clipPath id="_clip41"><path d="M188.605,69.896l-28.328,-0c-0.58,-0 -1.054,-0.476 -1.054,-1.058l-0,-21.711c-0,-0.582 0.474,-1.058 1.054,-1.058l28.328,-0c0.579,-0 1.054,0.476 1.054,1.058l-0,21.711c-0,0.608 -0.475,1.058 -1.054,1.058Z" clip-rule="nonzero"/></clipPath><g clip-path="url(#_clip41)"><rect x="155.473" y="42.319" width="37.936" height="31.327" style="fill:#fff;"/></g><path d="M188.605,69.896l-28.328,-0c-0.58,-0 -1.054,-0.476 -1.054,-1.058l-0,-21.711c-0,-0.582 0.474,-1.058 1.054,-1.058l28.328,-0c0.579,-0 1.054,0.476 1.054,1.058l-0,21.711c-0,0.608 -0.475,1.058 -1.054,1.058Z" style="fill:none;fill-rule:nonzero;stroke:#444e59;stroke-width:3px;"/><g opacity="0.3"><path d="M180.752,63.628l0,0.397l-0.395,0" style="fill:none;fill-rule:nonzero;stroke:#444e59;stroke-width:1.5px;stroke-linecap:butt;"/><path d="M179.856,64.025l-11.041,0" style="fill:none;fill-rule:nonzero;stroke:#444e59;stroke-width:1.5px;stroke-linecap:butt;stroke-dasharray:2.14,1.43;"/><path d="M168.551,64.025l-0.395,0l0,-0.397" style="fill:none;fill-rule:nonzero;stroke:#444e59;stroke-width:1.5px;stroke-linecap:butt;"/><path d="M168.156,63.073l0,-10.314" style="fill:none;fill-rule:nonzero;stroke:#444e59;stroke-width:1.5px;stroke-linecap:butt;stroke-dasharray:2.25,1.5;"/><path d="M168.156,52.495l0,-0.397l0.395,0" style="fill:none;fill-rule:nonzero;stroke:#444e59;stroke-width:1.5px;stroke-linecap:butt;"/><path d="M169.052,52.098l11.041,0" style="fill:none;fill-rule:nonzero;stroke:#444e59;stroke-width:1.5px;stroke-linecap:butt;stroke-dasharray:2.14,1.43;"/><path d="M180.357,52.098l0.395,0l0,0.397" style="fill:none;fill-rule:nonzero;stroke:#444e59;stroke-width:1.5px;stroke-linecap:butt;"/><path d="M180.752,53.024l0,10.34" style="fill:none;fill-rule:nonzero;stroke:#444e59;stroke-width:1.5px;stroke-linecap:butt;stroke-dasharray:2.25,1.5;"/></g><rect x="167.286" y="51.173" width="1.871" height="1.878" style="fill:#fff;"/><rect x="167.207" y="51.093" width="1.845" height="1.851" style="fill:none;stroke:#444e59;stroke-width:0.75px;stroke-linecap:butt;"/><rect x="167.286" y="63.073" width="1.871" height="1.878" style="fill:#fff;"/><rect x="167.207" y="63.02" width="1.845" height="1.851" style="fill:none;stroke:#444e59;stroke-width:0.75px;stroke-linecap:butt;"/><rect x="179.83" y="51.173" width="1.871" height="1.878" style="fill:#fff;"/><rect x="179.83" y="51.093" width="1.845" height="1.851" style="fill:none;stroke:#444e59;stroke-width:0.75px;stroke-linecap:butt;"/><rect x="179.83" y="63.073" width="1.871" height="1.878" style="fill:#fff;"/><rect x="179.83" y="63.02" width="1.845" height="1.851" style="fill:none;stroke:#444e59;stroke-width:0.75px;stroke-linecap:butt;"/><clipPath id="_clip42"><path d="M151.186,58.154l1.871,4.02l1.818,0.952l1.265,-1.269l-0.922,-1.852l-4.032,-1.851Z" clip-rule="nonzero"/></clipPath><g clip-path="url(#_clip42)"><rect x="147.436" y="54.404" width="12.454" height="12.472" style="fill:#fff;"/></g><path d="M151.186,58.154l1.871,4.02l1.818,0.952l1.265,-1.269l-0.922,-1.852l-4.032,-1.851Z" style="fill:none;fill-rule:nonzero;stroke:#444e59;stroke-width:0.75px;stroke-linecap:butt;"/><clipPath id="_clip43"><path d="M153.557,60.931c0.277,-0 0.501,-0.225 0.501,-0.502c0,-0.278 -0.224,-0.503 -0.501,-0.503c-0.276,0 -0.5,0.225 -0.5,0.503c-0,0.277 0.224,0.502 0.5,0.502Z" clip-rule="nonzero"/></clipPath><g clip-path="url(#_clip43)"><rect x="149.307" y="56.176" width="8.501" height="8.505" style="fill:#444e59;"/></g><path d="M151.186,58.154l2.082,2.089" style="fill:none;fill-rule:nonzero;stroke:#444e59;stroke-width:0.75px;"/><clipPath id="_clip44"><path d="M154.881,63.107l1.267,-1.271l0.913,0.916l-1.267,1.271l-0.913,-0.916Z" clip-rule="nonzero"/></clipPath><g clip-path="url(#_clip44)"><path d="M162.368,62.753l-6.574,6.574l-6.22,-6.22l6.574,-6.575l6.22,6.221Z" style="fill:#fff;"/></g><path d="M156.144,61.839l-1.263,1.268l0.916,0.913l1.264,-1.268l-0.917,-0.913Z" style="fill:none;stroke:#444e59;stroke-width:0.75px;stroke-linecap:butt;"/></svg>