<?xml version="1.0" encoding="UTF-8" standalone="no"?><!DOCTYPE svg PUBLIC "-//W3C//DTD SVG 1.1//EN" "http://www.w3.org/Graphics/SVG/1.1/DTD/svg11.dtd"><svg width="100%" height="100%" viewBox="0 0 184 128" version="1.1" xmlns="http://www.w3.org/2000/svg" xmlns:xlink="http://www.w3.org/1999/xlink" xml:space="preserve" xmlns:serif="http://www.serif.com/" style="fill-rule:evenodd;clip-rule:evenodd;stroke-linejoin:round;stroke-miterlimit:2;"><path d="M44.603,110.423c-0.323,-0.074 -0.66,0.034 -0.878,0.282c-0,0 -0.749,0.638 -0.229,2.615c0.547,2.08 2.766,6.293 10.678,14.187c0.258,0.257 0.645,0.334 0.981,0.194c0.336,-0.139 0.555,-0.467 0.555,-0.831c-0,-1.957 -0.241,-4.018 -0.093,-5.924c0.099,-1.28 0.376,-2.488 1.099,-3.513c0.722,-1.025 1.889,-1.851 3.705,-2.425c0.402,-0.127 0.662,-0.515 0.626,-0.935c-0.036,-0.42 -0.359,-0.759 -0.777,-0.815c-8.177,-1.104 -15.667,-2.835 -15.667,-2.835Zm0.548,1.966c0.014,0.142 0.041,0.301 0.086,0.473c0.479,1.822 2.392,5.314 8.606,11.743c-0.057,-1.285 -0.116,-2.573 -0.021,-3.798c0.126,-1.612 0.512,-3.12 1.423,-4.411c0.46,-0.653 1.055,-1.255 1.826,-1.783c-5.333,-0.823 -9.987,-1.8 -11.92,-2.224Z" style="fill:#272130;"/><clipPath id="_clip1"><path d="M44.4,111.3c0,0 -2.43,2.76 10.41,15.57c0,-4.95 -1.5,-10.56 5.34,-12.72c-8.22,-1.11 -15.75,-2.85 -15.75,-2.85Z" clip-rule="nonzero"/></clipPath><g clip-path="url(#_clip1)"><rect x="40.467" y="107.55" width="23.433" height="23.07" style="fill:#372e42;"/></g><clipPath id="_clip2"><path d="M104.25,107.55c0,0 9.78,3.42 14.28,3.42c4.5,0 8.1,-1.71 8.1,-1.71l-4.5,-1.71c6.6,0 11.55,-4.98 11.55,-4.98l-5.25,-1.2c6.45,-1.11 9.3,-7.8 9.3,-7.8c-1.2,-0 -9.78,-1.38 -9.78,-3.39c-7.74,7.74 -19.77,15.78 -23.7,17.37Z" clip-rule="nonzero"/></clipPath><g clip-path="url(#_clip2)"><rect x="100.5" y="86.43" width="40.98" height="28.29" style="fill:#372e42;"/></g><clipPath id="_clip3"><path d="M127.95,90.18c-7.74,7.74 -19.77,15.78 -23.7,17.37c0,0 6.87,2.4 11.73,3.18c0.87,-1.08 1.68,-2.04 2.19,-2.55c1.56,-1.56 8.07,-2.49 8.07,-4.35c0,-1.86 -1.59,-2.79 2.22,-4.92c3.81,-2.13 3.42,-3.87 3.42,-3.87l0.42,-2.4c-2.22,-0.63 -4.35,-1.47 -4.35,-2.46Z" clip-rule="nonzero"/></clipPath><g clip-path="url(#_clip3)"><rect x="100.5" y="86.43" width="35.55" height="28.05" style="fill:#2d2638;fill-opacity:0.83;"/></g><path d="M111.152,104.229c-0,-0 1.09,1.225 2.434,2.205c0.971,0.708 2.077,1.266 3.024,1.266c0.331,-0 0.6,-0.269 0.6,-0.6c0,-0.331 -0.269,-0.6 -0.6,-0.6c-0.733,-0 -1.566,-0.488 -2.317,-1.036c-1.24,-0.903 -2.245,-2.033 -2.245,-2.033c-0.22,-0.247 -0.599,-0.269 -0.847,-0.049c-0.247,0.22 -0.269,0.599 -0.049,0.847Z" style="fill:#272130;"/><path d="M123.9,103.23c-1.358,-0 -2.443,-0.626 -3.26,-1.366c-1.278,-1.155 -1.922,-2.598 -1.922,-2.598c-0.134,-0.302 -0.489,-0.439 -0.792,-0.304c-0.302,0.134 -0.439,0.489 -0.304,0.792c-0,-0 0.738,1.667 2.213,3c1.017,0.92 2.375,1.676 4.065,1.676c0.331,0 0.6,-0.269 0.6,-0.6c0,-0.331 -0.269,-0.6 -0.6,-0.6Z" style="fill:#272130;"/><path d="M123.9,96.87l4.71,0c0.331,0 0.6,-0.269 0.6,-0.6c0,-0.331 -0.269,-0.6 -0.6,-0.6l-4.71,0c-0.331,-0 -0.6,0.269 -0.6,0.6c-0,0.331 0.269,0.6 0.6,0.6Z" style="fill:#272130;"/><path d="M125.791,107.978l1.159,0.441c0.337,0.128 0.565,0.445 0.579,0.805c0.015,0.36 -0.187,0.694 -0.513,0.849c0,-0 -3.771,1.797 -8.486,1.797c-4.592,-0 -14.577,-3.47 -14.577,-3.47c-0.354,-0.124 -0.594,-0.454 -0.603,-0.828c-0.009,-0.375 0.215,-0.716 0.562,-0.856c3.883,-1.571 15.756,-9.527 23.402,-17.172c0.257,-0.258 0.644,-0.335 0.98,-0.195c0.323,0.133 0.538,0.441 0.554,0.787c0.025,0.03 0.118,0.143 0.196,0.206c0.277,0.226 0.676,0.431 1.141,0.627c2.484,1.047 6.742,1.701 7.545,1.701c0.302,-0 0.584,0.152 0.751,0.404c0.166,0.252 0.195,0.571 0.077,0.849c-0,-0 -2.119,4.935 -6.8,7.285l2.123,0.485c0.318,0.072 0.573,0.313 0.663,0.627c0.091,0.314 0.005,0.653 -0.226,0.884c0,0 -3.472,3.486 -8.527,4.774Zm1.979,-16.36c-6.743,6.519 -16.194,13.077 -21.151,15.773c3.066,0.986 8.787,2.679 11.911,2.679c2.171,-0 4.123,-0.417 5.519,-0.828l-2.239,-0.851c-0.406,-0.154 -0.644,-0.576 -0.565,-1.004c0.078,-0.427 0.451,-0.737 0.885,-0.737c4.267,-0 7.802,-2.206 9.61,-3.6l-3.511,-0.803c-0.418,-0.095 -0.71,-0.473 -0.699,-0.901c0.012,-0.429 0.325,-0.79 0.747,-0.863c4.399,-0.757 6.987,-4.317 8.052,-6.158c-1.822,-0.26 -4.854,-0.859 -6.843,-1.697c-0.724,-0.305 -1.319,-0.651 -1.716,-1.01Z" style="fill:#272130;"/><clipPath id="_clip4"><path d="M24.36,42.12c5.468,0 9.9,-4.835 9.9,-10.8c0,-5.965 -4.432,-10.8 -9.9,-10.8c-5.468,0 -9.9,4.835 -9.9,10.8c-0,5.965 4.432,10.8 9.9,10.8Z" clip-rule="nonzero"/></clipPath><g clip-path="url(#_clip4)"><rect x="10.71" y="16.77" width="27.3" height="29.1" style="fill:#fff;"/></g><clipPath id="_clip5"><path d="M21.15,35.85c1.905,-0 3.45,-1.585 3.45,-3.54c-0,-1.955 -1.545,-3.54 -3.45,-3.54c-1.905,-0 -3.45,1.585 -3.45,3.54c-0,1.955 1.545,3.54 3.45,3.54Z" clip-rule="nonzero"/></clipPath><g clip-path="url(#_clip5)"><rect x="13.95" y="25.02" width="14.4" height="14.58" style="fill:#1e1826;"/></g><clipPath id="_clip6"><path d="M20.31,32.67c0.845,0 1.53,-0.698 1.53,-1.56c-0,-0.862 -0.685,-1.56 -1.53,-1.56c-0.845,0 -1.53,0.698 -1.53,1.56c0,0.862 0.685,1.56 1.53,1.56Z" clip-rule="nonzero"/></clipPath><g clip-path="url(#_clip6)"><rect x="15.03" y="25.8" width="10.56" height="10.62" style="fill:#fff;"/></g><clipPath id="_clip7"><path d="M22.02,34.74c0.315,0 0.57,-0.255 0.57,-0.57c-0,-0.315 -0.255,-0.57 -0.57,-0.57c-0.315,0 -0.57,0.255 -0.57,0.57c0,0.315 0.255,0.57 0.57,0.57Z" clip-rule="nonzero"/></clipPath><g clip-path="url(#_clip7)"><rect x="17.7" y="29.85" width="8.64" height="8.64" style="fill:#fff;"/></g><path d="M24.36,43.02c5.938,-0 10.8,-5.222 10.8,-11.7c0,-6.478 -4.862,-11.7 -10.8,-11.7c-5.938,0 -10.8,5.222 -10.8,11.7c-0,6.478 4.862,11.7 10.8,11.7Zm-0,-1.8c-4.99,-0 -9,-4.457 -9,-9.9c-0,-5.443 4.01,-9.9 9,-9.9c4.99,-0 9,4.457 9,9.9c-0,5.443 -4.01,9.9 -9,9.9Z" style="fill:#204751;"/><clipPath id="_clip8"><path d="M75.51,17.58c-0,0 9,-16.68 31.95,-16.68c-3.15,3.15 -3.15,6.3 -3.15,6.3c-0,0 8.43,-3.24 15.75,-0.9c-4.95,4.95 -4.95,7.65 -4.95,7.65c4.95,-4.95 15.54,1.41 17.37,3.27c-9.84,3.6 -6.99,4.17 -6.99,4.17c0,0 5.94,-0.03 11.61,5.64c-5.76,1.77 -12.36,4.32 -11.34,11.67c-6.12,-5.67 -6.63,-10.74 -50.25,-21.12Z" clip-rule="nonzero"/></clipPath><g clip-path="url(#_clip8)"><rect x="71.76" y="-2.85" width="69.09" height="45.3" style="fill:#372e42;"/></g><clipPath id="_clip9"><path d="M128.49,31.05l-2.22,-3.81c0,0 -5.4,-2.1 -8.07,-4.77c-2.67,-2.67 -3.99,-3.09 -6.57,-5.67c-2.58,-2.58 -5.37,-3.12 -8.82,-3.12c-3.45,-0 -6.6,-3.33 -8.28,-5.01c-0.84,-0.84 -5.55,-0.84 -10.05,-0.63c-6.24,4.53 -8.94,9.54 -8.94,9.54c43.59,10.38 44.1,15.45 50.19,21.09c-0.48,-3.45 0.75,-5.85 2.76,-7.62Z" clip-rule="nonzero"/></clipPath><g clip-path="url(#_clip9)"><rect x="71.79" y="4.173" width="60.45" height="38.247" style="fill:#2d2638;fill-opacity:0.83;"/></g><path d="M88.286,19.055c0,-0 5.47,-7.166 10.919,-9.847c0.297,-0.146 0.42,-0.506 0.273,-0.803c-0.146,-0.297 -0.506,-0.42 -0.803,-0.273c-5.651,2.779 -11.341,10.193 -11.341,10.193c-0.202,0.263 -0.152,0.64 0.111,0.841c0.263,0.202 0.64,0.152 0.841,-0.111Z" style="fill:#272130;"/><path d="M97.236,20.91c0,-0 4.693,-5.468 14.594,-8.974c0.312,-0.111 0.476,-0.454 0.366,-0.766c-0.111,-0.312 -0.454,-0.476 -0.766,-0.366c-10.259,3.634 -15.106,9.326 -15.106,9.326c-0.215,0.252 -0.186,0.631 0.066,0.846c0.252,0.215 0.631,0.186 0.846,-0.066Z" style="fill:#272130;"/><path d="M106.744,25.172c0,0 5.725,-6.613 15.589,-6.992c0.331,-0.013 0.589,-0.292 0.577,-0.623c-0.013,-0.331 -0.292,-0.589 -0.623,-0.577c-10.416,0.401 -16.451,7.408 -16.451,7.408c-0.217,0.251 -0.189,0.63 0.062,0.846c0.251,0.217 0.63,0.189 0.846,-0.062Z" style="fill:#272130;"/><path d="M114.602,30.219c-0,-0 8.278,-4.839 14.008,-4.839c0.331,0 0.6,-0.269 0.6,-0.6c0,-0.331 -0.269,-0.6 -0.6,-0.6c-5.971,0 -14.612,5.001 -14.612,5.001c-0.286,0.167 -0.383,0.534 -0.217,0.821c0.167,0.286 0.534,0.383 0.821,0.217Z" style="fill:#272130;"/><path d="M126.825,20.609c2.163,0.318 6.616,1.489 10.911,5.785c0.224,0.223 0.314,0.547 0.237,0.853c-0.076,0.306 -0.307,0.551 -0.609,0.643c-2.236,0.687 -4.604,1.489 -6.576,2.668c-2.745,1.642 -4.688,4.046 -4.137,8.018c0.053,0.377 -0.138,0.746 -0.475,0.922c-0.337,0.176 -0.749,0.121 -1.028,-0.138c-6.069,-5.622 -6.591,-10.611 -49.846,-20.904c-0.272,-0.065 -0.499,-0.253 -0.613,-0.508c-0.115,-0.255 -0.104,-0.549 0.029,-0.795c-0,-0 9.206,-17.153 32.742,-17.153c0.364,-0 0.692,0.219 0.831,0.556c0.14,0.336 0.063,0.723 -0.195,0.98c-1.633,1.633 -2.342,3.259 -2.649,4.347c2.802,-0.826 9.171,-2.267 14.887,-0.44c0.299,0.095 0.527,0.34 0.601,0.645c0.074,0.305 -0.017,0.626 -0.239,0.848c-2.05,2.051 -3.204,3.67 -3.853,4.834c1.856,-0.724 4.022,-0.696 6.185,-0.222c4.499,0.986 8.943,3.872 10.094,5.041c0.214,0.218 0.303,0.53 0.236,0.829c-0.067,0.298 -0.281,0.542 -0.569,0.647c-3.205,1.173 -4.998,1.975 -5.964,2.544Zm-21.358,-18.765c-17.615,0.778 -26.257,11.731 -28.536,15.15c38.82,9.322 42.864,14.391 47.847,19.481c0.25,-3.493 2.316,-5.805 5.086,-7.462c1.662,-0.993 3.586,-1.743 5.496,-2.374c-5.003,-4.34 -9.865,-4.349 -9.865,-4.349c-0.066,0 -0.131,-0.007 -0.195,-0.02c-0,-0 -0.004,-0.001 -0.012,-0.003c-0.068,-0.015 -0.417,-0.112 -0.67,-0.333c-0.3,-0.264 -0.507,-0.647 -0.376,-1.188c0.064,-0.263 0.257,-0.661 0.853,-1.123c0.734,-0.568 2.328,-1.433 5.599,-2.694c-1.747,-1.229 -4.89,-2.93 -8.051,-3.623c-2.551,-0.559 -5.133,-0.483 -6.897,1.28c-0.257,0.258 -0.644,0.335 -0.98,0.195c-0.337,-0.139 -0.556,-0.467 -0.556,-0.831c0,-0 -0.09,-2.556 4.148,-7.175c-6.665,-1.463 -13.725,1.265 -13.725,1.265c-0.277,0.106 -0.588,0.07 -0.833,-0.098c-0.244,-0.168 -0.39,-0.446 -0.39,-0.742c0,-0 -0.031,-2.494 2.057,-5.356Z" style="fill:#272130;"/><clipPath id="_clip10"><path d="M131.94,54.18c0,0 4.59,4.02 11.79,1.5c7.2,-2.52 25.41,-21.72 38.79,-18.3c0,0 -6.99,6.21 -5.4,14.79c1.59,8.61 -4.2,15.39 -4.2,15.39c0,0 4.8,3.21 0,8.01c-4.8,4.8 -12.69,3.51 -11.79,9.9c0.9,6.39 5.61,6.69 6.6,12.3c0.99,5.61 -1.2,18.21 4.8,21c-0,0 -6.39,11.79 -24.6,-22.41c-8.4,-15.93 -10.59,-18.39 -15.99,-18.39c-1.8,-4.8 0,-23.79 0,-23.79Z" clip-rule="nonzero"/></clipPath><g clip-path="url(#_clip10)"><rect x="127.39" y="33.223" width="58.88" height="91.26" style="fill:#372e42;"/></g><clipPath id="_clip11"><path d="M131.94,54.18c0,0 -1.8,18.99 0,23.79c5.4,0 7.59,2.46 15.99,18.39c0.03,0.06 0.06,0.12 0.09,0.18c2.04,-5.16 2.19,-15.6 2.19,-19.08c-0,-4.71 5.46,-7.14 6.6,-13.8c0.66,-3.84 -1.62,-9.69 -3.69,-13.98c-3.87,2.82 -7.17,5.22 -9.42,6c-7.17,2.52 -11.76,-1.5 -11.76,-1.5Z" clip-rule="nonzero"/></clipPath><g clip-path="url(#_clip11)"><rect x="127.39" y="45.93" width="33.286" height="54.36" style="fill:#2d2638;fill-opacity:0.83;"/></g><path d="M136.935,64.875c0,-0 7.461,1.744 17.585,-3.134c5.999,-2.891 9.057,-5.951 11.522,-7.941c1.504,-1.214 2.754,-2.02 4.418,-2.02c0.331,0 0.6,-0.269 0.6,-0.6c0,-0.331 -0.269,-0.6 -0.6,-0.6c-1.936,0 -3.422,0.874 -5.172,2.286c-2.417,1.951 -5.407,4.96 -11.288,7.793c-9.676,4.662 -16.795,3.046 -16.795,3.046c-0.323,-0.074 -0.645,0.128 -0.72,0.45c-0.074,0.323 0.128,0.645 0.45,0.72Z" style="fill:#272130;"/><path d="M136.77,70.98l17.01,0c9.223,0 14.993,-2.821 14.993,-2.821c0.297,-0.144 0.421,-0.504 0.276,-0.802c-0.144,-0.297 -0.504,-0.421 -0.802,-0.276c0,-0 -5.57,2.699 -14.467,2.699l-17.01,0c-0.331,0 -0.6,0.269 -0.6,0.6c0,0.331 0.269,0.6 0.6,0.6Z" style="fill:#272130;"/><path d="M136.779,74.85c0,-0 11.45,-0.183 19.69,6.292c0.261,0.204 0.638,0.159 0.843,-0.101c0.204,-0.261 0.159,-0.638 -0.101,-0.843c-8.56,-6.725 -20.45,-6.548 -20.45,-6.548c-0.331,0.005 -0.596,0.278 -0.591,0.609c0.005,0.331 0.278,0.596 0.609,0.591Z" style="fill:#272130;"/><path d="M135.262,77.049c0,-0 16.343,4.511 25.664,30.255c0.113,0.312 0.457,0.473 0.768,0.36c0.312,-0.113 0.473,-0.457 0.36,-0.768c-9.579,-26.456 -26.476,-31.005 -26.476,-31.005c-0.32,-0.087 -0.65,0.102 -0.737,0.421c-0.087,0.32 0.102,0.65 0.421,0.737Z" style="fill:#272130;"/><path d="M174.152,67.431c0.631,0.618 1.479,1.679 1.728,3.09c0.266,1.511 -0.105,3.466 -2.324,5.685c-2.487,2.488 -5.758,3.427 -8.308,4.542c-1.273,0.557 -2.357,1.134 -2.911,2.135c-0.348,0.629 -0.462,1.422 -0.316,2.461c0.418,2.964 1.734,4.507 3.045,5.967c1.517,1.691 3.019,3.292 3.55,6.303c0.595,3.369 0.045,9.258 0.806,14.033c0.454,2.849 1.337,5.307 3.487,6.307c0.226,0.105 0.397,0.298 0.475,0.533c0.078,0.236 0.056,0.494 -0.063,0.712c0,-0 -0.701,1.325 -2.305,2.02c-1.021,0.442 -2.42,0.649 -4.249,0.022c-1.64,-0.562 -3.678,-1.829 -6.135,-4.327c-3.519,-3.58 -7.975,-9.761 -13.498,-20.134c-3.334,-6.322 -5.678,-10.507 -7.638,-13.252c-2.713,-3.798 -4.59,-4.658 -7.556,-4.658c-0.375,0 -0.711,-0.233 -0.843,-0.584c-0.563,-1.501 -0.811,-4.331 -0.851,-7.56c-0.088,-7.272 0.798,-16.631 0.798,-16.631c0.032,-0.336 0.249,-0.626 0.563,-0.751c0.314,-0.125 0.672,-0.064 0.926,0.159c-0,-0 4.248,3.656 10.9,1.328c1.673,-0.586 3.952,-2.116 6.642,-4.037c4.187,-2.99 9.316,-6.922 14.639,-9.957c6.104,-3.482 12.476,-5.748 18.029,-4.329c0.322,0.082 0.573,0.336 0.652,0.66c0.078,0.323 -0.028,0.664 -0.277,0.885c-0,-0 -6.614,5.855 -5.113,13.954c1.355,7.337 -2.4,13.408 -3.853,15.424Zm6.571,-29.47c-4.756,-0.566 -10.024,1.535 -15.118,4.439c-5.268,3.004 -10.34,6.9 -14.484,9.859c-2.866,2.046 -5.311,3.647 -7.094,4.27c-5.348,1.872 -9.354,0.364 -11.323,-0.751c-0.242,2.917 -0.724,9.508 -0.658,14.926c0.032,2.597 0.176,4.916 0.559,6.379c2.621,0.102 4.578,0.873 6.883,3.517c2.3,2.637 4.989,7.282 9.236,15.337c5.405,10.15 9.747,16.211 13.192,19.715c2.186,2.224 3.975,3.387 5.434,3.887c1.925,0.659 3.155,0.032 3.809,-0.535c-1.992,-1.44 -3.029,-4.032 -3.514,-7.074c-0.76,-4.765 -0.208,-10.641 -0.801,-14.004c-0.459,-2.599 -1.807,-3.953 -3.118,-5.412c-1.516,-1.69 -3.005,-3.492 -3.487,-6.918c-0.214,-1.517 0.015,-2.666 0.523,-3.584c0.731,-1.32 2.086,-2.178 3.765,-2.913c2.37,-1.037 5.444,-1.853 7.757,-4.165c1.621,-1.622 2.018,-2.997 1.823,-4.101c-0.28,-1.591 -1.687,-2.525 -1.687,-2.525c-0.214,-0.143 -0.356,-0.37 -0.392,-0.625c-0.035,-0.254 0.041,-0.512 0.208,-0.707c-0,-0 5.512,-6.45 3.999,-14.642c-1.244,-6.712 2.475,-12.054 4.488,-14.373Z" style="fill:#272130;"/><clipPath id="_clip12"><path d="M68.97,16.8c-2.79,0 -5.55,0.12 -8.25,0.36l0.36,0.06l-1.08,0c-2.76,0.27 -5.46,0.63 -8.07,1.14l0,94.71c5.46,1.02 11.16,1.56 17.04,1.56c37.62,0 68.1,-21.9 68.1,-48.9c0,-27 -30.48,-48.93 -68.1,-48.93Z" clip-rule="nonzero"/></clipPath><g clip-path="url(#_clip12)"><rect x="48.18" y="13.05" width="92.64" height="105.33" style="fill:#4dc1c4;"/></g><clipPath id="_clip13"><path d="M91.47,19.53c21.66,8.19 36.45,24.51 36.45,43.29c-0,27 -32.7,50.16 -70.32,50.16c-2.67,0 -1.08,0.63 -3.66,0.42l-2.01,-0.36c5.46,1.02 11.16,1.56 17.04,1.56c37.62,-0 68.1,-21.9 68.1,-48.9c0,-21.36 -19.05,-39.51 -45.6,-46.17Z" clip-rule="nonzero"/></clipPath><g clip-path="url(#_clip13)"><rect x="48.18" y="15.78" width="92.64" height="102.57" style="fill:#23afab;"/></g><path d="M60.397,16.32c0.076,-0.03 0.158,-0.049 0.243,-0.056c2.726,-0.243 5.513,-0.364 8.33,-0.364c22.834,0 43.06,8.011 55.593,20.3c8.442,8.276 13.407,18.493 13.407,29.53c-0,11.037 -4.965,21.249 -13.407,29.52c-12.534,12.28 -32.759,20.28 -55.593,20.28c-5.937,-0 -11.692,-0.545 -17.205,-1.575c-0.426,-0.08 -0.735,-0.452 -0.735,-0.885l0,-94.71c-0,-0.431 0.305,-0.801 0.727,-0.883c2.638,-0.516 5.366,-0.88 8.155,-1.153c0.029,-0.003 0.059,-0.004 0.088,-0.004l0.397,0Zm-7.567,95.999c5.183,0.924 10.58,1.411 16.14,1.411c22.31,0 42.088,-7.768 54.333,-19.766c8.079,-7.915 12.867,-17.671 12.867,-28.234c0,-10.563 -4.788,-20.324 -12.867,-28.245c-12.245,-12.006 -32.023,-19.785 -54.333,-19.785c-2.509,0 -4.994,0.098 -7.432,0.294c-0.134,0.08 -0.291,0.126 -0.458,0.126l-1.035,0c-2.461,0.241 -4.873,0.555 -7.215,0.986l0,93.213Z" style="fill:#204751;"/><clipPath id="_clip14"><path d="M60.15,17.22c-4.23,0.39 -8.28,1.05 -12.21,1.95c-17.34,5.34 -31.47,22.59 -31.47,41.1l-8.52,-0.9c-3.75,-0.39 -7.05,2.49 -7.05,6.27l0,0.06c0,24.84 25.83,45.39 59.25,48.48c9.6,-13.23 15.36,-30.12 15.36,-48.48c0,-18.39 -5.76,-35.25 -15.36,-48.48Z" clip-rule="nonzero"/></clipPath><g clip-path="url(#_clip14)"><rect x="-2.85" y="13.47" width="82.11" height="104.46" style="fill:#4dc1c4;"/></g><clipPath id="_clip15"><path d="M22.02,53.34c0,0 12.27,5.16 23.07,5.16c10.8,0 14.22,-0.81 15.51,-4.98c0,0 0.63,2.79 -0.48,4.98c-1.11,2.19 -5.49,8.91 -28.14,4.29c-22.62,-3.27 -14.28,-2.4 -14.28,-2.4c-0,0 -0.51,-8.82 4.32,-7.05Z" clip-rule="nonzero"/></clipPath><g clip-path="url(#_clip15)"><rect x="12.448" y="49.355" width="52.08" height="18.772" style="fill:#23afab;"/></g><clipPath id="_clip16"><path d="M28.11,62.82c0,0 10.2,4.95 20.58,4.95c6.06,0 11.01,-2.16 13.05,-3.48c6.15,-4.02 1.98,-13.23 0,-10.11c-1.11,1.74 -2.79,6.42 -3.9,7.56c-1.11,1.14 -16.77,2.55 -18.75,2.55c-1.98,0 -10.98,-1.47 -10.98,-1.47Z" clip-rule="nonzero"/></clipPath><g clip-path="url(#_clip16)"><rect x="24.36" y="49.797" width="44.359" height="21.723" style="fill:#23afab;"/></g><clipPath id="_clip17"><path d="M22.47,60.27c0,-18.48 14.13,-35.73 31.47,-41.1c2.19,-0.51 4.41,-0.93 6.66,-1.29c-0.15,-0.24 -0.33,-0.45 -0.48,-0.69l-0.03,0c-4.2,0.39 -8.28,1.05 -12.21,1.98c-17.13,5.28 -31.17,22.2 -31.47,40.44l6.06,0.66Z" clip-rule="nonzero"/></clipPath><g clip-path="url(#_clip17)"><rect x="12.66" y="13.44" width="51.69" height="50.58" style="fill:#23afab;"/></g><clipPath id="_clip18"><path d="M6.9,65.7l0,-0.06c0,-2.76 1.8,-5.04 4.2,-5.91l-3.18,-0.33c-3.75,-0.39 -7.05,2.49 -7.05,6.27l-0,0.06c-0,24.84 25.83,45.39 59.25,48.48c0.15,-0.24 0.33,-0.45 0.48,-0.69c-30.66,-4.77 -53.7,-24.36 -53.7,-47.82Z" clip-rule="nonzero"/></clipPath><g clip-path="url(#_clip18)"><rect x="-2.88" y="55.615" width="67.23" height="62.345" style="fill:#23afab;"/></g><path d="M15.584,59.271c0.494,-18.51 14.704,-35.607 32.091,-40.961l0.064,-0.017c3.968,-0.909 8.057,-1.575 12.328,-1.969c0.317,-0.029 0.625,0.11 0.811,0.367c9.705,13.375 15.532,30.418 15.532,49.009c0,18.561 -5.827,35.634 -15.532,49.009l-0.811,0.367c-33.944,-3.138 -60.067,-24.147 -60.067,-49.376l0,-0.06c0,-4.316 3.762,-7.61 8.043,-7.165l7.541,0.796Zm44.137,-41.106c-3.992,0.39 -7.824,1.024 -11.546,1.875c-16.969,5.24 -30.805,22.113 -30.805,40.23c-0,0.255 -0.108,0.498 -0.298,0.669c-0.19,0.171 -0.443,0.253 -0.697,0.226c0,0 -8.52,-0.9 -8.518,-0.9c-3.219,-0.335 -6.057,2.131 -6.057,5.375l-0,0.06c-0,24.324 25.272,44.333 57.921,47.535c9.316,-13.023 14.889,-29.568 14.889,-47.535c0,-17.996 -5.573,-34.512 -14.889,-47.535Z" style="fill:#204751;"/><clipPath id="_clip19"><path d="M40.14,63.66c-1.89,-0.18 -3.63,-0.39 -5.19,-0.6c-0.09,-0.51 -0.12,-1.02 -0.12,-1.53c0,-3.81 2.19,-7.05 5.19,-8.16c-0.9,1.41 -1.44,3.18 -1.44,5.07c0,1.95 0.57,3.78 1.56,5.22Z" clip-rule="nonzero"/></clipPath><g clip-path="url(#_clip19)"><rect x="31.08" y="49.62" width="12.81" height="17.79" style="fill:#fff;"/></g><path d="M40.083,64.257c0.232,0.022 0.456,-0.092 0.574,-0.293c0.118,-0.201 0.109,-0.452 -0.023,-0.644c-0.925,-1.346 -1.454,-3.057 -1.454,-4.88c0,-1.769 0.503,-3.427 1.346,-4.747c0.138,-0.217 0.123,-0.499 -0.039,-0.7c-0.162,-0.2 -0.433,-0.275 -0.675,-0.186c-3.213,1.189 -5.582,4.643 -5.582,8.723c0,0.545 0.033,1.089 0.129,1.634c0.046,0.257 0.252,0.456 0.511,0.491c1.567,0.211 3.315,0.421 5.213,0.602Zm-1.44,-9.466c-1.933,1.418 -3.213,3.915 -3.213,6.739c-0,0.332 0.013,0.663 0.05,0.995c1.1,0.145 2.284,0.288 3.543,0.42c-0.669,-1.331 -1.043,-2.879 -1.043,-4.505c0,-1.292 0.238,-2.531 0.663,-3.649Z" style="fill:#fff;"/><clipPath id="_clip20"><path d="M20.58,61.2c-2.55,-0.33 -4.92,-0.66 -7.02,-0.99c-0.09,-0.69 -0.12,-1.38 -0.12,-2.1c0.15,-5.19 3.21,-9.51 7.35,-10.95c-1.29,1.89 -2.1,4.26 -2.16,6.87c-0.06,2.67 0.66,5.16 1.95,7.17Z" clip-rule="nonzero"/></clipPath><g clip-path="url(#_clip20)"><rect x="9.69" y="43.41" width="14.85" height="21.54" style="fill:#fff;"/></g><path d="M20.503,61.795c0.231,0.03 0.459,-0.077 0.584,-0.274c0.125,-0.197 0.124,-0.449 -0.002,-0.645c-1.229,-1.915 -1.912,-4.289 -1.855,-6.833c0.057,-2.486 0.827,-4.744 2.056,-6.545c0.146,-0.214 0.138,-0.497 -0.02,-0.703c-0.157,-0.205 -0.429,-0.287 -0.673,-0.202c-4.354,1.515 -7.595,6.042 -7.753,11.5l-0,0.017c-0,0.747 0.032,1.462 0.125,2.178c0.034,0.264 0.239,0.473 0.502,0.515c2.105,0.33 4.48,0.661 7.036,0.992Zm-1.174,-13.294c-3.053,1.817 -5.165,5.423 -5.289,9.617c0,0.536 0.017,1.055 0.066,1.57c1.642,0.253 3.44,0.507 5.353,0.76c-0.961,-1.89 -1.481,-4.095 -1.429,-6.432c0.046,-2.007 0.517,-3.879 1.299,-5.515Z" style="fill:#fff;"/><path d="M65.73,57.18c0,-1.046 -0.782,-2.201 -2.01,-3.219c-2.382,-1.974 -6.347,-3.613 -6.347,-3.613c-0.46,-0.189 -0.986,0.03 -1.175,0.489c-0.189,0.46 0.03,0.986 0.489,1.175c0,0 3.679,1.507 5.884,3.335c0.424,0.351 0.791,0.712 1.048,1.078c0.18,0.256 0.311,0.503 0.311,0.755c-0,0.497 0.403,0.9 0.9,0.9c0.497,0 0.9,-0.403 0.9,-0.9Z" style="fill:#204751;"/><clipPath id="_clip21"><path d="M39.09,42.78c6.627,0 12,-5.641 12,-12.6c0,-6.959 -5.373,-12.6 -12,-12.6c-6.627,0 -12,5.641 -12,12.6c-0,6.959 5.373,12.6 12,12.6Z" clip-rule="nonzero"/></clipPath><g clip-path="url(#_clip21)"><rect x="23.34" y="13.83" width="31.5" height="32.7" style="fill:#fff;"/></g><path d="M39.09,43.68c7.107,0 12.9,-6.037 12.9,-13.5c0,-7.463 -5.793,-13.5 -12.9,-13.5c-7.107,0 -12.9,6.037 -12.9,13.5c-0,7.463 5.793,13.5 12.9,13.5Zm0,-1.8c-6.139,0 -11.1,-5.254 -11.1,-11.7c0,-6.446 4.961,-11.7 11.1,-11.7c6.139,0 11.1,5.254 11.1,11.7c-0,6.446 -4.961,11.7 -11.1,11.7Z" style="fill:#204751;"/><clipPath id="_clip22"><path d="M38.13,38.67c2.651,0 4.8,-2.216 4.8,-4.95c0,-2.734 -2.149,-4.95 -4.8,-4.95c-2.651,-0 -4.8,2.216 -4.8,4.95c0,2.734 2.149,4.95 4.8,4.95Z" clip-rule="nonzero"/></clipPath><g clip-path="url(#_clip22)"><rect x="29.58" y="25.02" width="17.1" height="17.4" style="fill:#1e1826;"/></g><clipPath id="_clip23"><path d="M36.96,34.26c1.176,-0 2.13,-0.98 2.13,-2.19c0,-1.21 -0.954,-2.19 -2.13,-2.19c-1.176,-0 -2.13,0.98 -2.13,2.19c0,1.21 0.954,2.19 2.13,2.19Z" clip-rule="nonzero"/></clipPath><g clip-path="url(#_clip23)"><rect x="31.08" y="26.13" width="11.76" height="11.88" style="fill:#fff;"/></g><clipPath id="_clip24"><path d="M39.36,37.17c0.431,0 0.78,-0.363 0.78,-0.81c0,-0.447 -0.349,-0.81 -0.78,-0.81c-0.431,0 -0.78,0.363 -0.78,0.81c0,0.447 0.349,0.81 0.78,0.81Z" clip-rule="nonzero"/></clipPath><g clip-path="url(#_clip24)"><rect x="34.83" y="31.8" width="9.06" height="9.12" style="fill:#fff;"/></g><clipPath id="_clip25"><path d="M31.71,47.22c0.09,-0.09 0.18,-0.18 0.27,-0.27c-1.26,0.6 -2.49,1.41 -3.54,2.37c-3.99,3.63 -5.16,8.7 -3.36,12.78l5.28,0.72c-3.24,-4.86 -2.88,-11.19 1.35,-15.6Z" clip-rule="nonzero"/></clipPath><g clip-path="url(#_clip25)"><rect x="20.508" y="43.2" width="15.222" height="23.37" style="fill:#fff;"/></g><path d="M32.14,47.639c-4.024,4.198 -4.364,10.223 -1.281,14.848c0.131,0.196 0.135,0.451 0.01,0.651c-0.126,0.2 -0.356,0.308 -0.59,0.276l-5.28,-0.72c-0.207,-0.028 -0.384,-0.161 -0.468,-0.352c-1.895,-4.296 -0.696,-9.643 3.504,-13.465c1.094,-1 2.375,-1.844 3.687,-2.469c0.264,-0.125 0.58,-0.043 0.748,0.196c0.169,0.238 0.141,0.564 -0.066,0.77l-0.264,0.265Zm-2.765,1.666c-0.182,0.148 -0.359,0.301 -0.531,0.459c-3.68,3.347 -4.858,7.98 -3.343,11.788l3.699,0.504c-2.177,-4.024 -2.16,-8.796 0.175,-12.751Z" style="fill:#fff;"/><clipPath id="_clip26"><path d="M47.64,57.33c0.03,-0.03 0.06,-0.09 0.12,-0.12c-0.54,0.33 -1.05,0.72 -1.47,1.2c-1.53,1.74 -1.53,3.93 -0.24,5.58l2.64,0.03c-2.07,-1.92 -2.61,-4.59 -1.05,-6.69Z" clip-rule="nonzero"/></clipPath><g clip-path="url(#_clip26)"><rect x="41.361" y="53.46" width="11.079" height="14.31" style="fill:#fff;"/></g><path d="M47.448,56.699c0.014,-0.01 0.029,-0.018 0.044,-0.026c0.287,-0.143 0.637,-0.035 0.793,0.246c0.146,0.264 0.073,0.592 -0.164,0.77l-0.004,0.005c-1.37,1.851 -0.843,4.195 0.981,5.886c0.182,0.169 0.241,0.432 0.149,0.662c-0.092,0.231 -0.316,0.381 -0.564,0.378l-2.64,-0.03c-0.182,-0.002 -0.353,-0.087 -0.466,-0.23c-1.467,-1.877 -1.477,-4.368 0.261,-6.345c0.461,-0.526 1.018,-0.955 1.609,-1.317l0.001,0.001Zm-1.304,2.969c-0.645,1.234 -0.547,2.603 0.214,3.725l0.976,0.012c-0.856,-1.157 -1.273,-2.461 -1.19,-3.737Z" style="fill:#fff;"/><clipPath id="_clip27"><path d="M90.93,69.96c0,0 -13.56,11.91 -9.81,23.79c-0,0 2.01,5.79 8.61,6.81c6.39,0.96 7.71,-2.1 9.21,-3.6c-6.06,-2.43 -3.36,-10.29 -2.01,-11.67c-2.79,0 -6,-2.37 -7.14,-4.92c-1.11,-2.55 -0.48,-4.98 1.14,-10.41Z" clip-rule="nonzero"/></clipPath><g clip-path="url(#_clip27)"><rect x="76.714" y="66.21" width="25.976" height="38.283" style="fill:#372e42;"/></g><clipPath id="_clip28"><path d="M81.12,93.78c-0,0 1.92,5.55 8.22,6.72c-3.06,-7.29 -4.35,-16.44 -4.89,-22.83c-2.85,4.44 -5.16,10.26 -3.33,16.11Z" clip-rule="nonzero"/></clipPath><g clip-path="url(#_clip28)"><rect x="76.717" y="73.92" width="16.373" height="30.33" style="fill:#2d2638;fill-opacity:0.83;"/></g><path d="M91.792,70.217c0.115,-0.384 -0.039,-0.798 -0.376,-1.015c-0.338,-0.216 -0.778,-0.183 -1.08,0.082c0,-0 -5.008,4.397 -8.183,10.547c-2.167,4.198 -3.467,9.199 -1.891,14.19l0.008,0.024c-0,0 2.165,6.298 9.323,7.404c2.785,0.419 4.681,0.111 6.063,-0.483c2.037,-0.875 2.958,-2.407 3.92,-3.37c0.214,-0.213 0.306,-0.52 0.246,-0.817c-0.061,-0.296 -0.266,-0.542 -0.547,-0.654c-2.6,-1.043 -3.293,-3.267 -3.219,-5.362c0.076,-2.165 0.919,-4.232 1.517,-4.844c0.254,-0.259 0.327,-0.644 0.187,-0.978c-0.141,-0.334 -0.468,-0.551 -0.83,-0.551c-2.475,-0 -5.307,-2.125 -6.318,-4.387c-0.487,-1.118 -0.58,-2.218 -0.384,-3.635c0.216,-1.571 0.772,-3.493 1.564,-6.151Zm-2.684,2.86c-1.617,1.788 -3.737,4.444 -5.355,7.58c-1.958,3.792 -3.197,8.299 -1.779,12.807c0.087,0.241 1.996,5.295 7.89,6.206c2.331,0.35 3.923,0.14 5.081,-0.357c1.209,-0.52 1.942,-1.332 2.551,-2.062c-2.566,-1.521 -3.326,-4.088 -3.239,-6.552c0.063,-1.792 0.599,-3.512 1.172,-4.697c-2.683,-0.646 -5.393,-2.878 -6.464,-5.273c-0.916,-2.103 -0.776,-4.136 0.143,-7.652Z" style="fill:#272130;"/><path d="M60.84,54.209c0,-0 0.1,3.65 -2.953,6.332c-2.138,1.877 -5.768,3.238 -11.887,2.762c-18.222,-1.436 -35.068,-4.518 -35.068,-4.518c-0.489,-0.09 -0.958,0.234 -1.047,0.723c-0.09,0.489 0.234,0.958 0.723,1.047c0,0 16.934,3.098 35.251,4.542c6.819,0.532 10.834,-1.112 13.215,-3.203c3.725,-3.272 3.566,-7.743 3.566,-7.743c-0.016,-0.496 -0.432,-0.886 -0.929,-0.871c-0.496,0.016 -0.886,0.432 -0.871,0.929Z" style="fill:#204751;"/><clipPath id="_clip29"><path d="M37.17,99.51c3.91,0 7.08,-3.17 7.08,-7.08c0,-3.91 -3.17,-7.08 -7.08,-7.08c-3.91,0 -7.08,3.17 -7.08,7.08c-0,3.91 3.17,7.08 7.08,7.08Z" clip-rule="nonzero"/></clipPath><g clip-path="url(#_clip29)"><rect x="26.34" y="81.6" width="21.66" height="21.66" style="fill:#6d87ac;fill-opacity:0.78;"/></g><clipPath id="_clip30"><path d="M54.81,38.25c1.226,0 2.22,-0.994 2.22,-2.22c0,-1.226 -0.994,-2.22 -2.22,-2.22c-1.226,0 -2.22,0.994 -2.22,2.22c0,1.226 0.994,2.22 2.22,2.22Z" clip-rule="nonzero"/></clipPath><g clip-path="url(#_clip30)"><rect x="48.84" y="30.06" width="11.94" height="11.94" style="fill:#6d87ac;fill-opacity:0.78;"/></g><clipPath id="_clip31"><path d="M60.39,30.99c1.839,-0 3.33,-1.491 3.33,-3.33c-0,-1.839 -1.491,-3.33 -3.33,-3.33c-1.839,-0 -3.33,1.491 -3.33,3.33c0,1.839 1.491,3.33 3.33,3.33Z" clip-rule="nonzero"/></clipPath><g clip-path="url(#_clip31)"><rect x="53.31" y="20.58" width="14.16" height="14.16" style="fill:#6d87ac;fill-opacity:0.78;"/></g><clipPath id="_clip32"><path d="M57.84,71.13c0.928,0 1.68,-0.752 1.68,-1.68c0,-0.928 -0.752,-1.68 -1.68,-1.68c-0.928,0 -1.68,0.752 -1.68,1.68c0,0.928 0.752,1.68 1.68,1.68Z" clip-rule="nonzero"/></clipPath><g clip-path="url(#_clip32)"><rect x="52.41" y="64.02" width="10.86" height="10.86" style="fill:#6d87ac;fill-opacity:0.78;"/></g><clipPath id="_clip33"><path d="M60.63,42.12c0.613,0 1.11,-0.497 1.11,-1.11c0,-0.613 -0.497,-1.11 -1.11,-1.11c-0.613,0 -1.11,0.497 -1.11,1.11c0,0.613 0.497,1.11 1.11,1.11Z" clip-rule="nonzero"/></clipPath><g clip-path="url(#_clip33)"><rect x="55.77" y="36.15" width="9.72" height="9.72" style="fill:#6d87ac;fill-opacity:0.39;"/></g><clipPath id="_clip34"><path d="M89.7,44.25c3.91,0 7.08,-3.17 7.08,-7.08c-0,-3.91 -3.17,-7.08 -7.08,-7.08c-3.91,0 -7.08,3.17 -7.08,7.08c-0,3.91 3.17,7.08 7.08,7.08Z" clip-rule="nonzero"/></clipPath><g clip-path="url(#_clip34)"><rect x="78.87" y="26.34" width="21.66" height="21.66" style="fill:#6d87ac;fill-opacity:0.78;"/></g><clipPath id="_clip35"><path d="M111.6,57.51c4.871,0 8.82,-3.949 8.82,-8.82c-0,-4.871 -3.949,-8.82 -8.82,-8.82c-4.871,0 -8.82,3.949 -8.82,8.82c-0,4.871 3.949,8.82 8.82,8.82Z" clip-rule="nonzero"/></clipPath><g clip-path="url(#_clip35)"><rect x="99.03" y="36.12" width="25.14" height="25.14" style="fill:#6d87ac;fill-opacity:0.39;"/></g><clipPath id="_clip36"><path d="M127.53,67.59c1.988,0 3.6,-1.612 3.6,-3.6c0,-1.988 -1.612,-3.6 -3.6,-3.6c-1.988,0 -3.6,1.612 -3.6,3.6c0,1.988 1.612,3.6 3.6,3.6Z" clip-rule="nonzero"/></clipPath><g clip-path="url(#_clip36)"><rect x="120.18" y="56.64" width="14.7" height="14.7" style="fill:#6d87ac;fill-opacity:0.78;"/></g><clipPath id="_clip37"><path d="M52.62,101.55c1.458,0 2.64,-1.182 2.64,-2.64c0,-1.458 -1.182,-2.64 -2.64,-2.64c-1.458,0 -2.64,1.182 -2.64,2.64c-0,1.458 1.182,2.64 2.64,2.64Z" clip-rule="nonzero"/></clipPath><g clip-path="url(#_clip37)"><rect x="46.23" y="92.52" width="12.78" height="12.78" style="fill:#6d87ac;fill-opacity:0.78;"/></g><path d="M84.35,87.688c-0,-0 3.075,-1.944 4.399,-3.299c0.232,-0.236 0.227,-0.617 -0.01,-0.848c-0.236,-0.232 -0.617,-0.227 -0.848,0.01c-1.256,1.285 -4.181,3.121 -4.181,3.121c-0.28,0.177 -0.364,0.548 -0.188,0.828c0.177,0.28 0.548,0.364 0.828,0.188Z" style="fill:#272130;"/><path d="M84.156,91.547c0,-0 2.992,-0.645 5.312,-1.554c1.068,-0.419 1.994,-0.907 2.486,-1.399c0.234,-0.234 0.234,-0.614 0,-0.848c-0.234,-0.234 -0.614,-0.234 -0.848,-0c-0.408,0.408 -1.192,0.782 -2.077,1.13c-2.237,0.877 -5.125,1.497 -5.125,1.497c-0.324,0.07 -0.53,0.389 -0.461,0.713c0.07,0.324 0.389,0.53 0.713,0.461Z" style="fill:#272130;"/><path d="M85.098,94.337c-0,0 4.018,1.601 7.04,2.508c0.317,0.095 0.652,-0.085 0.747,-0.403c0.095,-0.317 -0.085,-0.652 -0.403,-0.747c-2.978,-0.893 -6.94,-2.472 -6.94,-2.472c-0.308,-0.123 -0.657,0.027 -0.779,0.335c-0.123,0.308 0.027,0.657 0.335,0.779Z" style="fill:#272130;"/><path d="M48.13,114.396c0,-0 0.658,1.706 1.66,3.293c0.712,1.128 1.608,2.179 2.547,2.615c0.3,0.14 0.658,0.009 0.797,-0.291c0.14,-0.3 0.009,-0.658 -0.291,-0.797c-0.765,-0.356 -1.458,-1.249 -2.039,-2.168c-0.938,-1.486 -1.554,-3.084 -1.554,-3.084c-0.119,-0.309 -0.467,-0.463 -0.776,-0.344c-0.309,0.119 -0.463,0.467 -0.344,0.776Z" style="fill:#272130;"/></svg>